<?xml version="1.0" encoding="UTF-8"?>
<svg width="20px" height="20px" viewBox="0 0 20 20" version="1.1" xmlns="http://www.w3.org/2000/svg" xmlns:xlink="http://www.w3.org/1999/xlink">
    <!-- Generator: Sketch 55 (78076) - https://sketchapp.com -->
    <title>icon_edit_blue</title>
    <desc>Created with Sketch.</desc>
    <g id="icon_edit_blue" stroke="none" stroke-width="1" fill="none" fill-rule="evenodd">
        <g>
            <rect id="Rectangle" fill-opacity="0" fill="#D8D8D8" x="0" y="0" width="20" height="20"></rect>
            <g id="icon_xiugai" transform="translate(2.000000, 2.000000)">
                <path d="M12.8421924,4.57159152 L14.8849817,2.60675733 C15.0658823,2.42560674 15.1779413,2.17555206 15.1779413,1.89931069 C15.1779413,1.34701545 14.7302678,0.899341939 14.1779725,0.899341939 C13.9010593,0.899341939 13.6508328,1.01213528 13.4697447,1.19394211 L10.0140933,4.57159152 L12.8421924,4.57159152 Z M10.0140933,4.57157589 L5.27474142,9.31069342 L6.68875972,10.7247117 L12.8421924,4.57157589 L10.0140933,4.57157589 Z" id="Shape" fill="#3E86FF" fill-rule="nonzero"></path>
                <polygon id="Path" fill="#3E86FF" fill-rule="nonzero" points="2.99990625 12.9995938 5.9998125 11.4996406 4.49985938 9.99968752"></polygon>
                <path d="M15,7 L15,13 C15,14.1045695 14.1605339,15 13.125,15 L1.875,15 C0.839466094,15 0,14.1045695 0,13 L0,5 C0,3.8954305 0.839466094,3 1.875,3 L7.62802858,3" id="Path" stroke="#3E86FF" stroke-linecap="round" stroke-linejoin="round"></path>
            </g>
        </g>
    </g>
</svg>