<?xml version="1.0" encoding="utf-8"?>
<svg version="1.1" xmlns:xlink="http://www.w3.org/1999/xlink" width="13px" height="15px" xmlns="http://www.w3.org/2000/svg">
  <g transform="matrix(1 0 0 1 -10 -42 )">
    <path d="M 10.8333333333333 4.28571428571429  C 10.8333333333333 5.10602678571429  10.6104600694444 5.86495535714286  10.1647135416667 6.5625  C 10.4299045138889 6.640625  10.6824001736111 6.74665178571429  10.9222005208333 6.88058035714286  C 11.1620008680556 7.01450892857143  11.4130859375 7.21819196428571  11.6754557291667 7.49162946428571  C 11.9378255208333 7.76506696428571  12.162109375 8.08733258928571  12.3483072916667 8.45842633928572  C 12.5345052083333 8.82952008928571  12.6896701388889 9.30943080357143  12.8138020833333 9.89815848214286  C 12.9379340277778 10.4868861607143  13 11.1467633928571  13 11.8777901785714  C 13 12.7371651785714  12.7178819444444 13.4723772321429  12.1536458333333 14.0834263392857  C 11.5894097222222 14.6944754464286  10.9095052083333 15  10.1139322916667 15  L 2.88606770833333 15  C 2.09049479166667 15  1.41059027777778 14.6944754464286  0.846354166666667 14.0834263392857  C 0.282118055555556 13.4723772321429  0 12.7371651785714  0 11.8777901785714  C 0 11.1467633928571  0.0620659722222222 10.4868861607143  0.186197916666667 9.89815848214286  C 0.310329861111111 9.30943080357143  0.465494791666667 8.82952008928571  0.651692708333333 8.45842633928572  C 0.837890625 8.08733258928571  1.06217447916667 7.76506696428571  1.32454427083333 7.49162946428571  C 1.5869140625 7.21819196428571  1.83799913194444 7.01450892857143  2.07779947916667 6.88058035714286  C 2.31759982638889 6.74665178571429  2.57009548611111 6.640625  2.83528645833333 6.5625  C 2.38953993055556 5.86495535714286  2.16666666666667 5.10602678571429  2.16666666666667 4.28571428571429  C 2.16666666666667 3.70535714285714  2.28092447916667 3.15150669642857  2.50944010416667 2.62416294642857  C 2.73795572916667 2.09681919642857  3.046875 1.640625  3.43619791666667 1.25558035714286  C 3.82552083333333 0.870535714285715  4.28678385416667 0.565011160714285  4.81998697916667 0.339006696428571  C 5.35319010416667 0.113002232142856  5.91319444444444 0  6.5 0  C 7.08680555555556 0  7.64680989583333 0.113002232142856  8.18001302083333 0.339006696428571  C 8.71321614583333 0.565011160714285  9.17447916666667 0.870535714285715  9.56380208333333 1.25558035714286  C 9.953125 1.640625  10.2620442708333 2.09681919642857  10.4905598958333 2.62416294642857  C 10.7190755208333 3.15150669642857  10.8333333333333 3.70535714285714  10.8333333333333 4.28571428571429  Z M 8.7978515625 2.01311383928571  C 8.1630859375 1.38532366071429  7.39713541666667 1.07142857142857  6.5 1.07142857142857  C 5.60286458333333 1.07142857142857  4.8369140625 1.38532366071429  4.2021484375 2.01311383928571  C 3.5673828125 2.64090401785714  3.25 3.3984375  3.25 4.28571428571429  C 3.25 5.17299107142857  3.5673828125 5.93052455357143  4.2021484375 6.55831473214286  C 4.8369140625 7.18610491071429  5.60286458333333 7.5  6.5 7.5  C 7.39713541666667 7.5  8.1630859375 7.18610491071429  8.7978515625 6.55831473214286  C 9.4326171875 5.93052455357143  9.75 5.17299107142857  9.75 4.28571428571429  C 9.75 3.3984375  9.4326171875 2.64090401785714  8.7978515625 2.01311383928571  Z M 2.88606770833333 13.9285714285714  L 10.1139322916667 13.9285714285714  C 10.6104600694444 13.9285714285714  11.0350477430556 13.7290736607143  11.3876953125 13.330078125  C 11.7403428819444 12.9310825892857  11.9166666666667 12.4469866071429  11.9166666666667 11.8777901785714  C 11.9166666666667 10.5440848214286  11.6952039930556 9.4921875  11.2522786458333 8.72209821428572  C 10.8093532986111 7.95200892857143  10.1731770833333 7.54743303571428  9.34375 7.50837053571429  C 8.52560763888889 8.21707589285714  7.57769097222222 8.57142857142857  6.5 8.57142857142857  C 5.42230902777778 8.57142857142857  4.47439236111111 8.21707589285714  3.65625 7.50837053571429  C 2.82682291666667 7.54743303571428  2.19064670138889 7.95200892857143  1.74772135416667 8.72209821428572  C 1.30479600694444 9.4921875  1.08333333333333 10.5440848214286  1.08333333333333 11.8777901785714  C 1.08333333333333 12.4469866071429  1.25965711805556 12.9310825892857  1.6123046875 13.330078125  C 1.96495225694444 13.7290736607143  2.38953993055556 13.9285714285714  2.88606770833333 13.9285714285714  Z " fill-rule="nonzero" fill="#aaaaaa" stroke="none" transform="matrix(1 0 0 1 10 42 )" />
  </g>
</svg>