<?xml version="1.0" encoding="utf-8"?>
<svg version="1.1" xmlns:xlink="http://www.w3.org/1999/xlink" width="171px" height="75px" xmlns="http://www.w3.org/2000/svg">
  <g transform="matrix(1 0 0 1 -104 -305 )">
    <path d="M 189.5 306  C 236.82 306  274 322.06  274 342.5  C 274 362.94  236.82 379  189.5 379  C 142.18 379  105 362.94  105 342.5  C 105 322.06  142.18 306  189.5 306  Z " fill-rule="nonzero" fill="#ffffff" stroke="none" />
    <path d="M 189.5 306  C 236.82 306  274 322.06  274 342.5  C 274 362.94  236.82 379  189.5 379  C 142.18 379  105 362.94  105 342.5  C 105 322.06  142.18 306  189.5 306  Z " stroke-width="2" stroke="#333333" fill="none" />
  </g>
</svg>