<?xml version="1.0" encoding="utf-8"?>
<svg version="1.1" xmlns:xlink="http://www.w3.org/1999/xlink" width="171px" height="75px" xmlns="http://www.w3.org/2000/svg">
  <g transform="matrix(1 0 0 1 -1621 -573 )">
    <path d="M 1706.5 574  C 1753.82 574  1791 590.06  1791 610.5  C 1791 630.94  1753.82 647  1706.5 647  C 1659.18 647  1622 630.94  1622 610.5  C 1622 590.06  1659.18 574  1706.5 574  Z " fill-rule="nonzero" fill="#ffffff" stroke="none" />
    <path d="M 1706.5 574  C 1753.82 574  1791 590.06  1791 610.5  C 1791 630.94  1753.82 647  1706.5 647  C 1659.18 647  1622 630.94  1622 610.5  C 1622 590.06  1659.18 574  1706.5 574  Z " stroke-width="2" stroke="#333333" fill="none" />
  </g>
</svg>