<?xml version="1.0" encoding="utf-8"?>
<svg version="1.1" xmlns:xlink="http://www.w3.org/1999/xlink" width="15px" height="17px" xmlns="http://www.w3.org/2000/svg">
  <g transform="matrix(1 0 0 1 -1039 -260 )">
    <path d="M 5.35866477272727 6.474609375  C 5.42258522727273 6.541015625  5.45454545454546 6.62586805555556  5.45454545454546 6.72916666666667  L 5.45454545454546 13.1041666666667  C 5.45454545454546 13.2074652777778  5.42258522727273 13.2923177083333  5.35866477272727 13.3587239583333  C 5.29474431818182 13.4251302083333  5.21306818181818 13.4583333333333  5.11363636363636 13.4583333333333  L 4.43181818181818 13.4583333333333  C 4.33238636363636 13.4583333333333  4.25071022727273 13.4251302083333  4.18678977272727 13.3587239583333  C 4.12286931818182 13.2923177083333  4.09090909090909 13.2074652777778  4.09090909090909 13.1041666666667  L 4.09090909090909 6.72916666666667  C 4.09090909090909 6.62586805555556  4.12286931818182 6.541015625  4.18678977272727 6.474609375  C 4.25071022727273 6.408203125  4.33238636363636 6.375  4.43181818181818 6.375  L 5.11363636363636 6.375  C 5.21306818181818 6.375  5.29474431818182 6.408203125  5.35866477272727 6.474609375  Z M 8.0859375 6.474609375  C 8.14985795454546 6.541015625  8.18181818181818 6.62586805555556  8.18181818181818 6.72916666666667  L 8.18181818181818 13.1041666666667  C 8.18181818181818 13.2074652777778  8.14985795454546 13.2923177083333  8.0859375 13.3587239583333  C 8.02201704545455 13.4251302083333  7.94034090909091 13.4583333333333  7.84090909090909 13.4583333333333  L 7.15909090909091 13.4583333333333  C 7.05965909090909 13.4583333333333  6.97798295454546 13.4251302083333  6.9140625 13.3587239583333  C 6.85014204545455 13.2923177083333  6.81818181818182 13.2074652777778  6.81818181818182 13.1041666666667  L 6.81818181818182 6.72916666666667  C 6.81818181818182 6.62586805555556  6.85014204545455 6.541015625  6.9140625 6.474609375  C 6.97798295454546 6.408203125  7.05965909090909 6.375  7.15909090909091 6.375  L 7.84090909090909 6.375  C 7.94034090909091 6.375  8.02201704545455 6.408203125  8.0859375 6.474609375  Z M 10.8132102272727 6.474609375  C 10.8771306818182 6.541015625  10.9090909090909 6.62586805555556  10.9090909090909 6.72916666666667  L 10.9090909090909 13.1041666666667  C 10.9090909090909 13.2074652777778  10.8771306818182 13.2923177083333  10.8132102272727 13.3587239583333  C 10.7492897727273 13.4251302083333  10.6676136363636 13.4583333333333  10.5681818181818 13.4583333333333  L 9.88636363636364 13.4583333333333  C 9.78693181818182 13.4583333333333  9.70525568181818 13.4251302083333  9.64133522727273 13.3587239583333  C 9.57741477272727 13.2923177083333  9.54545454545455 13.2074652777778  9.54545454545455 13.1041666666667  L 9.54545454545455 6.72916666666667  C 9.54545454545455 6.62586805555556  9.57741477272727 6.541015625  9.64133522727273 6.474609375  C 9.70525568181818 6.408203125  9.78693181818182 6.375  9.88636363636364 6.375  L 10.5681818181818 6.375  C 10.6676136363636 6.375  10.7492897727273 6.408203125  10.8132102272727 6.474609375  Z M 12.1981534090909 15.1904296875  C 12.2478693181818 15.0539279513889  12.2727272727273 14.9045138888889  12 14.7421875  L 12 4.25  L 3 4.25  L 3 14.7421875  C 2.72727272727273 14.9045138888889  2.75213068181818 15.0539279513889  2.80184659090909 15.1904296875  C 2.8515625 15.3269314236111  2.90305397727273 15.4265407986111  2.95632102272727 15.4892578125  C 3.00958806818182 15.5519748263889  3.046875 15.5833333333333  3.06818181818182 15.5833333333333  L 11.9318181818182 15.5833333333333  C 11.953125 15.5833333333333  11.9904119318182 15.5519748263889  12.0436789772727 15.4892578125  C 12.0969460227273 15.4265407986111  12.1484375 15.3269314236111  12.1981534090909 15.1904296875  Z M 5.63565340909091 1.53841145833333  L 5.11363636363636 2.83333333333333  L 9.88636363636364 2.83333333333333  L 9.375 1.53841145833333  C 9.32528409090909 1.47200520833333  9.26491477272727 1.43142361111111  9.19389204545455 1.41666666666667  L 5.81676136363636 1.41666666666667  C 5.74573863636364 1.43142361111111  5.68536931818182 1.47200520833333  5.63565340909091 1.53841145833333  Z M 14.9041193181818 2.93294270833333  C 14.9680397727273 2.99934895833333  15 3.08420138888889  15 3.1875  L 15 3.89583333333333  C 15 3.99913194444444  14.9680397727273 4.083984375  14.9041193181818 4.150390625  C 14.8401988636364 4.216796875  14.7585227272727 4.25  14.6590909090909 4.25  L 13.6363636363636 4.25  L 13.6363636363636 14.7421875  C 13.6363636363636 15.3546006944444  13.4694602272727 15.8840060763889  13.1356534090909 16.3304036458333  C 12.8018465909091 16.7768012152778  12.4005681818182 17  11.9318181818182 17  L 3.06818181818182 17  C 2.59943181818182 17  2.19815340909091 16.7841796875  1.86434659090909 16.3525390625  C 1.53053977272727 15.9208984375  1.36363636363636 15.3988715277778  1.36363636363636 14.7864583333333  L 1.36363636363636 4.25  L 0.340909090909091 4.25  C 0.241477272727273 4.25  0.159801136363636 4.216796875  0.0958806818181818 4.150390625  C 0.0319602272727273 4.083984375  0 3.99913194444444  0 3.89583333333333  L 0 3.1875  C 0 3.08420138888889  0.0319602272727273 2.99934895833333  0.0958806818181818 2.93294270833333  C 0.159801136363636 2.86653645833333  0.241477272727273 2.83333333333333  0.340909090909091 2.83333333333333  L 3.6328125 2.83333333333333  L 4.37855113636364 0.985026041666667  C 4.48508522727273 0.712022569444443  4.67684659090909 0.479600694444443  4.95383522727273 0.287760416666667  C 5.23082386363636 0.0959201388888878  5.51136363636364 0  5.79545454545455 0  L 9.20454545454546 0  C 9.48863636363637 0  9.76917613636364 0.0959201388888878  10.0461647727273 0.287760416666667  C 10.3231534090909 0.479600694444443  10.5149147727273 0.712022569444443  10.6214488636364 0.985026041666667  L 11.3671875 2.83333333333333  L 14.6590909090909 2.83333333333333  C 14.7585227272727 2.83333333333333  14.8401988636364 2.86653645833333  14.9041193181818 2.93294270833333  Z " fill-rule="nonzero" fill="#616a7d" stroke="none" transform="matrix(1 0 0 1 1039 260 )" />
  </g>
</svg>