<?xml version="1.0" encoding="utf-8"?>
<svg version="1.1" xmlns:xlink="http://www.w3.org/1999/xlink" width="18px" height="18px" xmlns="http://www.w3.org/2000/svg">
  <g transform="matrix(1 0 0 1 -1084 -174 )">
    <path d="M 4.9921875 0.0401785714285723  C 5.0390625 0.0133928571428581  5.08928571428572 0  5.14285714285714 0  C 5.22991071428572 0  5.30524553571429 0.0318080357142865  5.36886160714286 0.0954241071428574  C 5.43247767857143 0.159040178571428  5.46428571428571 0.234374999999999  5.46428571428571 0.321428571428572  L 5.46428571428571 15.1071428571429  C 5.46428571428571 15.2410714285714  5.40736607142857 15.3348214285714  5.29352678571429 15.3883928571429  L 0.472098214285714 17.9598214285714  C 0.425223214285714 17.9866071428571  0.375 18  0.321428571428571 18  C 0.234375 18  0.159040178571429 17.9681919642857  0.0954241071428572 17.9045758928571  C 0.0318080357142857 17.8409598214286  0 17.765625  0 17.6785714285714  L 0 2.89285714285714  C 0 2.75892857142857  0.0569196428571428 2.66517857142857  0.170758928571429 2.61160714285714  L 4.9921875 0.0401785714285723  Z M 17.5279017857143 0.0401785714285723  C 17.5747767857143 0.0133928571428581  17.625 0  17.6785714285714 0  C 17.765625 0  17.8409598214286 0.0318080357142865  17.9045758928571 0.0954241071428574  C 17.9681919642857 0.159040178571428  18 0.234374999999999  18 0.321428571428572  L 18 15.1071428571429  C 18 15.2410714285714  17.9430803571429 15.3348214285714  17.8292410714286 15.3883928571429  L 13.0078125 17.9598214285714  C 12.9609375 17.9866071428571  12.9107142857143 18  12.8571428571429 18  C 12.7700892857143 18  12.6947544642857 17.9681919642857  12.6311383928571 17.9045758928571  C 12.5675223214286 17.8409598214286  12.5357142857143 17.765625  12.5357142857143 17.6785714285714  L 12.5357142857143 2.89285714285714  C 12.5357142857143 2.75892857142857  12.5926339285714 2.66517857142857  12.7064732142857 2.61160714285714  L 17.5279017857143 0.0401785714285723  Z M 6.20256696428571 0.0954241071428574  C 6.26618303571429 0.0318080357142865  6.34151785714286 0  6.42857142857143 0  C 6.48214285714286 0  6.52901785714286 0.0100446428571426  6.56919642857143 0.0301339285714277  L 11.7120535714286 2.6015625  C 11.8325892857143 2.66852678571428  11.8928571428571 2.765625  11.8928571428571 2.89285714285714  L 11.8928571428571 17.6785714285714  C 11.8928571428571 17.765625  11.8610491071429 17.8409598214286  11.7974330357143 17.9045758928571  C 11.7338169642857 17.9681919642857  11.6584821428571 18  11.5714285714286 18  C 11.5178571428571 18  11.4709821428571 17.9899553571429  11.4308035714286 17.9698660714286  L 6.28794642857143 15.3984375  C 6.16741071428571 15.3314732142857  6.10714285714286 15.234375  6.10714285714286 15.1071428571429  L 6.10714285714286 0.321428571428572  C 6.10714285714286 0.234374999999999  6.13895089285714 0.159040178571428  6.20256696428571 0.0954241071428574  Z " fill-rule="nonzero" fill="#3e86ff" stroke="none" transform="matrix(1 0 0 1 1084 174 )" />
  </g>
</svg>