<?xml version="1.0" encoding="utf-8"?>
<svg version="1.1" xmlns:xlink="http://www.w3.org/1999/xlink" width="14px" height="14px" xmlns="http://www.w3.org/2000/svg">
  <g transform="matrix(1 0 0 1 -105 -6 )">
    <path d="M 112 7  C 115.36 7  118 9.64  118 13  C 118 16.36  115.36 19  112 19  C 108.64 19  106 16.36  106 13  C 106 9.64  108.64 7  112 7  Z " fill-rule="nonzero" fill="#ffffff" stroke="none" />
    <path d="M 112 7  C 115.36 7  118 9.64  118 13  C 118 16.36  115.36 19  112 19  C 108.64 19  106 16.36  106 13  C 106 9.64  108.64 7  112 7  Z " stroke-width="2" stroke="#17d5ab" fill="none" />
  </g>
</svg>