<?xml version="1.0" encoding="utf-8"?>
<svg version="1.1" xmlns:xlink="http://www.w3.org/1999/xlink" width="18px" height="21px" xmlns="http://www.w3.org/2000/svg">
  <g transform="matrix(1 0 0 1 -196 -918 )">
    <path d="M 13.546875 0.796875000000001  L 17.203125 4.453125  C 17.421875 4.671875  17.609375 4.96875  17.765625 5.34375  C 17.921875 5.71875  18 6.0625  18 6.375  L 18 19.875  C 18 20.1875  17.890625 20.453125  17.671875 20.671875  C 17.453125 20.890625  17.1875 21  16.875 21  L 1.125 21  C 0.8125 21  0.546875 20.890625  0.328125 20.671875  C 0.109375 20.453125  0 20.1875  0 19.875  L 0 1.125  C 0 0.812499999999999  0.109375 0.546874999999999  0.328125 0.328125  C 0.546875 0.109375000000001  0.8125 0  1.125 0  L 11.625 0  C 11.9375 0  12.28125 0.0781250000000009  12.65625 0.234375  C 13.03125 0.390625  13.328125 0.578124999999999  13.546875 0.796875000000001  Z M 12.48046875 1.8515625  C 12.38671875 1.7578125  12.2265625 1.671875  12 1.59375  L 12 6  L 16.40625 6  C 16.328125 5.7734375  16.2421875 5.61328125  16.1484375 5.51953125  L 12.48046875 1.8515625  Z M 1.5 19.5  L 16.5 19.5  L 16.5 7.5  L 11.625 7.5  C 11.3125 7.5  11.046875 7.390625  10.828125 7.171875  C 10.609375 6.953125  10.5 6.6875  10.5 6.375  L 10.5 1.5  L 1.5 1.5  L 1.5 19.5  Z M 8.765625 9.76171875  C 9.1953125 11.04296875  9.765625 11.97265625  10.4765625 12.55078125  C 10.734375 12.75390625  11.0625 12.97265625  11.4609375 13.20703125  C 11.921875 13.15234375  12.37890625 13.125  12.83203125 13.125  C 13.98046875 13.125  14.671875 13.31640625  14.90625 13.69921875  C 15.03125 13.87109375  15.0390625 14.07421875  14.9296875 14.30859375  C 14.9296875 14.31640625  14.92578125 14.32421875  14.91796875 14.33203125  L 14.89453125 14.35546875  L 14.89453125 14.3671875  C 14.84765625 14.6640625  14.5703125 14.8125  14.0625 14.8125  C 13.6875 14.8125  13.23828125 14.734375  12.71484375 14.578125  C 12.19140625 14.421875  11.68359375 14.21484375  11.19140625 13.95703125  C 9.46484375 14.14453125  7.93359375 14.46875  6.59765625 14.9296875  C 5.40234375 16.9765625  4.45703125 18  3.76171875 18  C 3.64453125 18  3.53515625 17.97265625  3.43359375 17.91796875  L 3.15234375 17.77734375  C 3.14453125 17.76953125  3.12109375 17.75  3.08203125 17.71875  C 3.00390625 17.640625  2.98046875 17.5  3.01171875 17.296875  C 3.08203125 16.984375  3.30078125 16.626953125  3.66796875 16.224609375  C 4.03515625 15.822265625  4.55078125 15.4453125  5.21484375 15.09375  C 5.32421875 15.0234375  5.4140625 15.046875  5.484375 15.1640625  C 5.5 15.1796875  5.5078125 15.1953125  5.5078125 15.2109375  C 5.9140625 14.546875  6.33203125 13.77734375  6.76171875 12.90234375  C 7.29296875 11.83984375  7.69921875 10.81640625  7.98046875 9.83203125  C 7.79296875 9.19140625  7.673828125 8.568359375  7.623046875 7.962890625  C 7.572265625 7.357421875  7.59765625 6.859375  7.69921875 6.46875  C 7.78515625 6.15625  7.94921875 6  8.19140625 6  L 8.4375 6  L 8.44921875 6  C 8.62890625 6  8.765625 6.05859375  8.859375 6.17578125  C 9 6.33984375  9.03515625 6.60546875  8.96484375 6.97265625  C 8.94921875 7.01953125  8.93359375 7.05078125  8.91796875 7.06640625  C 8.92578125 7.08984375  8.9296875 7.12109375  8.9296875 7.16015625  L 8.9296875 7.51171875  C 8.9140625 8.47265625  8.859375 9.22265625  8.765625 9.76171875  Z M 4.306640625 16.5  C 4.021484375 16.84375  3.828125 17.1328125  3.7265625 17.3671875  C 4.1328125 17.1796875  4.66796875 16.5625  5.33203125 15.515625  C 4.93359375 15.828125  4.591796875 16.15625  4.306640625 16.5  Z M 8.390625 6.5625  L 8.390625 6.5859375  C 8.2734375 6.9140625  8.265625 7.4296875  8.3671875 8.1328125  C 8.375 8.078125  8.40234375 7.90625  8.44921875 7.6171875  C 8.44921875 7.59375  8.4765625 7.42578125  8.53125 7.11328125  C 8.5390625 7.08203125  8.5546875 7.05078125  8.578125 7.01953125  C 8.5703125 7.01171875  8.56640625 7.00390625  8.56640625 6.99609375  C 8.55859375 6.98046875  8.5546875 6.96875  8.5546875 6.9609375  C 8.546875 6.7890625  8.49609375 6.6484375  8.40234375 6.5390625  C 8.40234375 6.546875  8.3984375 6.5546875  8.390625 6.5625  Z M 7.46484375 13.359375  C 7.23046875 13.796875  7.0546875 14.12109375  6.9375 14.33203125  C 7.9921875 13.91015625  9.1015625 13.59375  10.265625 13.3828125  C 10.25 13.375  10.19921875 13.337890625  10.11328125 13.271484375  C 10.02734375 13.205078125  9.96484375 13.15234375  9.92578125 13.11328125  C 9.33203125 12.58984375  8.8359375 11.90234375  8.4375 11.05078125  C 8.2265625 11.72265625  7.90234375 12.4921875  7.46484375 13.359375  Z M 14.53125 14.1796875  C 14.53125 14.171875  14.5234375 14.16015625  14.5078125 14.14453125  C 14.3203125 13.95703125  13.7734375 13.86328125  12.8671875 13.86328125  C 13.4609375 14.08203125  13.9453125 14.19140625  14.3203125 14.19140625  C 14.4296875 14.19140625  14.5 14.1875  14.53125 14.1796875  Z " fill-rule="nonzero" fill="#3e86ff" stroke="none" transform="matrix(1 0 0 1 196 918 )" />
  </g>
</svg>