<?xml version="1.0" encoding="utf-8"?>
<svg version="1.1" xmlns:xlink="http://www.w3.org/1999/xlink" width="18px" height="21px" xmlns="http://www.w3.org/2000/svg">
  <g transform="matrix(1 0 0 1 -126 -918 )">
    <path d="M 13.546875 0.796875000000001  L 17.203125 4.453125  C 17.421875 4.671875  17.609375 4.96875  17.765625 5.34375  C 17.921875 5.71875  18 6.0625  18 6.375  L 18 19.875  C 18 20.1875  17.890625 20.453125  17.671875 20.671875  C 17.453125 20.890625  17.1875 21  16.875 21  L 1.125 21  C 0.8125 21  0.546875 20.890625  0.328125 20.671875  C 0.109375 20.453125  0 20.1875  0 19.875  L 0 1.125  C 0 0.812499999999999  0.109375 0.546874999999999  0.328125 0.328125  C 0.546875 0.109375000000001  0.8125 0  1.125 0  L 11.625 0  C 11.9375 0  12.28125 0.0781250000000009  12.65625 0.234375  C 13.03125 0.390625  13.328125 0.578124999999999  13.546875 0.796875000000001  Z M 12.48046875 1.8515625  C 12.38671875 1.7578125  12.2265625 1.671875  12 1.59375  L 12 6  L 16.40625 6  C 16.328125 5.7734375  16.2421875 5.61328125  16.1484375 5.51953125  L 12.48046875 1.8515625  Z M 1.5 19.5  L 16.5 19.5  L 16.5 7.5  L 11.625 7.5  C 11.3125 7.5  11.046875 7.390625  10.828125 7.171875  C 10.609375 6.953125  10.5 6.6875  10.5 6.375  L 10.5 1.5  L 1.5 1.5  L 1.5 19.5  Z M 6.85546875 10.04296875  C 6.98046875 9.92578125  7.1171875 9.8984375  7.265625 9.9609375  C 7.421875 10.0234375  7.5 10.140625  7.5 10.3125  L 7.5 16.6875  C 7.5 16.859375  7.421875 16.9765625  7.265625 17.0390625  C 7.203125 17.0546875  7.15625 17.0625  7.125 17.0625  C 7.03125 17.0625  6.94140625 17.02734375  6.85546875 16.95703125  L 4.91015625 15  L 3.375 15  C 3.265625 15  3.17578125 14.96484375  3.10546875 14.89453125  C 3.03515625 14.82421875  3 14.734375  3 14.625  L 3 12.375  C 3 12.265625  3.03515625 12.17578125  3.10546875 12.10546875  C 3.17578125 12.03515625  3.265625 12  3.375 12  L 4.91015625 12  L 6.85546875 10.04296875  Z M 11.68359375 17.859375  C 11.82421875 17.9765625  11.98046875 18.03515625  12.15234375 18.03515625  C 12.39453125 18.03515625  12.58984375 17.94140625  12.73828125 17.75390625  C 13.74609375 16.51171875  14.25 15.09375  14.25 13.5  C 14.25 11.90625  13.74609375 10.48828125  12.73828125 9.24609375  C 12.61328125 9.08203125  12.4453125 8.98828125  12.234375 8.96484375  C 12.0234375 8.94140625  11.83984375 8.99609375  11.68359375 9.12890625  C 11.51953125 9.26171875  11.427734375 9.431640625  11.408203125 9.638671875  C 11.388671875 9.845703125  11.4453125 10.03125  11.578125 10.1953125  C 12.359375 11.15625  12.75 12.2578125  12.75 13.5  C 12.75 14.7421875  12.359375 15.84375  11.578125 16.8046875  C 11.4453125 16.96875  11.388671875 17.154296875  11.408203125 17.361328125  C 11.427734375 17.568359375  11.51953125 17.734375  11.68359375 17.859375  Z M 9.1640625 16.1015625  C 9.3203125 16.234375  9.4921875 16.30078125  9.6796875 16.30078125  C 9.890625 16.30078125  10.07421875 16.22265625  10.23046875 16.06640625  C 10.91015625 15.33984375  11.25 14.484375  11.25 13.5  C 11.25 12.515625  10.91015625 11.66015625  10.23046875 10.93359375  C 10.08984375 10.78515625  9.9140625 10.70703125  9.703125 10.69921875  C 9.4921875 10.69140625  9.3125 10.7578125  9.1640625 10.8984375  C 9.015625 11.0390625  8.9375 11.212890625  8.9296875 11.419921875  C 8.921875 11.626953125  8.9921875 11.80859375  9.140625 11.96484375  C 9.546875 12.41015625  9.75 12.921875  9.75 13.5  C 9.75 14.078125  9.546875 14.58984375  9.140625 15.03515625  C 8.9921875 15.19140625  8.921875 15.373046875  8.9296875 15.580078125  C 8.9375 15.787109375  9.015625 15.9609375  9.1640625 16.1015625  Z " fill-rule="nonzero" fill="#3e86ff" stroke="none" transform="matrix(1 0 0 1 126 918 )" />
  </g>
</svg>