<?xml version="1.0" encoding="utf-8"?>
<svg version="1.1" xmlns:xlink="http://www.w3.org/1999/xlink" width="10px" height="10px" xmlns="http://www.w3.org/2000/svg">
  <g transform="matrix(1 0 0 1 -212 -81 )">
    <path d="M 8.2421875 4.23828125  C 8.3203125 4.16015625  8.359375 4.0625  8.359375 3.9453125  C 8.359375 3.82378472222222  8.3203125 3.72395833333333  8.2421875 3.64583333333333  L 7.64973958333333 3.05989583333333  C 7.56727430555556 2.97743055555555  7.46961805555556 2.93619791666667  7.35677083333333 2.93619791666667  C 7.24392361111111 2.93619791666667  7.14626736111111 2.97743055555555  7.06380208333333 3.05989583333333  L 4.40755208333333 5.70963541666667  L 2.93619791666667 4.23828125  C 2.85373263888889 4.15581597222222  2.75607638888889 4.11458333333333  2.64322916666667 4.11458333333333  C 2.53038194444444 4.11458333333333  2.43272569444444 4.15581597222222  2.35026041666667 4.23828125  L 1.7578125 4.82421875  C 1.6796875 4.90234375  1.640625 5.00217013888889  1.640625 5.12369791666667  C 1.640625 5.24088541666667  1.6796875 5.33854166666667  1.7578125 5.41666666666667  L 4.11458333333333 7.7734375  C 4.19704861111111 7.85590277777778  4.29470486111111 7.89713541666667  4.40755208333333 7.89713541666667  C 4.52473958333333 7.89713541666667  4.62456597222222 7.85590277777778  4.70703125 7.7734375  L 8.2421875 4.23828125  Z M 9.32942708333333 2.490234375  C 9.77647569444444 3.25629340277778  10 4.09288194444444  10 5  C 10 5.90711805555556  9.77647569444444 6.74370659722222  9.32942708333333 7.509765625  C 8.88237847222222 8.27582465277778  8.27582465277778 8.88237847222222  7.509765625 9.32942708333333  C 6.74370659722222 9.77647569444444  5.90711805555556 10  5 10  C 4.09288194444444 10  3.25629340277778 9.77647569444444  2.490234375 9.32942708333333  C 1.72417534722222 8.88237847222222  1.11762152777778 8.27582465277778  0.670572916666667 7.509765625  C 0.223524305555556 6.74370659722222  0 5.90711805555556  0 5  C 0 4.09288194444444  0.223524305555556 3.25629340277778  0.670572916666667 2.490234375  C 1.11762152777778 1.72417534722222  1.72417534722222 1.11762152777778  2.490234375 0.670572916666666  C 3.25629340277778 0.223524305555555  4.09288194444444 0  5 0  C 5.90711805555556 0  6.74370659722222 0.223524305555555  7.509765625 0.670572916666666  C 8.27582465277778 1.11762152777778  8.88237847222222 1.72417534722222  9.32942708333333 2.490234375  Z " fill-rule="nonzero" fill="#aaaaaa" stroke="none" transform="matrix(1 0 0 1 212 81 )" />
  </g>
</svg>