<?xml version="1.0" encoding="UTF-8"?>
<svg width="20px" height="20px" viewBox="0 0 20 20" version="1.1" xmlns="http://www.w3.org/2000/svg" xmlns:xlink="http://www.w3.org/1999/xlink">
    <!-- Generator: Sketch 54.1 (76490) - https://sketchapp.com -->
    <title>hm_heal_rep_icon_tq_01</title>
    <desc>Created with Sketch.</desc>
    <g id="hm_heal_rep_icon_tq_01" stroke="none" stroke-width="1" fill="none" fill-rule="evenodd">
        <g>
            <rect id="Rectangle" fill-opacity="0" fill="#D8D8D8" x="0" y="0" width="20" height="20"></rect>
            <path d="M14.8711237,6.7640465 C14.4459189,4.61797255 12.552925,3 10.281635,3 C8.01034508,3 6.11735124,4.61835085 5.69214639,6.7640465 C4.10233976,7.19253948 2.99829667,8.63509476 3.00000197,10.2816331 C3.0020826,12.2915204 4.63291722,13.9191395 6.64280457,13.9170589 L13.9208438,13.9170589 C15.5677007,13.9189751 17.0105933,12.8146968 17.4389978,11.2245362 C17.961614,9.28387703 16.8117829,7.28685176 14.8711237,6.7640465 Z M13.9208438,12.877312 L6.64261542,12.877312 C5.21567604,12.8651396 4.06532728,11.704936 4.06532728,10.2779447 C4.06532728,8.8509534 5.21567604,7.69074981 6.64261542,7.6785774 C6.64261542,5.66869006 8.27193685,4.03936862 10.2818242,4.03936862 C12.2917115,4.03936862 13.921033,5.66869006 13.921033,7.6785774 C15.3479724,7.69074981 16.4983211,8.8509534 16.4983211,10.2779447 C16.4983211,11.704936 15.3479724,12.8651396 13.921033,12.877312 L13.9208438,12.877312 Z M6.04225946,15.0540279 C6.30202534,15.1752164 6.41471956,15.4837718 6.29420468,15.7438509 L5.85500287,16.6858083 C5.77820856,16.8568794 5.61525245,16.97335 5.42853245,16.9906222 C5.24181245,17.0078944 5.06025647,16.9232921 4.95338456,16.7692107 C4.84651265,16.6151293 4.8308821,16.4154401 4.91247806,16.2466065 L5.35167987,15.3040817 C5.47287623,15.0437786 5.78212415,14.9309861 6.04244861,15.0521364 L6.04225946,15.0540279 Z M9.16150021,15.0540279 C9.42126608,15.1752164 9.53396031,15.4837718 9.41344543,15.7438509 L8.97424362,16.6858083 C8.8993652,16.8595618 8.73601631,16.9789295 8.54772743,16.9974862 C8.35943855,17.016043 8.17593018,16.9308598 8.06857333,16.7750665 C7.96121647,16.6192731 7.9469569,16.4174609 8.03134051,16.2481197 L8.47054232,15.3055948 C8.59173868,15.0452918 8.90098661,14.9324993 9.16131106,15.0536496 L9.16150021,15.0540279 Z M12.280741,15.0540279 C12.5406517,15.1750751 12.6535295,15.4836698 12.5330645,15.7438509 L12.0938627,16.6858083 C12.0170684,16.8568794 11.8541122,16.97335 11.6673922,16.9906222 C11.4806722,17.0078944 11.2991163,16.9232921 11.1922444,16.7692107 C11.0853724,16.6151293 11.0697419,16.4154401 11.1513379,16.2466065 L11.5905397,15.3040817 C11.711736,15.0437786 12.0209839,14.9309861 12.2813084,15.0521364 L12.280741,15.0540279 Z M15.3999817,15.0540279 C15.6597476,15.1752164 15.7724418,15.4837718 15.6519269,15.7438509 L15.2127251,16.6858083 C15.1359308,16.8568794 14.9729747,16.97335 14.7862547,16.9906222 C14.5995347,17.0078944 14.4179787,16.9232921 14.3111068,16.7692107 C14.2042349,16.6151293 14.1886043,16.4154401 14.2702003,16.2466065 L14.7082672,15.3055948 C14.8294636,15.0452918 15.1387115,14.9324993 15.399036,15.0536496 L15.3999817,15.0540279 Z" id="Shape" fill="#3E86FF" fill-rule="nonzero"></path>
        </g>
    </g>
</svg>