<?xml version="1.0" encoding="utf-8"?>
<svg version="1.1" xmlns:xlink="http://www.w3.org/1999/xlink" width="14px" height="17px" xmlns="http://www.w3.org/2000/svg">
  <g transform="matrix(1 0 0 1 -1085 -260 )">
    <path d="M 5.00142045454545 6.474609375  C 5.06107954545455 6.541015625  5.09090909090909 6.62586805555556  5.09090909090909 6.72916666666667  L 5.09090909090909 13.1041666666667  C 5.09090909090909 13.2074652777778  5.06107954545455 13.2923177083333  5.00142045454545 13.3587239583333  C 4.94176136363636 13.4251302083333  4.8655303030303 13.4583333333333  4.77272727272727 13.4583333333333  L 4.13636363636364 13.4583333333333  C 4.04356060606061 13.4583333333333  3.96732954545455 13.4251302083333  3.90767045454545 13.3587239583333  C 3.84801136363636 13.2923177083333  3.81818181818182 13.2074652777778  3.81818181818182 13.1041666666667  L 3.81818181818182 6.72916666666667  C 3.81818181818182 6.62586805555556  3.84801136363636 6.541015625  3.90767045454545 6.474609375  C 3.96732954545455 6.408203125  4.04356060606061 6.375  4.13636363636364 6.375  L 4.77272727272727 6.375  C 4.8655303030303 6.375  4.94176136363636 6.408203125  5.00142045454545 6.474609375  Z M 7.546875 6.474609375  C 7.60653409090909 6.541015625  7.63636363636364 6.62586805555556  7.63636363636364 6.72916666666667  L 7.63636363636364 13.1041666666667  C 7.63636363636364 13.2074652777778  7.60653409090909 13.2923177083333  7.546875 13.3587239583333  C 7.48721590909091 13.4251302083333  7.41098484848485 13.4583333333333  7.31818181818182 13.4583333333333  L 6.68181818181818 13.4583333333333  C 6.58901515151515 13.4583333333333  6.51278409090909 13.4251302083333  6.453125 13.3587239583333  C 6.39346590909091 13.2923177083333  6.36363636363636 13.2074652777778  6.36363636363636 13.1041666666667  L 6.36363636363636 6.72916666666667  C 6.36363636363636 6.62586805555556  6.39346590909091 6.541015625  6.453125 6.474609375  C 6.51278409090909 6.408203125  6.58901515151515 6.375  6.68181818181818 6.375  L 7.31818181818182 6.375  C 7.41098484848485 6.375  7.48721590909091 6.408203125  7.546875 6.474609375  Z M 10.0923295454545 6.474609375  C 10.1519886363636 6.541015625  10.1818181818182 6.62586805555556  10.1818181818182 6.72916666666667  L 10.1818181818182 13.1041666666667  C 10.1818181818182 13.2074652777778  10.1519886363636 13.2923177083333  10.0923295454545 13.3587239583333  C 10.0326704545455 13.4251302083333  9.95643939393939 13.4583333333333  9.86363636363636 13.4583333333333  L 9.22727272727273 13.4583333333333  C 9.1344696969697 13.4583333333333  9.05823863636364 13.4251302083333  8.99857954545455 13.3587239583333  C 8.93892045454546 13.2923177083333  8.90909090909091 13.2074652777778  8.90909090909091 13.1041666666667  L 8.90909090909091 6.72916666666667  C 8.90909090909091 6.62586805555556  8.93892045454546 6.541015625  8.99857954545455 6.474609375  C 9.05823863636364 6.408203125  9.1344696969697 6.375  9.22727272727273 6.375  L 9.86363636363636 6.375  C 9.95643939393939 6.375  10.0326704545455 6.408203125  10.0923295454545 6.474609375  Z M 11.3849431818182 15.1904296875  C 11.4313446969697 15.0539279513889  11.4545454545455 14.9045138888889  11.4545454545455 14.7421875  L 11.4545454545455 4.25  L 2.54545454545455 4.25  L 2.54545454545455 14.7421875  C 2.54545454545455 14.9045138888889  2.5686553030303 15.0539279513889  2.61505681818182 15.1904296875  C 2.66145833333333 15.3269314236111  2.70951704545455 15.4265407986111  2.75923295454545 15.4892578125  C 2.80894886363636 15.5519748263889  2.84375 15.5833333333333  2.86363636363636 15.5833333333333  L 11.1363636363636 15.5833333333333  C 11.15625 15.5833333333333  11.1910511363636 15.5519748263889  11.2407670454545 15.4892578125  C 11.2904829545455 15.4265407986111  11.3385416666667 15.3269314236111  11.3849431818182 15.1904296875  Z M 5.25994318181818 1.53841145833333  L 4.77272727272727 2.83333333333333  L 9.22727272727273 2.83333333333333  L 8.75 1.53841145833333  C 8.70359848484849 1.47200520833333  8.64725378787879 1.43142361111111  8.58096590909091 1.41666666666667  L 5.42897727272727 1.41666666666667  C 5.36268939393939 1.43142361111111  5.3063446969697 1.47200520833333  5.25994318181818 1.53841145833333  Z M 13.9105113636364 2.93294270833333  C 13.9701704545455 2.99934895833333  14 3.08420138888889  14 3.1875  L 14 3.89583333333333  C 14 3.99913194444444  13.9701704545455 4.083984375  13.9105113636364 4.150390625  C 13.8508522727273 4.216796875  13.7746212121212 4.25  13.6818181818182 4.25  L 12.7272727272727 4.25  L 12.7272727272727 14.7421875  C 12.7272727272727 15.3546006944444  12.5714962121212 15.8840060763889  12.2599431818182 16.3304036458333  C 11.9483901515152 16.7768012152778  11.5738636363636 17  11.1363636363636 17  L 2.86363636363636 17  C 2.42613636363636 17  2.05160984848485 16.7841796875  1.74005681818182 16.3525390625  C 1.42850378787879 15.9208984375  1.27272727272727 15.3988715277778  1.27272727272727 14.7864583333333  L 1.27272727272727 4.25  L 0.318181818181818 4.25  C 0.225378787878788 4.25  0.149147727272727 4.216796875  0.0894886363636364 4.150390625  C 0.0298295454545455 4.083984375  0 3.99913194444444  0 3.89583333333333  L 0 3.1875  C 0 3.08420138888889  0.0298295454545455 2.99934895833333  0.0894886363636364 2.93294270833333  C 0.149147727272727 2.86653645833333  0.225378787878788 2.83333333333333  0.318181818181818 2.83333333333333  L 3.390625 2.83333333333333  L 4.08664772727273 0.985026041666667  C 4.18607954545455 0.712022569444443  4.36505681818182 0.479600694444443  4.62357954545455 0.287760416666667  C 4.88210227272727 0.0959201388888878  5.14393939393939 0  5.40909090909091 0  L 8.59090909090909 0  C 8.85606060606061 0  9.11789772727273 0.0959201388888878  9.37642045454546 0.287760416666667  C 9.63494318181818 0.479600694444443  9.81392045454546 0.712022569444443  9.91335227272727 0.985026041666667  L 10.609375 2.83333333333333  L 13.6818181818182 2.83333333333333  C 13.7746212121212 2.83333333333333  13.8508522727273 2.86653645833333  13.9105113636364 2.93294270833333  Z " fill-rule="nonzero" fill="#616a7d" stroke="none" transform="matrix(1 0 0 1 1085 260 )" />
  </g>
</svg>