<?xml version="1.0" encoding="utf-8"?>
<svg version="1.1" xmlns:xlink="http://www.w3.org/1999/xlink" width="16px" height="16px" viewBox="244 556  16 16" xmlns="http://www.w3.org/2000/svg">
  <path d="M 252 556  C 256.48 556  260 559.52  260 564  C 260 568.48  256.48 572  252 572  C 247.52 572  244 568.48  244 564  C 244 559.52  247.52 556  252 556  Z " fill-rule="nonzero" fill="#f0f0f0" stroke="none" />
  <path d="M 252 556.5  C 256.2 556.5  259.5 559.8  259.5 564  C 259.5 568.2  256.2 571.5  252 571.5  C 247.8 571.5  244.5 568.2  244.5 564  C 244.5 559.8  247.8 556.5  252 556.5  Z " stroke-width="1" stroke="#cfd0d3" fill="none" />
  <path d="M 252 568  C 249.76 568  248 566.24  248 564  C 248 561.76  249.76 560  252 560  C 254.24 560  256 561.76  256 564  C 256 566.24  254.24 568  252 568  " fill-rule="nonzero" fill="#cfd0d3" stroke="none" />
</svg>