<?xml version="1.0" encoding="utf-8"?>
<svg version="1.1" xmlns:xlink="http://www.w3.org/1999/xlink" width="10px" height="12px" xmlns="http://www.w3.org/2000/svg">
  <g transform="matrix(1 0 0 1 -512 -362 )">
    <path d="M 7.52604166666667 0.455357142857143  L 9.55729166666667 2.54464285714286  C 9.67881944444444 2.66964285714286  9.78298611111111 2.83928571428571  9.86979166666667 3.05357142857143  C 9.95659722222222 3.26785714285714  10 3.46428571428571  10 3.64285714285714  L 10 11.3571428571429  C 10 11.5357142857143  9.93923611111111 11.6875  9.81770833333333 11.8125  C 9.69618055555556 11.9375  9.54861111111111 12  9.375 12  L 0.625 12  C 0.451388888888889 12  0.303819444444444 11.9375  0.182291666666667 11.8125  C 0.0607638888888889 11.6875  0 11.5357142857143  0 11.3571428571429  L 0 0.642857142857143  C 0 0.464285714285714  0.0607638888888889 0.3125  0.182291666666667 0.1875  C 0.303819444444444 0.0625000000000004  0.451388888888889 0  0.625 0  L 6.45833333333333 0  C 6.63194444444445 0  6.82291666666667 0.0446428571428577  7.03125 0.133928571428572  C 7.23958333333333 0.223214285714286  7.40451388888889 0.330357142857142  7.52604166666667 0.455357142857143  Z M 6.93359375 1.05803571428571  C 6.88151041666667 1.00446428571429  6.79253472222222 0.955357142857141  6.66666666666667 0.910714285714285  L 6.66666666666667 3.42857142857143  L 9.11458333333333 3.42857142857143  C 9.07118055555556 3.29910714285714  9.0234375 3.20758928571429  8.97135416666667 3.15401785714286  L 6.93359375 1.05803571428571  Z M 1 11.1428571428571  L 9.16666666666667 11.1428571428571  L 9.16666666666667 4.28571428571428  L 6.45833333333333 4.28571428571428  C 6.28472222222222 4.28571428571428  6.13715277777778 4.22321428571428  6.015625 4.09821428571428  C 5.89409722222222 3.97321428571429  5.83333333333333 3.82142857142857  5.83333333333333 3.64285714285714  L 5.83333333333333 0.857142857142857  L 1 0.857142857142857  L 1 11.1428571428571  Z M 3.80859375 5.73883928571428  C 3.87803819444444 5.671875  3.95399305555556 5.65625  4.03645833333333 5.69196428571428  C 4.12326388888889 5.72767857142857  4.16666666666667 5.79464285714286  4.16666666666667 5.89285714285714  L 4.16666666666667 9.53571428571429  C 4.16666666666667 9.63392857142857  4.12326388888889 9.70089285714286  4.03645833333333 9.73660714285714  C 4.00173611111111 9.74553571428571  3.97569444444444 9.75  3.95833333333333 9.75  C 3.90625 9.75  3.85633680555556 9.72991071428571  3.80859375 9.68973214285714  L 2.72786458333333 8.57142857142857  L 1.875 8.57142857142857  C 1.81423611111111 8.57142857142857  1.76432291666667 8.55133928571429  1.72526041666667 8.51116071428571  C 1.68619791666667 8.47098214285714  1.66666666666667 8.41964285714286  1.66666666666667 8.35714285714286  L 1.66666666666667 7.07142857142857  C 1.66666666666667 7.00892857142857  1.68619791666667 6.95758928571429  1.72526041666667 6.91741071428571  C 1.76432291666667 6.87723214285714  1.81423611111111 6.85714285714286  1.875 6.85714285714286  L 2.72786458333333 6.85714285714286  L 3.80859375 5.73883928571428  Z M 6.49088541666667 10.2053571428571  C 6.56901041666667 10.2723214285714  6.65581597222222 10.3058035714286  6.75130208333333 10.3058035714286  C 6.88585069444445 10.3058035714286  6.99435763888889 10.2522321428571  7.07682291666667 10.1450892857143  C 7.63671875 9.43526785714286  7.91666666666667 8.625  7.91666666666667 7.71428571428571  C 7.91666666666667 6.80357142857143  7.63671875 5.99330357142857  7.07682291666667 5.28348214285714  C 7.00737847222222 5.18973214285714  6.9140625 5.13616071428572  6.796875 5.12276785714286  C 6.6796875 5.109375  6.57769097222222 5.140625  6.49088541666667 5.21651785714286  C 6.39973958333333 5.29241071428571  6.34874131944445 5.38950892857143  6.337890625 5.5078125  C 6.32703993055556 5.62611607142857  6.35850694444445 5.73214285714286  6.43229166666667 5.82589285714286  C 6.86631944444445 6.375  7.08333333333333 7.00446428571429  7.08333333333333 7.71428571428571  C 7.08333333333333 8.42410714285714  6.86631944444445 9.05357142857143  6.43229166666667 9.60267857142857  C 6.35850694444445 9.69642857142857  6.32703993055556 9.80245535714286  6.337890625 9.92075892857143  C 6.34874131944445 10.0390625  6.39973958333333 10.1339285714286  6.49088541666667 10.2053571428571  Z M 5.09114583333333 9.20089285714286  C 5.17795138888889 9.27678571428571  5.2734375 9.31473214285714  5.37760416666667 9.31473214285714  C 5.49479166666667 9.31473214285714  5.59678819444445 9.27008928571428  5.68359375 9.18080357142857  C 6.06119791666667 8.765625  6.25 8.27678571428571  6.25 7.71428571428571  C 6.25 7.15178571428571  6.06119791666667 6.66294642857143  5.68359375 6.24776785714286  C 5.60546875 6.16294642857143  5.5078125 6.11830357142857  5.390625 6.11383928571429  C 5.2734375 6.109375  5.17361111111111 6.14732142857143  5.09114583333333 6.22767857142857  C 5.00868055555556 6.30803571428571  4.96527777777778 6.40736607142857  4.9609375 6.52566964285714  C 4.95659722222222 6.64397321428571  4.99565972222222 6.74776785714286  5.078125 6.83705357142857  C 5.30381944444445 7.09151785714286  5.41666666666667 7.38392857142857  5.41666666666667 7.71428571428571  C 5.41666666666667 8.04464285714286  5.30381944444445 8.33705357142857  5.078125 8.59151785714286  C 4.99565972222222 8.68080357142857  4.95659722222222 8.78459821428571  4.9609375 8.90290178571429  C 4.96527777777778 9.02120535714286  5.00868055555556 9.12053571428571  5.09114583333333 9.20089285714286  Z " fill-rule="nonzero" fill="#3e86ff" stroke="none" transform="matrix(1 0 0 1 512 362 )" />
  </g>
</svg>