<?xml version="1.0" encoding="utf-8"?>
<svg version="1.1" xmlns:xlink="http://www.w3.org/1999/xlink" width="14px" height="17px" xmlns="http://www.w3.org/2000/svg">
  <g transform="matrix(1 0 0 1 -932 -79 )">
    <path d="M 0.375 3.1875  C 0.16875 3.1875  0 3.008203125  0 2.7890625  L 0 1.859375  C 0 1.4177734375  0.334375 1.0625  0.75 1.0625  L 4.25 1.0625  L 4.54375 0.4416015625  C 4.66875 0.1693359375  4.928125 0  5.2125 0  L 8.784375 0  C 9.06875 0  9.328125 0.1693359375  9.45625 0.4416015625  L 9.75 1.0625  L 13.25 1.0625  C 13.665625 1.0625  14 1.4177734375  14 1.859375  L 14 2.7890625  C 14 3.008203125  13.83125 3.1875  13.625 3.1875  L 0.375 3.1875  Z M 12.625 4.25  C 12.83125 4.25  13 4.429296875  13 4.6484375  L 13 15.40625  C 13 16.2861328125  12.328125 17  11.5 17  L 2.5 17  C 1.671875 17  1 16.2861328125  1 15.40625  L 1 4.6484375  C 1 4.429296875  1.16875 4.25  1.375 4.25  L 12.625 4.25  Z M 4.5 14.34375  L 4.5 6.90625  C 4.5 6.6140625  4.275 6.375  4 6.375  C 3.725 6.375  3.5 6.6140625  3.5 6.90625  L 3.5 14.34375  C 3.5 14.6359375  3.725 14.875  4 14.875  C 4.275 14.875  4.5 14.6359375  4.5 14.34375  Z M 7.5 14.34375  L 7.5 6.90625  C 7.5 6.6140625  7.275 6.375  7 6.375  C 6.725 6.375  6.5 6.6140625  6.5 6.90625  L 6.5 14.34375  C 6.5 14.6359375  6.725 14.875  7 14.875  C 7.275 14.875  7.5 14.6359375  7.5 14.34375  Z M 10.5 14.34375  L 10.5 6.90625  C 10.5 6.6140625  10.275 6.375  10 6.375  C 9.725 6.375  9.5 6.6140625  9.5 6.90625  L 9.5 14.34375  C 9.5 14.6359375  9.725 14.875  10 14.875  C 10.275 14.875  10.5 14.6359375  10.5 14.34375  Z " fill-rule="nonzero" fill="#3e86ff" stroke="none" transform="matrix(1 0 0 1 932 79 )" />
  </g>
</svg>