<?xml version="1.0" encoding="utf-8"?>
<svg version="1.1" xmlns:xlink="http://www.w3.org/1999/xlink" width="16px" height="16px" viewBox="244 444.5  16 16" xmlns="http://www.w3.org/2000/svg">
  <path d="M 252 444.5  C 256.48 444.5  260 448.02  260 452.5  C 260 456.98  256.48 460.5  252 460.5  C 247.52 460.5  244 456.98  244 452.5  C 244 448.02  247.52 444.5  252 444.5  Z " fill-rule="nonzero" fill="#f0f0f0" stroke="none" />
  <path d="M 252 445  C 256.2 445  259.5 448.3  259.5 452.5  C 259.5 456.7  256.2 460  252 460  C 247.8 460  244.5 456.7  244.5 452.5  C 244.5 448.3  247.8 445  252 445  Z " stroke-width="1" stroke="#cfd0d3" fill="none" />
  <path d="M 252 456.5  C 249.76 456.5  248 454.74  248 452.5  C 248 450.26  249.76 448.5  252 448.5  C 254.24 448.5  256 450.26  256 452.5  C 256 454.74  254.24 456.5  252 456.5  " fill-rule="nonzero" fill="#cfd0d3" stroke="none" />
</svg>