<?xml version="1.0" encoding="utf-8"?>
<svg version="1.1" xmlns:xlink="http://www.w3.org/1999/xlink" width="120px" height="36px" xmlns="http://www.w3.org/2000/svg">
  <g transform="matrix(1 0 0 1 -184 -483 )">
    <path d="M 185 487  A 3 3 0 0 1 188 484 L 300 484  A 3 3 0 0 1 303 487 L 303 515  A 3 3 0 0 1 300 518 L 188 518  A 3 3 0 0 1 185 515 L 185 487  Z " fill-rule="nonzero" fill="#ffffff" stroke="none" />
    <path d="M 184.5 487  A 3.5 3.5 0 0 1 188 483.5 L 300 483.5  A 3.5 3.5 0 0 1 303.5 487 L 303.5 515  A 3.5 3.5 0 0 1 300 518.5 L 188 518.5  A 3.5 3.5 0 0 1 184.5 515 L 184.5 487  Z " stroke-width="1" stroke-dasharray="3,1" stroke="#3e86ff" fill="none" stroke-dashoffset="0.5" />
  </g>
</svg>