<?xml version="1.0" encoding="UTF-8"?>
<svg width="20px" height="20px" viewBox="0 0 20 20" version="1.1" xmlns="http://www.w3.org/2000/svg" xmlns:xlink="http://www.w3.org/1999/xlink">
    <!-- Generator: Sketch 55.1 (78136) - https://sketchapp.com -->
    <title>login_icon_p</title>
    <desc>Created with Sketch.</desc>
    <g id="login_icon_p" stroke="none" stroke-width="1" fill="none" fill-rule="evenodd">
        <g id="编组-5">
            <g>
                <rect id="矩形" fill-opacity="0" fill="#D8D8D8" x="0" y="0" width="20" height="20"></rect>
                <path d="M6.96921311,11.0818555 C6.92134999,11.0835482 6.87327424,11.0844017 6.825,11.0844017 C4.6020539,11.0844017 2.8,9.27464674 2.8,7.04220087 C2.8,4.80975496 4.6020539,3 6.825,3 C9.0479461,3 10.85,4.80975496 10.85,7.04220087 C10.85,8.57116645 10.0047186,9.90186228 8.75786131,10.5886867 C11.7165215,11.2943473 14,13.7070565 14,16.3568376 L14,16.7083333 L13.65,16.7083333 L6.65,16.7083333 L0.35,16.7083333 L-8.8817842e-16,16.7083333 L-8.8817842e-16,16.3568376 C-8.8817842e-16,14.2090557 1.33412362,12.2686388 3.45000906,11.2048583 C3.62285867,11.1179566 3.83312892,11.1882299 3.91966081,11.3618182 C4.00619275,11.5354065 3.93621841,11.7465754 3.76336882,11.8334771 C1.873237,12.7837579 0.7,14.4901731 0.7,16.3568376 L0.35,16.0053419 L6.65,16.0053419 L13.65,16.0053419 L13.3,16.3568376 C13.3,13.6133444 10.3948748,11.0844017 7,11.0844017 C6.98900812,11.0844017 6.9787724,11.083521 6.96921311,11.0818555 Z M3.5,7.04220087 C3.5,8.88639529 4.98865322,10.3814103 6.825,10.3814103 C8.66134678,10.3814103 10.15,8.88639529 10.15,7.04220087 C10.15,5.19800642 8.66134678,3.70299146 6.825,3.70299146 C4.98865322,3.70299146 3.5,5.19800642 3.5,7.04220087 Z" id="形状结合" fill="#A6A8B6" fill-rule="nonzero"></path>
            </g>
        </g>
    </g>
</svg>