<?xml version="1.0" encoding="UTF-8"?>
<svg width="20px" height="20px" viewBox="0 0 20 20" version="1.1" xmlns="http://www.w3.org/2000/svg" xmlns:xlink="http://www.w3.org/1999/xlink">
    <!-- Generator: Sketch 55.1 (78136) - https://sketchapp.com -->
    <title>login_icon_l</title>
    <desc>Created with Sketch.</desc>
    <g id="login_icon_l" stroke="none" stroke-width="1" fill="none" fill-rule="evenodd">
        <g>
            <rect id="矩形" fill-opacity="0" fill="#D8D8D8" x="0" y="0" width="20" height="20"></rect>
            <path d="M2.54184243,7.37498633 L2.54184243,4.61249774 C2.54184243,2.62137399 4.15414717,1 6.14278581,1 L7.62517417,1 C9.61310673,1 11.2264706,2.61747815 11.2268236,4.61249774 L11.2268236,6.13222596 C11.2268236,6.13222596 11.1636306,6.42335077 10.8300138,6.42335077 C10.49675,6.42335077 10.3795428,6.1318718 10.3795428,6.1318718 L10.3795428,4.61249774 C10.379153,3.0868358 9.14630944,1.85019497 7.6255272,1.84999947 L6.14313883,1.84999947 C4.62368195,1.84999947 3.38912322,3.08958203 3.38912322,4.61249774 L3.38912322,7.37498633 L2.54184243,7.37498633 L2.54184243,4.61249774 C2.54184243,2.62137399 4.15414717,1 6.14278581,1 L7.62517417,1 C9.61310673,1 11.2264706,2.61747815 11.2268236,4.61249774 L11.2268236,6.1318718 L10.3795428,6.1318718 L10.3795428,4.61249774 C10.379153,3.0868358 9.14630944,1.85019497 7.6255272,1.84999947 L6.14313883,1.84999947 C4.62368195,1.84999947 3.38912322,3.08958203 3.38912322,4.61249774 L3.38912322,7.37498633 L12.7085059,7.37498633 C13.4091781,7.37460222 13.9779923,7.94318212 13.9801334,8.64609938 L13.9801334,16.7285318 C13.9803235,17.0665391 13.8462743,17.3906951 13.6076343,17.6293032 C13.3689943,17.8679114 13.0454295,18.0013083 12.7085059,17.9999991 L1.27162731,17.9999991 C0.570955138,18.0003832 0.00214088953,17.4318033 -2.39808173e-14,16.728886 L-2.39808173e-14,8.64645356 L-2.39808173e-14,8.64609938 C-2.39808173e-14,8.30815352 0.133994336,7.98408864 0.372624077,7.74555721 C0.611253817,7.50702578 0.934764906,7.37367737 1.27162731,7.37498633 L2.54184243,7.37498633 Z M0.847280847,8.64609938 L0.847280847,16.7285318 C0.849221124,16.9621449 1.03875374,17.1503874 1.27162731,17.1499905 L12.7085059,17.1499905 C12.9457445,17.1499905 13.1328524,16.9622817 13.1328524,16.728886 L13.1328524,8.64645356 C13.1307193,8.41297914 12.941243,8.2249507 12.7085059,8.22534902 L1.27162731,8.22534902 C1.03438869,8.22534902 0.847280847,8.41305787 0.847280847,8.64645356 L0.847280847,8.64609938 Z M6.79307381,10.5763065 C6.79307381,10.3415856 6.98274408,10.1513068 7.21671421,10.1513068 C7.45068434,10.1513068 7.6403546,10.3415856 7.6403546,10.5763065 L7.6403546,14.5794498 C7.6403546,14.8141707 7.45068434,15.0044496 7.21671421,15.0044496 C6.98274408,15.0044496 6.79307381,14.8141707 6.79307381,14.5794498 L6.79307381,10.5763065 Z" id="形状结合" fill="#A6A8B6" fill-rule="nonzero"></path>
        </g>
    </g>
</svg>