<?xml version="1.0" encoding="UTF-8"?>
<svg width="20px" height="20px" viewBox="0 0 20 20" version="1.1" xmlns="http://www.w3.org/2000/svg" xmlns:xlink="http://www.w3.org/1999/xlink">
    <!-- Generator: Sketch 55.1 (78136) - https://sketchapp.com -->
    <title>login_icon_t</title>
    <desc>Created with Sketch.</desc>
    <g id="login_icon_t" stroke="none" stroke-width="1" fill="none" fill-rule="evenodd">
        <g>
            <rect id="矩形备份" fill-opacity="0" fill="#D8D8D8" x="0" y="0" width="20" height="20"></rect>
            <path d="M12.9942285,4.89889238 L13,11.8631567 C13,12.5491217 12.7459549,13.2757795 12.247298,14.0218391 C11.8437503,14.6244564 11.2811699,15.2484617 10.5245878,15.928565 C9.04437974,17.3587003 7.43610631,18 6.49716273,18 C5.4281653,18 3.83153198,17.207507 2.4327803,15.978995 C1.73245871,15.3647512 1.14269379,14.6904127 0.725614556,14.0276039 C0.24439354,13.2622637 -3.99680289e-14,12.5336197 -3.99680289e-14,11.8631567 L-3.99680289e-14,4.89889238 C-3.99680289e-14,4.55399635 0.258046404,4.26333322 0.60142927,4.22455392 C1.31528248,4.14316824 2.39783576,3.94939282 3.51722511,3.48236984 C4.73749529,2.97276471 5.67643888,2.40497851 6.1284869,2.11041566 C6.35355303,1.96319478 6.64455546,1.96319478 6.86962158,2.11041566 C7.31968109,2.40497851 8.26061319,2.97465402 9.48088338,3.48236984 C10.6002727,3.94939282 11.682826,4.14316824 12.3927992,4.22455392 C12.7342905,4.26522254 12.9942285,4.55399635 12.9942285,4.89889238 Z M10.1288245,15.5003213 C11.6672816,14.1167406 12.4161036,12.9270322 12.4142157,11.8670322 L12.4103321,4.90087857 C12.4103321,4.85044852 12.3733748,4.80975568 12.3248744,4.80399087 C11.5760524,4.71863279 10.4372386,4.51332774 9.25392573,4.01912775 C8.05494723,3.51918717 7.11990792,2.9708754 6.54566313,2.59875393 C6.53011875,2.58908938 6.51069434,2.58332457 6.49328269,2.58332457 C6.4757498,2.58332457 6.45632539,2.58908938 6.44090226,2.59875393 C5.86854898,2.9708754 4.93540119,3.51918717 3.73642268,4.01912775 C2.55497707,4.51134154 1.41228329,4.71674348 0.663461287,4.80200467 C0.614960883,4.80786637 0.578124825,4.85044852 0.578124825,4.89889238 L0.578124825,11.8651429 C0.578124825,12.9386587 1.4142718,14.3143915 2.81491499,15.5430004 C4.09345841,16.66496 5.57366652,17.4186737 6.49517421,17.4186737 C7.2906051,17.4186737 8.7650174,16.8219423 10.1210402,15.5080966 L10.1288245,15.5003213 Z M9.08900011,7.94119067 C9.20152105,7.82880093 9.38577409,7.82880093 9.50030779,7.94119067 C9.61472025,8.05360464 9.61472025,8.23761862 9.50030779,8.3519219 L5.76965665,12.0783201 C5.71339618,12.1344181 5.63768705,12.1635571 5.56399069,12.1635571 C5.49019732,12.1635571 5.41460944,12.1344181 5.35834897,12.0783201 L3.49392066,10.2180518 C3.38147247,10.1056621 3.37948396,9.92152701 3.49392066,9.80722374 C3.60646585,9.69483399 3.79079164,9.69292046 3.90522834,9.80722374 L5.56399069,11.46209 L9.08900011,7.94119067 Z" id="形状结合" stroke="#A6A8B6" stroke-width="0.2" fill="#A6A8B6"></path>
        </g>
    </g>
</svg>