<?xml version="1.0" encoding="UTF-8"?>
<svg width="20px" height="20px" viewBox="0 0 20 20" version="1.1" xmlns="http://www.w3.org/2000/svg" xmlns:xlink="http://www.w3.org/1999/xlink">
    <!-- Generator: Sketch 54.1 (76490) - https://sketchapp.com -->
    <title>hm_list_icon_close</title>
    <desc>Created with Sketch.</desc>
    <g id="hm_list_icon_close" stroke="none" stroke-width="1" fill="none" fill-rule="evenodd">
        <g>
            <rect id="Rectangle" fill-opacity="0" fill="#D8D8D8" x="0" y="0" width="20" height="20"></rect>
            <g id="Group-11" transform="translate(2.000000, 2.000000)">
                <circle id="Oval" stroke="#616A7D" cx="8" cy="8" r="8"></circle>
                <path d="M7.44444444,7.44444444 L7.44444444,3.55555556 C7.44444444,3.24873069 7.69317514,3 8,3 C8.30682486,3 8.55555556,3.24873069 8.55555556,3.55555556 L8.55555556,7.44444444 L12.4444444,7.44444444 C12.7512693,7.44444444 13,7.69317514 13,8 C13,8.30682486 12.7512693,8.55555556 12.4444444,8.55555556 L8.55555556,8.55555556 L8.55555556,12.4444444 C8.55555556,12.7512693 8.30682486,13 8,13 C7.69317514,13 7.44444444,12.7512693 7.44444444,12.4444444 L7.44444444,8.55555556 L3.55555556,8.55555556 C3.24873069,8.55555556 3,8.30682486 3,8 C3,7.69317514 3.24873069,7.44444444 3.55555556,7.44444444 L7.44444444,7.44444444 Z" id="Combined-Shape" fill="#616A7D" transform="translate(8.000000, 8.000000) rotate(45.000000) translate(-8.000000, -8.000000) "></path>
            </g>
        </g>
    </g>
</svg>