<?xml version="1.0" encoding="utf-8"?>
<svg version="1.1" xmlns:xlink="http://www.w3.org/1999/xlink" width="50px" height="30px" xmlns="http://www.w3.org/2000/svg">
  <g transform="matrix(1 0 0 1 -724 -335 )">
    <path d="M 15.2083333333333 6.09375  C 16.1805555555556 6.82291666666666  16.6666666666667 7.70833333333333  16.6666666666667 8.75  C 16.6666666666667 9.79166666666666  16.1805555555556 10.6770833333333  15.2083333333333 11.40625  C 14.2361111111111 12.1354166666667  13.0555555555556 12.5  11.6666666666667 12.5  C 10.2777777777778 12.5  9.09722222222222 12.1354166666667  8.125 11.40625  C 7.15277777777778 10.6770833333333  6.66666666666667 9.79166666666666  6.66666666666667 8.75  C 6.66666666666667 7.70833333333333  7.15277777777778 6.82291666666666  8.125 6.09375  C 9.09722222222222 5.36458333333333  10.2777777777778 5  11.6666666666667 5  C 13.0555555555556 5  14.2361111111111 5.36458333333333  15.2083333333333 6.09375  Z M 32.5 8.125  L 43.3333333333333 16.25  L 43.3333333333333 25  L 6.66666666666667 25  L 6.66666666666667 21.25  L 15 15  L 19.1666666666667 18.125  L 32.5 8.125  Z M 46.4192708333333 2.685546875  C 46.2543402777778 2.56184895833333  46.0590277777778 2.5  45.8333333333333 3  L 4.16666666666667 3  C 3.94097222222222 2.5  3.74565972222222 2.56184895833333  3.58072916666667 2.685546875  C 3.41579861111111 2.80924479166666  3.33333333333333 2.95572916666666  4 3.125  L 4 26.875  C 3.33333333333333 27.0442708333333  3.41579861111111 27.1907552083333  3.58072916666667 27.314453125  C 3.74565972222222 27.4381510416667  3.94097222222222 27.5  4.16666666666667 27  L 45.8333333333333 27  C 46.0590277777778 27.5  46.2543402777778 27.4381510416667  46.4192708333333 27.314453125  C 46.5842013888889 27.1907552083333  46.6666666666667 27.0442708333333  46 26.875  L 46 3.125  C 46.6666666666667 2.95572916666666  46.5842013888889 2.80924479166666  46.4192708333333 2.685546875  Z M 48.7760416666667 0.917968750000001  C 49.5920138888889 1.52994791666667  50 2.265625  50 3.125  L 50 26.875  C 50 27.734375  49.5920138888889 28.4700520833333  48.7760416666667 29.08203125  C 47.9600694444445 29.6940104166667  46.9791666666667 30  45.8333333333333 30  L 4.16666666666667 30  C 3.02083333333333 30  2.03993055555556 29.6940104166667  1.22395833333333 29.08203125  C 0.407986111111111 28.4700520833333  0 27.734375  0 26.875  L 0 3.125  C 0 2.265625  0.407986111111111 1.52994791666667  1.22395833333333 0.917968750000001  C 2.03993055555556 0.30598958333333  3.02083333333333 0  4.16666666666667 0  L 45.8333333333333 0  C 46.9791666666667 0  47.9600694444445 0.30598958333333  48.7760416666667 0.917968750000001  Z " fill-rule="nonzero" fill="#c4c6cf" stroke="none" transform="matrix(1 0 0 1 724 335 )" />
  </g>
</svg>