<?xml version="1.0" encoding="utf-8"?>
<svg version="1.1" xmlns:xlink="http://www.w3.org/1999/xlink" width="34px" height="20px" xmlns="http://www.w3.org/2000/svg">
  <g transform="matrix(1 0 0 1 -715 -416 )">
    <path d="M 10.3416666666667 4.0625  C 11.0027777777778 4.54861111111111  11.3333333333333 5.13888888888889  11.3333333333333 5.83333333333333  C 11.3333333333333 6.52777777777778  11.0027777777778 7.11805555555556  10.3416666666667 7.60416666666667  C 9.68055555555556 8.09027777777778  8.87777777777778 8.33333333333333  7.93333333333333 8.33333333333333  C 6.98888888888889 8.33333333333333  6.18611111111111 8.09027777777778  5.525 7.60416666666667  C 4.86388888888889 7.11805555555556  4.53333333333333 6.52777777777778  4.53333333333333 5.83333333333333  C 4.53333333333333 5.13888888888889  4.86388888888889 4.54861111111111  5.525 4.0625  C 6.18611111111111 3.57638888888889  6.98888888888889 3.33333333333333  7.93333333333333 3.33333333333333  C 8.87777777777778 3.33333333333333  9.68055555555556 3.57638888888889  10.3416666666667 4.0625  Z M 22.1 5.41666666666667  L 29.4666666666667 10.8333333333333  L 29.4666666666667 16.6666666666667  L 4.53333333333333 16.6666666666667  L 4.53333333333333 14.1666666666667  L 10.2 10  L 13.0333333333333 12.0833333333333  L 22.1 5.41666666666667  Z M 31.5651041666667 1.79036458333333  C 31.4529513888889 1.70789930555555  31.3201388888889 1.66666666666667  31.1666666666667 2  L 2.83333333333333 2  C 2.67986111111111 1.66666666666667  2.54704861111111 1.70789930555555  2.43489583333333 1.79036458333333  C 2.32274305555556 1.87282986111111  2.26666666666667 1.97048611111111  2.26666666666667 2.08333333333333  L 2.26666666666667 17.9166666666667  C 2.26666666666667 18.0295138888889  2.32274305555556 18.1271701388889  2.43489583333333 18.2096354166667  C 2.54704861111111 18.2921006944444  2.67986111111111 18.3333333333333  2.83333333333333 18  L 31.1666666666667 18  C 31.3201388888889 18.3333333333333  31.4529513888889 18.2921006944444  31.5651041666667 18.2096354166667  C 31.6772569444444 18.1271701388889  31.7333333333333 18.0295138888889  31.7333333333333 17.9166666666667  L 31.7333333333333 2.08333333333333  C 31.7333333333333 1.97048611111111  31.6772569444444 1.87282986111111  31.5651041666667 1.79036458333333  Z M 33.1677083333333 0.611979166666667  C 33.7225694444444 1.01996527777778  34 1.51041666666667  34 2.08333333333333  L 34 17.9166666666667  C 34 18.4895833333333  33.7225694444444 18.9800347222222  33.1677083333333 19.3880208333333  C 32.6128472222222 19.7960069444444  31.9458333333333 20  31.1666666666667 20  L 2.83333333333333 20  C 2.05416666666667 20  1.38715277777778 19.7960069444444  0.832291666666667 19.3880208333333  C 0.277430555555556 18.9800347222222  0 18.4895833333333  0 17.9166666666667  L 0 2.08333333333333  C 0 1.51041666666667  0.277430555555556 1.01996527777778  0.832291666666667 0.611979166666667  C 1.38715277777778 0.203993055555554  2.05416666666667 0  2.83333333333333 0  L 31.1666666666667 0  C 31.9458333333333 0  32.6128472222222 0.203993055555554  33.1677083333333 0.611979166666667  Z " fill-rule="nonzero" fill="#c4c6cf" stroke="none" transform="matrix(1 0 0 1 715 416 )" />
  </g>
</svg>