<?xml version="1.0" encoding="utf-8"?>
<svg version="1.1" xmlns:xlink="http://www.w3.org/1999/xlink" width="5px" height="12px" xmlns="http://www.w3.org/2000/svg">
  <g transform="matrix(1 0 0 1 -1140 -113 )">
    <path d="M 4.94155844155844 2.73611111111111  C 4.9978354978355 2.81018518518518  5.00865800865801 2.8912037037037  4.97402597402597 2.97916666666667  C 4.93506493506494 3.06712962962963  4.87229437229437 3.11111111111111  4.78571428571429 3.11111111111111  L 3.33116883116883 3.11111111111111  L 3.33116883116883 11.7777777777778  C 3.33116883116883 11.8425925925926  3.31168831168831 11.8958333333333  3.27272727272727 11.9375  C 3.23376623376623 11.9791666666667  3.18398268398268 12  3.12337662337662 12  L 1.87662337662338 12  C 1.81601731601732 12  1.76623376623377 11.9791666666667  1.72727272727273 11.9375  C 1.68831168831169 11.8958333333333  1.66883116883117 11.8425925925926  1.66883116883117 11.7777777777778  L 1.66883116883117 3.11111111111111  L 0.214285714285714 3.11111111111111  C 0.123376623376623 3.11111111111111  0.0606060606060606 3.06712962962963  0.025974025974026 2.97916666666667  C -0.00865800865800866 2.8912037037037  0.00216450216450216 2.81018518518518  0.0584415584415584 2.73611111111111  L 2.33116883116883 0.0694444444444451  C 2.37445887445887 0.0231481481481479  2.42424242424242 0  2.48051948051948 0  C 2.54112554112554 0  2.59307359307359 0.0231481481481479  2.63636363636364 0.0694444444444451  L 4.94155844155844 2.73611111111111  Z " fill-rule="nonzero" fill="#3e86ff" stroke="none" transform="matrix(1 0 0 1 1140 113 )" />
  </g>
</svg>