<?xml version="1.0" encoding="utf-8"?>
<svg version="1.1" xmlns:xlink="http://www.w3.org/1999/xlink" width="12px" height="9px" xmlns="http://www.w3.org/2000/svg">
  <g transform="matrix(1 0 0 1 -174 -196 )">
    <path d="M 11.7388392857143 0.26015625  C 11.9129464285714 0.33984375  12 0.478125  12 0.675  L 12 8.325  C 12 8.521875  11.9129464285714 8.66015625  11.7388392857143 8.73984375  C 11.6808035714286 8.76328125  11.625 8.775  11.5714285714286 8.775  C 11.4508928571429 8.775  11.3504464285714 8.73046875  11.2700892857143 8.64140625  L 8.57142857142857 5.8078125  L 8.57142857142857 6.975  C 8.57142857142857 7.5328125  8.3828125 8.009765625  8.00558035714286 8.405859375  C 7.62834821428571 8.801953125  7.17410714285714 9  6.64285714285714 9  L 1.92857142857143 9  C 1.39732142857143 9  0.943080357142857 8.801953125  0.565848214285714 8.405859375  C 0.188616071428571 8.009765625  0 7.5328125  0 6.975  L 0 2.025  C 0 1.4671875  0.188616071428571 0.990234375  0.565848214285714 0.594140625  C 0.943080357142857 0.198046874999999  1.39732142857143 0  1.92857142857143 0  L 6.64285714285714 0  C 7.17410714285714 0  7.62834821428571 0.198046874999999  8.00558035714286 0.594140625  C 8.3828125 0.990234375  8.57142857142857 1.4671875  8.57142857142857 2.025  L 8.57142857142857 3.18515625  L 11.2700892857143 0.35859375  C 11.3504464285714 0.26953125  11.4508928571429 0.225  11.5714285714286 0.225  C 11.625 0.225  11.6808035714286 0.236718749999999  11.7388392857143 0.26015625  Z " fill-rule="nonzero" fill="#3e86ff" stroke="none" transform="matrix(1 0 0 1 174 196 )" />
  </g>
</svg>