<?xml version="1.0" encoding="utf-8"?>
<svg version="1.1" xmlns:xlink="http://www.w3.org/1999/xlink" width="20px" height="12px" xmlns="http://www.w3.org/2000/svg">
  <g transform="matrix(1 0 0 1 -671 -111 )">
    <path d="M 10 9.6  L 2.22222222222222 9.6  L 2.22222222222222 2.4  L 10 2.4  L 10 9.6  Z M 18.8888888888889 1.5  L 18.8888888888889 3  C 19.1956018518519 3  19.4574652777778 3.1171875  19.6744791666667 3.3515625  C 19.8914930555556 3.5859375  20 3.86875  20 4.2  L 20 7.8  C 20 8.13125  19.8914930555556 8.4140625  19.6744791666667 8.6484375  C 19.4574652777778 8.8828125  19.1956018518519 9  18.8888888888889 9  L 18.8888888888889 10.5  C 18.8888888888889 10.9125  18.7528935185185 11.265625  18.4809027777778 11.559375  C 18.208912037037 11.853125  17.8819444444444 12  17.5 12  L 1.38888888888889 12  C 1.00694444444444 12  0.679976851851852 11.853125  0.407986111111111 11.559375  C 0.13599537037037 11.265625  0 10.9125  0 10.5  L 0 1.5  C 0 1.0875  0.13599537037037 0.734375  0.407986111111111 0.440625  C 0.679976851851852 0.146874999999998  1.00694444444444 0  1.38888888888889 0  L 17.5 0  C 17.8819444444444 0  18.208912037037 0.146874999999998  18.4809027777778 0.440625  C 18.7528935185185 0.734375  18.8888888888889 1.0875  18.8888888888889 1.5  Z M 17.7777777777778 7.8  L 18.8888888888889 7.8  L 18.8888888888889 4.2  L 17.7777777777778 4.2  L 17.7777777777778 1.5  C 17.7777777777778 1.4125  17.7517361111111 1.340625  17.6996527777778 1.284375  C 17.6475694444444 1.228125  17.5810185185185 1.2  17.5 1.2  L 1.38888888888889 1.2  C 1.30787037037037 1.2  1.24131944444444 1.228125  1.18923611111111 1.284375  C 1.13715277777778 1.340625  1.11111111111111 1.4125  1.11111111111111 1.5  L 1.11111111111111 10.5  C 1.11111111111111 10.5875  1.13715277777778 10.659375  1.18923611111111 10.715625  C 1.24131944444444 10.771875  1.30787037037037 10.8  1.38888888888889 10.8  L 17.5 10.8  C 17.5810185185185 10.8  17.6475694444444 10.771875  17.6996527777778 10.715625  C 17.7517361111111 10.659375  17.7777777777778 10.5875  17.7777777777778 10.5  L 17.7777777777778 7.8  Z " fill-rule="nonzero" fill="#28344c" stroke="none" transform="matrix(1 0 0 1 671 111 )" />
  </g>
</svg>