<?xml version="1.0" encoding="utf-8"?>
<svg version="1.1" xmlns:xlink="http://www.w3.org/1999/xlink" width="28px" height="28px" xmlns="http://www.w3.org/2000/svg">
  <g transform="matrix(1 0 0 1 -613 -103 )">
    <path d="M 5.09090909090909 20.3636363636364  L 7.63636363636364 20.3636363636364  L 7.63636363636364 22.9090909090909  L 5.09090909090909 22.9090909090909  L 5.09090909090909 20.3636363636364  Z M 5.09090909090909 5.09090909090909  L 7.63636363636364 5.09090909090909  L 7.63636363636364 7.63636363636364  L 5.09090909090909 7.63636363636364  L 5.09090909090909 5.09090909090909  Z M 20.3636363636364 5.09090909090909  L 22.9090909090909 5.09090909090909  L 22.9090909090909 7.63636363636364  L 20.3636363636364 7.63636363636364  L 20.3636363636364 5.09090909090909  Z M 2.54545454545455 17.8181818181818  L 2.54545454545455 25.4346590909091  L 10.1818181818182 25.4346590909091  L 10.1818181818182 17.8181818181818  L 2.54545454545455 17.8181818181818  Z M 2.54545454545455 2.54545454545455  L 2.54545454545455 10.1818181818182  L 10.1818181818182 10.1818181818182  L 10.1818181818182 2.54545454545455  L 2.54545454545455 2.54545454545455  Z M 17.8181818181818 2.54545454545455  L 17.8181818181818 10.1818181818182  L 25.4545454545455 10.1818181818182  L 25.4545454545455 2.54545454545455  L 17.8181818181818 2.54545454545455  Z M 0 15  L 13 15  L 13 28  L 0 28  L 0 15  Z M 20.3636363636364 25.4545454545455  L 22.9090909090909 25.4545454545455  L 22.9090909090909 28  L 20.3636363636364 28  L 20.3636363636364 25.4545454545455  Z M 25.4545454545455 25.4545454545455  L 28 25.4545454545455  L 28 28  L 25.4545454545455 28  L 25.4545454545455 25.4545454545455  Z M 25.4545454545455 15.2727272727273  L 28 15.2727272727273  L 28 22.9090909090909  L 20.3636363636364 22.9090909090909  L 20.3636363636364 20.3636363636364  L 17.8181818181818 20.3636363636364  L 17.8181818181818 28  L 15 28  L 15 15.2727272727273  L 22.9090909090909 15.2727272727273  L 22.9090909090909 17.8181818181818  L 25.4545454545455 17.8181818181818  L 25.4545454545455 15.2727272727273  Z M 0 0  L 13 0  L 13 13  L 0 13  L 0 0  Z M 15 0  L 28 0  L 28 13  L 15 13  L 15 0  Z " fill-rule="nonzero" fill="#3e86ff" stroke="none" transform="matrix(1 0 0 1 613 103 )" />
  </g>
</svg>