<?xml version="1.0" encoding="utf-8"?>
<svg version="1.1" xmlns:xlink="http://www.w3.org/1999/xlink" width="10px" height="10px" xmlns="http://www.w3.org/2000/svg">
  <g transform="matrix(1 0 0 1 -140 -91 )">
    <path d="M 145 92  C 147.24 92  149 93.76  149 96  C 149 98.24  147.24 100  145 100  C 142.76 100  141 98.24  141 96  C 141 93.76  142.76 92  145 92  Z " fill-rule="nonzero" fill="#ebeff7" stroke="none" />
    <path d="M 145 92  C 147.24 92  149 93.76  149 96  C 149 98.24  147.24 100  145 100  C 142.76 100  141 98.24  141 96  C 141 93.76  142.76 92  145 92  Z " stroke-width="2" stroke="#3e86ff" fill="none" />
  </g>
</svg>