<?xml version="1.0" encoding="utf-8"?>
<svg version="1.1" xmlns:xlink="http://www.w3.org/1999/xlink" width="18px" height="18px" xmlns="http://www.w3.org/2000/svg">
  <g transform="matrix(1 0 0 1 -136 -1 )">
    <path d="M 14.8359375 7.62890625  C 14.9765625 7.48828125  15.046875 7.3125  15.046875 7.1015625  C 15.046875 6.8828125  14.9765625 6.703125  14.8359375 6.5625  L 13.76953125 5.5078125  C 13.62109375 5.359375  13.4453125 5.28515625  13.2421875 5.28515625  C 13.0390625 5.28515625  12.86328125 5.359375  12.71484375 5.5078125  L 7.93359375 10.27734375  L 5.28515625 7.62890625  C 5.13671875 7.48046875  4.9609375 7.40625  4.7578125 7.40625  C 4.5546875 7.40625  4.37890625 7.48046875  4.23046875 7.62890625  L 3.1640625 8.68359375  C 3.0234375 8.82421875  2.953125 9.00390625  2.953125 9.22265625  C 2.953125 9.43359375  3.0234375 9.609375  3.1640625 9.75  L 7.40625 13.9921875  C 7.5546875 14.140625  7.73046875 14.21484375  7.93359375 14.21484375  C 8.14453125 14.21484375  8.32421875 14.140625  8.47265625 13.9921875  L 14.8359375 7.62890625  Z M 16.79296875 4.482421875  C 17.59765625 5.861328125  18 7.3671875  18 9  C 18 10.6328125  17.59765625 12.138671875  16.79296875 13.517578125  C 15.98828125 14.896484375  14.896484375 15.98828125  13.517578125 16.79296875  C 12.138671875 17.59765625  10.6328125 18  9 18  C 7.3671875 18  5.861328125 17.59765625  4.482421875 16.79296875  C 3.103515625 15.98828125  2.01171875 14.896484375  1.20703125 13.517578125  C 0.40234375 12.138671875  0 10.6328125  0 9  C 0 7.3671875  0.40234375 5.861328125  1.20703125 4.482421875  C 2.01171875 3.103515625  3.103515625 2.01171875  4.482421875 1.20703125  C 5.861328125 0.402343749999998  7.3671875 0  9 0  C 10.6328125 0  12.138671875 0.402343749999998  13.517578125 1.20703125  C 14.896484375 2.01171875  15.98828125 3.103515625  16.79296875 4.482421875  Z " fill-rule="nonzero" fill="#3e86ff" stroke="none" transform="matrix(1 0 0 1 136 1 )" />
  </g>
</svg>