<?xml version="1.0" encoding="utf-8"?>
<svg version="1.1" xmlns:xlink="http://www.w3.org/1999/xlink" width="16px" height="16px" viewBox="969 207.5  16 16" xmlns="http://www.w3.org/2000/svg">
  <path d="M 977 207.5  C 981.48 207.5  985 211.02  985 215.5  C 985 219.98  981.48 223.5  977 223.5  C 972.52 223.5  969 219.98  969 215.5  C 969 211.02  972.52 207.5  977 207.5  Z " fill-rule="nonzero" fill="#ffffff" stroke="none" />
  <path d="M 977 208  C 981.2 208  984.5 211.3  984.5 215.5  C 984.5 219.7  981.2 223  977 223  C 972.8 223  969.5 219.7  969.5 215.5  C 969.5 211.3  972.8 208  977 208  Z " stroke-width="1" stroke="#3e86ff" fill="none" />
  <path d="M 977 219.5  C 974.76 219.5  973 217.74  973 215.5  C 973 213.26  974.76 211.5  977 211.5  C 979.24 211.5  981 213.26  981 215.5  C 981 217.74  979.24 219.5  977 219.5  " fill-rule="nonzero" fill="#3e86ff" stroke="none" />
</svg>