<?xml version="1.0" encoding="utf-8"?>
<svg version="1.1" xmlns:xlink="http://www.w3.org/1999/xlink" width="16px" height="16px" viewBox="969 315.5  16 16" xmlns="http://www.w3.org/2000/svg">
  <path d="M 977 315.5  C 981.48 315.5  985 319.02  985 323.5  C 985 327.98  981.48 331.5  977 331.5  C 972.52 331.5  969 327.98  969 323.5  C 969 319.02  972.52 315.5  977 315.5  Z " fill-rule="nonzero" fill="#ffffff" stroke="none" />
  <path d="M 977 316  C 981.2 316  984.5 319.3  984.5 323.5  C 984.5 327.7  981.2 331  977 331  C 972.8 331  969.5 327.7  969.5 323.5  C 969.5 319.3  972.8 316  977 316  Z " stroke-width="1" stroke="#3e86ff" fill="none" />
  <path d="M 977 327.5  C 974.76 327.5  973 325.74  973 323.5  C 973 321.26  974.76 319.5  977 319.5  C 979.24 319.5  981 321.26  981 323.5  C 981 325.74  979.24 327.5  977 327.5  " fill-rule="nonzero" fill="#3e86ff" stroke="none" />
</svg>