<?xml version="1.0" encoding="utf-8"?>
<svg version="1.1" xmlns:xlink="http://www.w3.org/1999/xlink" width="16px" height="16px" viewBox="857 316.5  16 16" xmlns="http://www.w3.org/2000/svg">
  <path d="M 865 316.5  C 869.48 316.5  873 320.02  873 324.5  C 873 328.98  869.48 332.5  865 332.5  C 860.52 332.5  857 328.98  857 324.5  C 857 320.02  860.52 316.5  865 316.5  Z " fill-rule="nonzero" fill="#f0f0f0" stroke="none" />
  <path d="M 865 317  C 869.2 317  872.5 320.3  872.5 324.5  C 872.5 328.7  869.2 332  865 332  C 860.8 332  857.5 328.7  857.5 324.5  C 857.5 320.3  860.8 317  865 317  Z " stroke-width="1" stroke="#cfd0d3" fill="none" />
  <path d="M 865 328.5  C 862.76 328.5  861 326.74  861 324.5  C 861 322.26  862.76 320.5  865 320.5  C 867.24 320.5  869 322.26  869 324.5  C 869 326.74  867.24 328.5  865 328.5  " fill-rule="nonzero" fill="#cfd0d3" stroke="none" />
</svg>