<?xml version="1.0" encoding="utf-8"?>
<svg version="1.1" xmlns:xlink="http://www.w3.org/1999/xlink" width="16px" height="16px" viewBox="857 208.5  16 16" xmlns="http://www.w3.org/2000/svg">
  <path d="M 865 208.5  C 869.48 208.5  873 212.02  873 216.5  C 873 220.98  869.48 224.5  865 224.5  C 860.52 224.5  857 220.98  857 216.5  C 857 212.02  860.52 208.5  865 208.5  Z " fill-rule="nonzero" fill="#f0f0f0" stroke="none" />
  <path d="M 865 209  C 869.2 209  872.5 212.3  872.5 216.5  C 872.5 220.7  869.2 224  865 224  C 860.8 224  857.5 220.7  857.5 216.5  C 857.5 212.3  860.8 209  865 209  Z " stroke-width="1" stroke="#cfd0d3" fill="none" />
  <path d="M 865 220.5  C 862.76 220.5  861 218.74  861 216.5  C 861 214.26  862.76 212.5  865 212.5  C 867.24 212.5  869 214.26  869 216.5  C 869 218.74  867.24 220.5  865 220.5  " fill-rule="nonzero" fill="#cfd0d3" stroke="none" />
</svg>