<?xml version="1.0" encoding="utf-8"?>
<svg version="1.1" xmlns:xlink="http://www.w3.org/1999/xlink" width="16px" height="16px" viewBox="744 208.5  16 16" xmlns="http://www.w3.org/2000/svg">
  <path d="M 752 208.5  C 756.48 208.5  760 212.02  760 216.5  C 760 220.98  756.48 224.5  752 224.5  C 747.52 224.5  744 220.98  744 216.5  C 744 212.02  747.52 208.5  752 208.5  Z " fill-rule="nonzero" fill="#f0f0f0" stroke="none" />
  <path d="M 752 209  C 756.2 209  759.5 212.3  759.5 216.5  C 759.5 220.7  756.2 224  752 224  C 747.8 224  744.5 220.7  744.5 216.5  C 744.5 212.3  747.8 209  752 209  Z " stroke-width="1" stroke="#cfd0d3" fill="none" />
  <path d="M 752 220.5  C 749.76 220.5  748 218.74  748 216.5  C 748 214.26  749.76 212.5  752 212.5  C 754.24 212.5  756 214.26  756 216.5  C 756 218.74  754.24 220.5  752 220.5  " fill-rule="nonzero" fill="#cfd0d3" stroke="none" />
</svg>