<?xml version="1.0" encoding="utf-8"?>
<svg version="1.1" xmlns:xlink="http://www.w3.org/1999/xlink" width="12px" height="14px" xmlns="http://www.w3.org/2000/svg">
  <defs>
    <mask fill="white" id="clip65">
      <path d="M 12 4.046875  C 12 4.22734375  11.8553571428571 4.375  11.6785714285714 4.375  L 0.321428571428571 4.375  C 0.144642857142857 4.375  0 4.22734375  0 4.046875  L 0 3.0625  C 0 2.337890625  0.575892857142857 1.75  1.28571428571429 1.75  L 2.57142857142857 1.75  L 2.57142857142857 0.328125  C 2.57142857142857 0.14765625  2.71607142857143 0  2.89285714285714 0  L 3.96428571428571 0  C 4.14107142857143 0  4.28571428571429 0.14765625  4.28571428571429 0.328125  L 4.28571428571429 1.75  L 7.71428571428572 1.75  L 7.71428571428572 0.328125  C 7.71428571428572 0.14765625  7.85892857142857 0  8.03571428571428 0  L 9.10714285714286 0  C 9.28392857142857 0  9.42857142857143 0.14765625  9.42857142857143 0.328125  L 9.42857142857143 1.75  L 10.7142857142857 1.75  C 11.4241071428571 1.75  12 2.337890625  12 3.0625  L 12 4.046875  Z M 0 5.578125  C 0 5.39765625  0.144642857142857 5.25  0.321428571428571 5.25  L 11.6785714285714 5.25  C 11.8553571428571 5.25  12 5.39765625  12 5.578125  L 12 12.6875  C 12 13.412109375  11.4241071428571 14  10.7142857142857 14  L 1.28571428571429 14  C 0.575892857142857 14  0 13.412109375  0 12.6875  L 0 5.578125  Z M 3.42857142857143 11.921875  L 3.42857142857143 10.828125  C 3.42857142857143 10.64765625  3.28392857142857 10.5  3.10714285714286 10.5  L 2.03571428571429 10.5  C 1.85892857142857 10.5  1.71428571428571 10.64765625  1.71428571428571 10.828125  L 1.71428571428571 11.921875  C 1.71428571428571 12.10234375  1.85892857142857 12.25  2.03571428571429 12.25  L 3.10714285714286 12.25  C 3.28392857142857 12.25  3.42857142857143 12.10234375  3.42857142857143 11.921875  Z M 3.42857142857143 8.421875  L 3.42857142857143 7.328125  C 3.42857142857143 7.14765625  3.28392857142857 7  3.10714285714286 7  L 2.03571428571429 7  C 1.85892857142857 7  1.71428571428571 7.14765625  1.71428571428571 7.328125  L 1.71428571428571 8.421875  C 1.71428571428571 8.60234375  1.85892857142857 8.75  2.03571428571429 8.75  L 3.10714285714286 8.75  C 3.28392857142857 8.75  3.42857142857143 8.60234375  3.42857142857143 8.421875  Z M 6.85714285714286 11.921875  L 6.85714285714286 10.828125  C 6.85714285714286 10.64765625  6.7125 10.5  6.53571428571428 10.5  L 5.46428571428571 10.5  C 5.2875 10.5  5.14285714285714 10.64765625  5.14285714285714 10.828125  L 5.14285714285714 11.921875  C 5.14285714285714 12.10234375  5.2875 12.25  5.46428571428571 12.25  L 6.53571428571428 12.25  C 6.7125 12.25  6.85714285714286 12.10234375  6.85714285714286 11.921875  Z M 6.85714285714286 8.421875  L 6.85714285714286 7.328125  C 6.85714285714286 7.14765625  6.7125 7  6.53571428571428 7  L 5.46428571428571 7  C 5.2875 7  5.14285714285714 7.14765625  5.14285714285714 7.328125  L 5.14285714285714 8.421875  C 5.14285714285714 8.60234375  5.2875 8.75  5.46428571428571 8.75  L 6.53571428571428 8.75  C 6.7125 8.75  6.85714285714286 8.60234375  6.85714285714286 8.421875  Z M 10.2857142857143 11.921875  L 10.2857142857143 10.828125  C 10.2857142857143 10.64765625  10.1410714285714 10.5  9.96428571428572 10.5  L 8.89285714285714 10.5  C 8.71607142857143 10.5  8.57142857142857 10.64765625  8.57142857142857 10.828125  L 8.57142857142857 11.921875  C 8.57142857142857 12.10234375  8.71607142857143 12.25  8.89285714285714 12.25  L 9.96428571428572 12.25  C 10.1410714285714 12.25  10.2857142857143 12.10234375  10.2857142857143 11.921875  Z M 10.2857142857143 8.421875  L 10.2857142857143 7.328125  C 10.2857142857143 7.14765625  10.1410714285714 7  9.96428571428572 7  L 8.89285714285714 7  C 8.71607142857143 7  8.57142857142857 7.14765625  8.57142857142857 7.328125  L 8.57142857142857 8.421875  C 8.57142857142857 8.60234375  8.71607142857143 8.75  8.89285714285714 8.75  L 9.96428571428572 8.75  C 10.1410714285714 8.75  10.2857142857143 8.60234375  10.2857142857143 8.421875  Z " fill-rule="evenodd" />
    </mask>
  </defs>
  <g transform="matrix(1 0 0 1 -430 -153 )">
    <path d="M 12 4.046875  C 12 4.22734375  11.8553571428571 4.375  11.6785714285714 4.375  L 0.321428571428571 4.375  C 0.144642857142857 4.375  0 4.22734375  0 4.046875  L 0 3.0625  C 0 2.337890625  0.575892857142857 1.75  1.28571428571429 1.75  L 2.57142857142857 1.75  L 2.57142857142857 0.328125  C 2.57142857142857 0.14765625  2.71607142857143 0  2.89285714285714 0  L 3.96428571428571 0  C 4.14107142857143 0  4.28571428571429 0.14765625  4.28571428571429 0.328125  L 4.28571428571429 1.75  L 7.71428571428572 1.75  L 7.71428571428572 0.328125  C 7.71428571428572 0.14765625  7.85892857142857 0  8.03571428571428 0  L 9.10714285714286 0  C 9.28392857142857 0  9.42857142857143 0.14765625  9.42857142857143 0.328125  L 9.42857142857143 1.75  L 10.7142857142857 1.75  C 11.4241071428571 1.75  12 2.337890625  12 3.0625  L 12 4.046875  Z M 0 5.578125  C 0 5.39765625  0.144642857142857 5.25  0.321428571428571 5.25  L 11.6785714285714 5.25  C 11.8553571428571 5.25  12 5.39765625  12 5.578125  L 12 12.6875  C 12 13.412109375  11.4241071428571 14  10.7142857142857 14  L 1.28571428571429 14  C 0.575892857142857 14  0 13.412109375  0 12.6875  L 0 5.578125  Z M 3.42857142857143 11.921875  L 3.42857142857143 10.828125  C 3.42857142857143 10.64765625  3.28392857142857 10.5  3.10714285714286 10.5  L 2.03571428571429 10.5  C 1.85892857142857 10.5  1.71428571428571 10.64765625  1.71428571428571 10.828125  L 1.71428571428571 11.921875  C 1.71428571428571 12.10234375  1.85892857142857 12.25  2.03571428571429 12.25  L 3.10714285714286 12.25  C 3.28392857142857 12.25  3.42857142857143 12.10234375  3.42857142857143 11.921875  Z M 3.42857142857143 8.421875  L 3.42857142857143 7.328125  C 3.42857142857143 7.14765625  3.28392857142857 7  3.10714285714286 7  L 2.03571428571429 7  C 1.85892857142857 7  1.71428571428571 7.14765625  1.71428571428571 7.328125  L 1.71428571428571 8.421875  C 1.71428571428571 8.60234375  1.85892857142857 8.75  2.03571428571429 8.75  L 3.10714285714286 8.75  C 3.28392857142857 8.75  3.42857142857143 8.60234375  3.42857142857143 8.421875  Z M 6.85714285714286 11.921875  L 6.85714285714286 10.828125  C 6.85714285714286 10.64765625  6.7125 10.5  6.53571428571428 10.5  L 5.46428571428571 10.5  C 5.2875 10.5  5.14285714285714 10.64765625  5.14285714285714 10.828125  L 5.14285714285714 11.921875  C 5.14285714285714 12.10234375  5.2875 12.25  5.46428571428571 12.25  L 6.53571428571428 12.25  C 6.7125 12.25  6.85714285714286 12.10234375  6.85714285714286 11.921875  Z M 6.85714285714286 8.421875  L 6.85714285714286 7.328125  C 6.85714285714286 7.14765625  6.7125 7  6.53571428571428 7  L 5.46428571428571 7  C 5.2875 7  5.14285714285714 7.14765625  5.14285714285714 7.328125  L 5.14285714285714 8.421875  C 5.14285714285714 8.60234375  5.2875 8.75  5.46428571428571 8.75  L 6.53571428571428 8.75  C 6.7125 8.75  6.85714285714286 8.60234375  6.85714285714286 8.421875  Z M 10.2857142857143 11.921875  L 10.2857142857143 10.828125  C 10.2857142857143 10.64765625  10.1410714285714 10.5  9.96428571428572 10.5  L 8.89285714285714 10.5  C 8.71607142857143 10.5  8.57142857142857 10.64765625  8.57142857142857 10.828125  L 8.57142857142857 11.921875  C 8.57142857142857 12.10234375  8.71607142857143 12.25  8.89285714285714 12.25  L 9.96428571428572 12.25  C 10.1410714285714 12.25  10.2857142857143 12.10234375  10.2857142857143 11.921875  Z M 10.2857142857143 8.421875  L 10.2857142857143 7.328125  C 10.2857142857143 7.14765625  10.1410714285714 7  9.96428571428572 7  L 8.89285714285714 7  C 8.71607142857143 7  8.57142857142857 7.14765625  8.57142857142857 7.328125  L 8.57142857142857 8.421875  C 8.57142857142857 8.60234375  8.71607142857143 8.75  8.89285714285714 8.75  L 9.96428571428572 8.75  C 10.1410714285714 8.75  10.2857142857143 8.60234375  10.2857142857143 8.421875  Z " fill-rule="nonzero" fill="#c4c6cf" stroke="none" transform="matrix(1 0 0 1 430 153 )" />
    <path d="M 12 4.046875  C 12 4.22734375  11.8553571428571 4.375  11.6785714285714 4.375  L 0.321428571428571 4.375  C 0.144642857142857 4.375  0 4.22734375  0 4.046875  L 0 3.0625  C 0 2.337890625  0.575892857142857 1.75  1.28571428571429 1.75  L 2.57142857142857 1.75  L 2.57142857142857 0.328125  C 2.57142857142857 0.14765625  2.71607142857143 0  2.89285714285714 0  L 3.96428571428571 0  C 4.14107142857143 0  4.28571428571429 0.14765625  4.28571428571429 0.328125  L 4.28571428571429 1.75  L 7.71428571428572 1.75  L 7.71428571428572 0.328125  C 7.71428571428572 0.14765625  7.85892857142857 0  8.03571428571428 0  L 9.10714285714286 0  C 9.28392857142857 0  9.42857142857143 0.14765625  9.42857142857143 0.328125  L 9.42857142857143 1.75  L 10.7142857142857 1.75  C 11.4241071428571 1.75  12 2.337890625  12 3.0625  L 12 4.046875  Z " stroke-width="2" stroke="#c4c6cf" fill="none" transform="matrix(1 0 0 1 430 153 )" mask="url(#clip65)" />
    <path d="M 0 5.578125  C 0 5.39765625  0.144642857142857 5.25  0.321428571428571 5.25  L 11.6785714285714 5.25  C 11.8553571428571 5.25  12 5.39765625  12 5.578125  L 12 12.6875  C 12 13.412109375  11.4241071428571 14  10.7142857142857 14  L 1.28571428571429 14  C 0.575892857142857 14  0 13.412109375  0 12.6875  L 0 5.578125  Z " stroke-width="2" stroke="#c4c6cf" fill="none" transform="matrix(1 0 0 1 430 153 )" mask="url(#clip65)" />
    <path d="M 3.42857142857143 11.921875  L 3.42857142857143 10.828125  C 3.42857142857143 10.64765625  3.28392857142857 10.5  3.10714285714286 10.5  L 2.03571428571429 10.5  C 1.85892857142857 10.5  1.71428571428571 10.64765625  1.71428571428571 10.828125  L 1.71428571428571 11.921875  C 1.71428571428571 12.10234375  1.85892857142857 12.25  2.03571428571429 12.25  L 3.10714285714286 12.25  C 3.28392857142857 12.25  3.42857142857143 12.10234375  3.42857142857143 11.921875  Z " stroke-width="2" stroke="#c4c6cf" fill="none" transform="matrix(1 0 0 1 430 153 )" mask="url(#clip65)" />
    <path d="M 3.42857142857143 8.421875  L 3.42857142857143 7.328125  C 3.42857142857143 7.14765625  3.28392857142857 7  3.10714285714286 7  L 2.03571428571429 7  C 1.85892857142857 7  1.71428571428571 7.14765625  1.71428571428571 7.328125  L 1.71428571428571 8.421875  C 1.71428571428571 8.60234375  1.85892857142857 8.75  2.03571428571429 8.75  L 3.10714285714286 8.75  C 3.28392857142857 8.75  3.42857142857143 8.60234375  3.42857142857143 8.421875  Z " stroke-width="2" stroke="#c4c6cf" fill="none" transform="matrix(1 0 0 1 430 153 )" mask="url(#clip65)" />
    <path d="M 6.85714285714286 11.921875  L 6.85714285714286 10.828125  C 6.85714285714286 10.64765625  6.7125 10.5  6.53571428571428 10.5  L 5.46428571428571 10.5  C 5.2875 10.5  5.14285714285714 10.64765625  5.14285714285714 10.828125  L 5.14285714285714 11.921875  C 5.14285714285714 12.10234375  5.2875 12.25  5.46428571428571 12.25  L 6.53571428571428 12.25  C 6.7125 12.25  6.85714285714286 12.10234375  6.85714285714286 11.921875  Z " stroke-width="2" stroke="#c4c6cf" fill="none" transform="matrix(1 0 0 1 430 153 )" mask="url(#clip65)" />
    <path d="M 6.85714285714286 8.421875  L 6.85714285714286 7.328125  C 6.85714285714286 7.14765625  6.7125 7  6.53571428571428 7  L 5.46428571428571 7  C 5.2875 7  5.14285714285714 7.14765625  5.14285714285714 7.328125  L 5.14285714285714 8.421875  C 5.14285714285714 8.60234375  5.2875 8.75  5.46428571428571 8.75  L 6.53571428571428 8.75  C 6.7125 8.75  6.85714285714286 8.60234375  6.85714285714286 8.421875  Z " stroke-width="2" stroke="#c4c6cf" fill="none" transform="matrix(1 0 0 1 430 153 )" mask="url(#clip65)" />
    <path d="M 10.2857142857143 11.921875  L 10.2857142857143 10.828125  C 10.2857142857143 10.64765625  10.1410714285714 10.5  9.96428571428572 10.5  L 8.89285714285714 10.5  C 8.71607142857143 10.5  8.57142857142857 10.64765625  8.57142857142857 10.828125  L 8.57142857142857 11.921875  C 8.57142857142857 12.10234375  8.71607142857143 12.25  8.89285714285714 12.25  L 9.96428571428572 12.25  C 10.1410714285714 12.25  10.2857142857143 12.10234375  10.2857142857143 11.921875  Z " stroke-width="2" stroke="#c4c6cf" fill="none" transform="matrix(1 0 0 1 430 153 )" mask="url(#clip65)" />
    <path d="M 10.2857142857143 8.421875  L 10.2857142857143 7.328125  C 10.2857142857143 7.14765625  10.1410714285714 7  9.96428571428572 7  L 8.89285714285714 7  C 8.71607142857143 7  8.57142857142857 7.14765625  8.57142857142857 7.328125  L 8.57142857142857 8.421875  C 8.57142857142857 8.60234375  8.71607142857143 8.75  8.89285714285714 8.75  L 9.96428571428572 8.75  C 10.1410714285714 8.75  10.2857142857143 8.60234375  10.2857142857143 8.421875  Z " stroke-width="2" stroke="#c4c6cf" fill="none" transform="matrix(1 0 0 1 430 153 )" mask="url(#clip65)" />
  </g>
</svg>