<?xml version="1.0" encoding="utf-8"?>
<svg version="1.1" xmlns:xlink="http://www.w3.org/1999/xlink" width="200px" height="36px" xmlns="http://www.w3.org/2000/svg">
  <g transform="matrix(1 0 0 1 -92 -260 )">
    <path d="M 93 264  A 3 3 0 0 1 96 261 L 288 261  A 3 3 0 0 1 291 264 L 291 292  A 3 3 0 0 1 288 295 L 96 295  A 3 3 0 0 1 93 292 L 93 264  Z " fill-rule="nonzero" fill="#ffffff" stroke="none" />
    <path d="M 92.5 264  A 3.5 3.5 0 0 1 96 260.5 L 288 260.5  A 3.5 3.5 0 0 1 291.5 264 L 291.5 292  A 3.5 3.5 0 0 1 288 295.5 L 96 295.5  A 3.5 3.5 0 0 1 92.5 292 L 92.5 264  Z " stroke-width="1" stroke-dasharray="3,1" stroke="#3e86ff" fill="none" stroke-dashoffset="0.5" />
  </g>
</svg>