<?xml version="1.0" encoding="utf-8"?>
<svg version="1.1" xmlns:xlink="http://www.w3.org/1999/xlink" width="16px" height="16px" viewBox="184 500  16 16" xmlns="http://www.w3.org/2000/svg">
  <path d="M 192 500  C 196.48 500  200 503.52  200 508  C 200 512.48  196.48 516  192 516  C 187.52 516  184 512.48  184 508  C 184 503.52  187.52 500  192 500  Z " fill-rule="nonzero" fill="#ffffff" stroke="none" />
  <path d="M 192 500.5  C 196.2 500.5  199.5 503.8  199.5 508  C 199.5 512.2  196.2 515.5  192 515.5  C 187.8 515.5  184.5 512.2  184.5 508  C 184.5 503.8  187.8 500.5  192 500.5  Z " stroke-width="1" stroke="#3e86ff" fill="none" />
  <path d="M 192 512  C 189.76 512  188 510.24  188 508  C 188 505.76  189.76 504  192 504  C 194.24 504  196 505.76  196 508  C 196 510.24  194.24 512  192 512  " fill-rule="nonzero" fill="#3e86ff" stroke="none" />
</svg>