<?xml version="1.0" encoding="utf-8"?>
<svg version="1.1" xmlns:xlink="http://www.w3.org/1999/xlink" width="16px" height="16px" viewBox="244 499.5  16 16" xmlns="http://www.w3.org/2000/svg">
  <path d="M 252 499.5  C 256.48 499.5  260 503.02  260 507.5  C 260 511.98  256.48 515.5  252 515.5  C 247.52 515.5  244 511.98  244 507.5  C 244 503.02  247.52 499.5  252 499.5  Z " fill-rule="nonzero" fill="#ffffff" stroke="none" />
  <path d="M 252 500  C 256.2 500  259.5 503.3  259.5 507.5  C 259.5 511.7  256.2 515  252 515  C 247.8 515  244.5 511.7  244.5 507.5  C 244.5 503.3  247.8 500  252 500  Z " stroke-width="1" stroke="#3e86ff" fill="none" />
  <path d="M 252 511.5  C 249.76 511.5  248 509.74  248 507.5  C 248 505.26  249.76 503.5  252 503.5  C 254.24 503.5  256 505.26  256 507.5  C 256 509.74  254.24 511.5  252 511.5  " fill-rule="nonzero" fill="#3e86ff" stroke="none" />
</svg>