<?xml version="1.0" encoding="utf-8"?>
<svg version="1.1" xmlns:xlink="http://www.w3.org/1999/xlink" width="16px" height="16px" viewBox="184 499.5  16 16" xmlns="http://www.w3.org/2000/svg">
  <path d="M 192 499.5  C 196.48 499.5  200 503.02  200 507.5  C 200 511.98  196.48 515.5  192 515.5  C 187.52 515.5  184 511.98  184 507.5  C 184 503.02  187.52 499.5  192 499.5  Z " fill-rule="nonzero" fill="#ffffff" stroke="none" />
  <path d="M 192 500  C 196.2 500  199.5 503.3  199.5 507.5  C 199.5 511.7  196.2 515  192 515  C 187.8 515  184.5 511.7  184.5 507.5  C 184.5 503.3  187.8 500  192 500  Z " stroke-width="1" stroke="#3e86ff" fill="none" />
  <path d="M 192 511.5  C 189.76 511.5  188 509.74  188 507.5  C 188 505.26  189.76 503.5  192 503.5  C 194.24 503.5  196 505.26  196 507.5  C 196 509.74  194.24 511.5  192 511.5  " fill-rule="nonzero" fill="#3e86ff" stroke="none" />
</svg>