<?xml version="1.0" encoding="utf-8"?>
<svg version="1.1" xmlns:xlink="http://www.w3.org/1999/xlink" width="14px" height="14px" xmlns="http://www.w3.org/2000/svg">
  <g transform="matrix(1 0 0 1 -661 -874 )">
    <path d="M 668 874  C 671.92 874  675 877.08  675 881  C 675 884.92  671.92 888  668 888  C 664.08 888  661 884.92  661 881  C 661 877.08  664.08 874  668 874  Z " fill-rule="nonzero" fill="#ffffff" stroke="none" fill-opacity="0" />
    <path d="M 668 874.5  C 671.64 874.5  674.5 877.36  674.5 881  C 674.5 884.64  671.64 887.5  668 887.5  C 664.36 887.5  661.5 884.64  661.5 881  C 661.5 877.36  664.36 874.5  668 874.5  Z " stroke-width="1" stroke="#d9d9d9" fill="none" />
  </g>
</svg>