<?xml version="1.0" encoding="utf-8"?>
<svg version="1.1" xmlns:xlink="http://www.w3.org/1999/xlink" width="14px" height="14px" xmlns="http://www.w3.org/2000/svg">
  <g transform="matrix(1 0 0 1 -750 -874 )">
    <path d="M 757 874  C 760.92 874  764 877.08  764 881  C 764 884.92  760.92 888  757 888  C 753.08 888  750 884.92  750 881  C 750 877.08  753.08 874  757 874  Z " fill-rule="nonzero" fill="#ffffff" stroke="none" fill-opacity="0" />
    <path d="M 757 874.5  C 760.64 874.5  763.5 877.36  763.5 881  C 763.5 884.64  760.64 887.5  757 887.5  C 753.36 887.5  750.5 884.64  750.5 881  C 750.5 877.36  753.36 874.5  757 874.5  Z " stroke-width="1" stroke="#1890ff" fill="none" />
  </g>
</svg>