<?xml version="1.0" encoding="utf-8"?>
<svg version="1.1" xmlns:xlink="http://www.w3.org/1999/xlink" width="15px" height="14px" xmlns="http://www.w3.org/2000/svg">
  <g transform="matrix(1 0 0 1 -1111 210 )">
    <path d="M 11.3671875 12.66015625  C 11.4813701923077 12.5447048611111  11.5384615384615 12.4079861111111  11.5384615384615 12.25  C 11.5384615384615 12.0920138888889  11.4813701923077 11.9552951388889  11.3671875 11.83984375  C 11.2530048076923 11.7243923611111  11.1177884615385 11.6666666666667  10.9615384615385 11.6666666666667  C 10.8052884615385 11.6666666666667  10.6700721153846 11.7243923611111  10.5558894230769 11.83984375  C 10.4417067307692 11.9552951388889  10.3846153846154 12.0920138888889  10.3846153846154 12.25  C 10.3846153846154 12.4079861111111  10.4417067307692 12.5447048611111  10.5558894230769 12.66015625  C 10.6700721153846 12.7756076388889  10.8052884615385 12.8333333333333  10.9615384615385 12.8333333333333  C 11.1177884615385 12.8333333333333  11.2530048076923 12.7756076388889  11.3671875 12.66015625  Z M 13.6748798076923 12.66015625  C 13.7890625 12.5447048611111  13.8461538461538 12.4079861111111  13.8461538461538 12.25  C 13.8461538461538 12.0920138888889  13.7890625 11.9552951388889  13.6748798076923 11.83984375  C 13.5606971153846 11.7243923611111  13.4254807692308 11.6666666666667  13.2692307692308 11.6666666666667  C 13.1129807692308 11.6666666666667  12.9777644230769 11.7243923611111  12.8635817307692 11.83984375  C 12.7493990384615 11.9552951388889  12.6923076923077 12.0920138888889  12.6923076923077 12.25  C 12.6923076923077 12.4079861111111  12.7493990384615 12.5447048611111  12.8635817307692 12.66015625  C 12.9777644230769 12.7756076388889  13.1129807692308 12.8333333333333  13.2692307692308 12.8333333333333  C 13.4254807692308 12.8333333333333  13.5606971153846 12.7756076388889  13.6748798076923 12.66015625  Z M 14.7475961538462 9.58854166666667  C 14.9158653846154 9.75868055555555  15 9.96527777777778  15 10.2083333333333  L 15 13.125  C 15 13.3680555555556  14.9158653846154 13.5746527777778  14.7475961538462 13.7447916666667  C 14.5793269230769 13.9149305555556  14.375 14  14.1346153846154 14  L 0.865384615384615 14  C 0.625 14  0.420673076923077 13.9149305555556  0.252403846153846 13.7447916666667  C 0.0841346153846154 13.5746527777778  0 13.3680555555556  0 13.125  L 0 10.2083333333333  C 0 9.96527777777778  0.0841346153846154 9.75868055555555  0.252403846153846 9.58854166666667  C 0.420673076923077 9.41840277777778  0.625 9.33333333333333  0.865384615384615 9.33333333333333  L 5.05709134615385 9.33333333333333  L 6.27403846153846 10.5729166666667  C 6.62259615384615 10.9131944444444  7.03125 11.0833333333333  7.5 11.0833333333333  C 7.96875 11.0833333333333  8.37740384615385 10.9131944444444  8.72596153846154 10.5729166666667  L 9.95192307692308 9.33333333333333  L 14.1346153846154 9.33333333333333  C 14.375 9.33333333333333  14.5793269230769 9.41840277777778  14.7475961538462 9.58854166666667  Z M 11.5384615384615 4.66666666666667  C 11.7908653846154 4.66666666666667  11.9681490384615 4.78515625  12.0703125 5.02213541666667  C 12.1724759615385 5.27126736111111  12.1304086538462 5.48394097222222  11.9441105769231 5.66015625  L 7.90564903846154 9.74348958333333  C 7.79747596153846 9.85894097222222  7.66225961538462 9.91666666666667  7.5 9.91666666666667  C 7.33774038461538 9.91666666666667  7.20252403846154 9.85894097222222  7.09435096153846 9.74348958333333  L 3.05588942307692 5.66015625  C 2.86959134615385 5.48394097222222  2.82752403846154 5.27126736111111  2.9296875 5.02213541666667  C 3.03185096153846 4.78515625  3.20913461538462 4.66666666666667  3.46153846153846 4.66666666666667  L 5.76923076923077 4.66666666666667  L 5.76923076923077 0.583333333333333  C 5.76923076923077 0.42534722222222  5.82632211538462 0.28862847222222  5.94050480769231 0.173177083333333  C 6.0546875 0.0577256944444453  6.18990384615385 0  6.34615384615385 0  L 8.65384615384615 0  C 8.81009615384615 0  8.9453125 0.0577256944444453  9.05949519230769 0.173177083333333  C 9.17367788461539 0.28862847222222  9.23076923076923 0.42534722222222  9.23076923076923 0.583333333333333  L 9.23076923076923 4.66666666666667  L 11.5384615384615 4.66666666666667  Z " fill-rule="nonzero" fill="#616a7d" stroke="none" transform="matrix(1 0 0 1 1111 -210 )" />
  </g>
</svg>