<?xml version="1.0" encoding="utf-8"?>
<svg version="1.1" xmlns:xlink="http://www.w3.org/1999/xlink" width="66px" height="66px" xmlns="http://www.w3.org/2000/svg">
  <g transform="matrix(1 0 0 1 -33 -178 )">
    <path d="M 66 178  C 84.48 178  99 192.52  99 211  C 99 229.48  84.48 244  66 244  C 47.52 244  33 229.48  33 211  C 33 192.52  47.52 178  66 178  Z " fill-rule="nonzero" fill="#aaaaaa" stroke="none" />
    <path d="M 66 178.5  C 84.2 178.5  98.5 192.8  98.5 211  C 98.5 229.2  84.2 243.5  66 243.5  C 47.8 243.5  33.5 229.2  33.5 211  C 33.5 192.8  47.8 178.5  66 178.5  Z " stroke-width="1" stroke="#797979" fill="none" />
  </g>
</svg>