<?xml version="1.0" encoding="utf-8"?>
<svg version="1.1" xmlns:xlink="http://www.w3.org/1999/xlink" width="19px" height="19px" xmlns="http://www.w3.org/2000/svg">
  <g transform="matrix(1 0 0 1 -336 -39 )">
    <path d="M 345.5 39  C 350.82 39  355 43.18  355 48.5  C 355 53.82  350.82 58  345.5 58  C 340.18 58  336 53.82  336 48.5  C 336 43.18  340.18 39  345.5 39  Z " fill-rule="nonzero" fill="#ffffff" stroke="none" />
    <path d="M 345.5 39.5  C 350.54 39.5  354.5 43.46  354.5 48.5  C 354.5 53.54  350.54 57.5  345.5 57.5  C 340.46 57.5  336.5 53.54  336.5 48.5  C 336.5 43.46  340.46 39.5  345.5 39.5  Z " stroke-width="1" stroke="#797979" fill="none" />
  </g>
</svg>