<?xml version="1.0" encoding="utf-8"?>
<svg version="1.1" xmlns:xlink="http://www.w3.org/1999/xlink" width="16px" height="16px" viewBox="151 58  16 16" xmlns="http://www.w3.org/2000/svg">
  <path d="M 159 58  C 163.48 58  167 61.52  167 66  C 167 70.48  163.48 74  159 74  C 154.52 74  151 70.48  151 66  C 151 61.52  154.52 58  159 58  Z " fill-rule="nonzero" fill="#ffffff" stroke="none" />
  <path d="M 159 58.5  C 163.2 58.5  166.5 61.8  166.5 66  C 166.5 70.2  163.2 73.5  159 73.5  C 154.8 73.5  151.5 70.2  151.5 66  C 151.5 61.8  154.8 58.5  159 58.5  Z " stroke-width="1" stroke="#3e86ff" fill="none" />
  <path d="M 159 70  C 156.76 70  155 68.24  155 66  C 155 63.76  156.76 62  159 62  C 161.24 62  163 63.76  163 66  C 163 68.24  161.24 70  159 70  " fill-rule="nonzero" fill="#3e86ff" stroke="none" />
</svg>