<?xml version="1.0" encoding="utf-8"?>
<svg version="1.1" xmlns:xlink="http://www.w3.org/1999/xlink" width="16px" height="16px" viewBox="256 58  16 16" xmlns="http://www.w3.org/2000/svg">
  <path d="M 264 58  C 268.48 58  272 61.52  272 66  C 272 70.48  268.48 74  264 74  C 259.52 74  256 70.48  256 66  C 256 61.52  259.52 58  264 58  Z " fill-rule="nonzero" fill="#f0f0f0" stroke="none" />
  <path d="M 264 58.5  C 268.2 58.5  271.5 61.8  271.5 66  C 271.5 70.2  268.2 73.5  264 73.5  C 259.8 73.5  256.5 70.2  256.5 66  C 256.5 61.8  259.8 58.5  264 58.5  Z " stroke-width="1" stroke="#cfd0d3" fill="none" />
  <path d="M 264 70  C 261.76 70  260 68.24  260 66  C 260 63.76  261.76 62  264 62  C 266.24 62  268 63.76  268 66  C 268 68.24  266.24 70  264 70  " fill-rule="nonzero" fill="#cfd0d3" stroke="none" />
</svg>