<?xml version="1.0" encoding="utf-8"?>
<svg version="1.1" xmlns:xlink="http://www.w3.org/1999/xlink" width="16px" height="16px" viewBox="707 537  16 16" xmlns="http://www.w3.org/2000/svg">
  <path d="M 715 537  C 719.48 537  723 540.52  723 545  C 723 549.48  719.48 553  715 553  C 710.52 553  707 549.48  707 545  C 707 540.52  710.52 537  715 537  Z " fill-rule="nonzero" fill="#f0f0f0" stroke="none" />
  <path d="M 715 537.5  C 719.2 537.5  722.5 540.8  722.5 545  C 722.5 549.2  719.2 552.5  715 552.5  C 710.8 552.5  707.5 549.2  707.5 545  C 707.5 540.8  710.8 537.5  715 537.5  Z " stroke-width="1" stroke="#cfd0d3" fill="none" />
  <path d="M 715 549  C 712.76 549  711 547.24  711 545  C 711 542.76  712.76 541  715 541  C 717.24 541  719 542.76  719 545  C 719 547.24  717.24 549  715 549  " fill-rule="nonzero" fill="#cfd0d3" stroke="none" />
</svg>