<?xml version="1.0" encoding="utf-8"?>
<svg version="1.1" xmlns:xlink="http://www.w3.org/1999/xlink" width="16px" height="16px" viewBox="916 537  16 16" xmlns="http://www.w3.org/2000/svg">
  <path d="M 924 537  C 928.48 537  932 540.52  932 545  C 932 549.48  928.48 553  924 553  C 919.52 553  916 549.48  916 545  C 916 540.52  919.52 537  924 537  Z " fill-rule="nonzero" fill="#f0f0f0" stroke="none" />
  <path d="M 924 537.5  C 928.2 537.5  931.5 540.8  931.5 545  C 931.5 549.2  928.2 552.5  924 552.5  C 919.8 552.5  916.5 549.2  916.5 545  C 916.5 540.8  919.8 537.5  924 537.5  Z " stroke-width="1" stroke="#cfd0d3" fill="none" />
  <path d="M 924 549  C 921.76 549  920 547.24  920 545  C 920 542.76  921.76 541  924 541  C 926.24 541  928 542.76  928 545  C 928 547.24  926.24 549  924 549  " fill-rule="nonzero" fill="#cfd0d3" stroke="none" />
</svg>