<?xml version="1.0" encoding="utf-8"?>
<svg version="1.1" xmlns:xlink="http://www.w3.org/1999/xlink" width="16px" height="16px" viewBox="1021 537  16 16" xmlns="http://www.w3.org/2000/svg">
  <path d="M 1029 537  C 1033.48 537  1037 540.52  1037 545  C 1037 549.48  1033.48 553  1029 553  C 1024.52 553  1021 549.48  1021 545  C 1021 540.52  1024.52 537  1029 537  Z " fill-rule="nonzero" fill="#f0f0f0" stroke="none" />
  <path d="M 1029 537.5  C 1033.2 537.5  1036.5 540.8  1036.5 545  C 1036.5 549.2  1033.2 552.5  1029 552.5  C 1024.8 552.5  1021.5 549.2  1021.5 545  C 1021.5 540.8  1024.8 537.5  1029 537.5  Z " stroke-width="1" stroke="#cfd0d3" fill="none" />
  <path d="M 1029 549  C 1026.76 549  1025 547.24  1025 545  C 1025 542.76  1026.76 541  1029 541  C 1031.24 541  1033 542.76  1033 545  C 1033 547.24  1031.24 549  1029 549  " fill-rule="nonzero" fill="#cfd0d3" stroke="none" />
</svg>