<?xml version="1.0" encoding="utf-8"?>
<svg version="1.1" xmlns:xlink="http://www.w3.org/1999/xlink" width="43px" height="50px" xmlns="http://www.w3.org/2000/svg">
  <g transform="matrix(1 0 0 1 -64 -119 )">
    <path d="M 32.3619791666667 1.89732142857143  L 41.0963541666667 10.6026785714286  C 41.6189236111111 11.1235119047619  42.0668402777778 11.8303571428571  42.4401041666667 12.7232142857143  C 42.8133680555556 13.6160714285714  43 14.4345238095238  43 15.1785714285714  L 43 47.3214285714286  C 43 48.0654761904762  42.7387152777778 48.6979166666667  42.2161458333333 49.21875  C 41.6935763888889 49.7395833333333  41.0590277777778 50  40.3125 50  L 2.6875 50  C 1.94097222222222 50  1.30642361111111 49.7395833333333  0.783854166666667 49.21875  C 0.261284722222222 48.6979166666667  0 48.0654761904762  0 47.3214285714286  L 0 2.67857142857143  C 0 1.93452380952381  0.261284722222222 1.30208333333333  0.783854166666667 0.78125  C 1.30642361111111 0.260416666666669  1.94097222222222 0  2.6875 0  L 27.7708333333333 0  C 28.5173611111111 0  29.3385416666667 0.186011904761907  30.234375 0.558035714285715  C 31.1302083333333 0.930059523809523  31.8394097222222 1.37648809523809  32.3619791666667 1.89732142857143  Z M 29.814453125 4.40848214285715  C 29.5904947916667 4.18526785714286  29.2078993055556 3.98065476190476  28 3.79464285714286  L 28 15  L 39.1927083333333 15  C 39.0060763888889 13.7462797619048  38.80078125 13.3649553571429  38.5768229166667 13.1417410714286  L 29.814453125 4.40848214285715  Z M 4 46  L 39 46  L 39 18  L 27.7708333333333 18  C 27.0243055555556 17.8571428571429  26.3897569444444 17.5967261904762  25.8671875 17.0758928571429  C 25.3446180555556 16.5550595238095  25.0833333333333 15.922619047619  25 15.1785714285714  L 25 4  L 4 4  L 4 46  Z M 13.9134114583333 39.8995535714286  L 12.009765625 39.8995535714286  L 12.009765625 42.8571428571429  L 19.8763020833333 42.8571428571429  L 19.8763020833333 39.8995535714286  L 17.7766927083333 39.8995535714286  L 20.66015625 35.4073660714286  C 20.7534722222222 35.2771577380952  20.8467881944444 35.1236979166667  20.9401041666667 34.9469866071429  C 21.0334201388889 34.770275297619  21.1034071180556 34.6447172619048  21.1500651041667 34.5703125  C 21.1967230902778 34.4959077380952  21.2293836805556 34.4587053571429  21.248046875 34.4587053571429  L 21.3040364583333 34.4587053571429  C 21.3226996527778 34.5331101190476  21.3693576388889 34.6261160714286  21.4440104166667 34.7377232142857  C 21.4813368055556 34.8121279761905  21.5233289930556 34.8818824404762  21.5699869791667 34.9469866071429  C 21.6166449652778 35.0120907738095  21.6726345486111 35.0864955357143  21.7379557291667 35.1702008928571  C 21.8032769097222 35.25390625  21.8639322916667 35.3329613095238  21.919921875 35.4073660714286  L 24.9153645833333 39.8995535714286  L 22.7877604166667 39.8995535714286  L 22.7877604166667 42.8571428571429  L 30.9342447916667 42.8571428571429  L 30.9342447916667 39.8995535714286  L 29.0305989583333 39.8995535714286  L 23.6555989583333 32.2823660714286  L 29.1145833333333 24.4140625  L 30.990234375 24.4140625  L 30.990234375 21.4285714285714  L 23.1796875 21.4285714285714  L 23.1796875 24.4140625  L 25.2513020833333 24.4140625  L 22.3678385416667 28.8504464285714  C 22.2931857638889 28.9806547619048  22.1998697916667 29.1341145833333  22.087890625 29.3108258928571  C 21.9759114583333 29.487537202381  21.8919270833333 29.6130952380952  21.8359375 29.6875  L 21.7799479166667 29.7712053571429  L 21.7239583333333 29.7712053571429  C 21.7052951388889 29.6968005952381  21.6586371527778 29.6037946428571  21.583984375 29.4921875  C 21.4720052083333 29.2875744047619  21.3133680555556 29.0736607142857  21.1080729166667 28.8504464285714  L 18.140625 24.4140625  L 20.2682291666667 24.4140625  L 20.2682291666667 21.4285714285714  L 12.1497395833333 21.4285714285714  L 12.1497395833333 24.4140625  L 14.0533854166667 24.4140625  L 19.3444010416667 32.0033482142857  L 13.9134114583333 39.8995535714286  Z " fill-rule="nonzero" fill="#c4c6cf" stroke="none" transform="matrix(1 0 0 1 64 119 )" />
  </g>
</svg>