<?xml version="1.0" encoding="utf-8"?>
<svg version="1.1" xmlns:xlink="http://www.w3.org/1999/xlink" width="16px" height="16px" viewBox="244 324  16 16" xmlns="http://www.w3.org/2000/svg">
  <path d="M 252 324  C 256.48 324  260 327.52  260 332  C 260 336.48  256.48 340  252 340  C 247.52 340  244 336.48  244 332  C 244 327.52  247.52 324  252 324  Z " fill-rule="nonzero" fill="#ffffff" stroke="none" />
  <path d="M 252 324.5  C 256.2 324.5  259.5 327.8  259.5 332  C 259.5 336.2  256.2 339.5  252 339.5  C 247.8 339.5  244.5 336.2  244.5 332  C 244.5 327.8  247.8 324.5  252 324.5  Z " stroke-width="1" stroke="#3e86ff" fill="none" />
  <path d="M 252 336  C 249.76 336  248 334.24  248 332  C 248 329.76  249.76 328  252 328  C 254.24 328  256 329.76  256 332  C 256 334.24  254.24 336  252 336  " fill-rule="nonzero" fill="#3e86ff" stroke="none" />
</svg>