<?xml version="1.0" encoding="utf-8"?>
<svg version="1.1" xmlns:xlink="http://www.w3.org/1999/xlink" width="16px" height="16px" viewBox="184 324  16 16" xmlns="http://www.w3.org/2000/svg">
  <path d="M 192 324  C 196.48 324  200 327.52  200 332  C 200 336.48  196.48 340  192 340  C 187.52 340  184 336.48  184 332  C 184 327.52  187.52 324  192 324  Z " fill-rule="nonzero" fill="#f0f0f0" stroke="none" />
  <path d="M 192 324.5  C 196.2 324.5  199.5 327.8  199.5 332  C 199.5 336.2  196.2 339.5  192 339.5  C 187.8 339.5  184.5 336.2  184.5 332  C 184.5 327.8  187.8 324.5  192 324.5  Z " stroke-width="1" stroke="#cfd0d3" fill="none" />
  <path d="M 192 336  C 189.76 336  188 334.24  188 332  C 188 329.76  189.76 328  192 328  C 194.24 328  196 329.76  196 332  C 196 334.24  194.24 336  192 336  " fill-rule="nonzero" fill="#cfd0d3" stroke="none" />
</svg>