<?xml version="1.0" encoding="utf-8"?>
<svg version="1.1" xmlns:xlink="http://www.w3.org/1999/xlink" width="104px" height="104px" xmlns="http://www.w3.org/2000/svg">
  <g transform="matrix(1 0 0 1 -153 -115 )">
    <path d="M 154 119  A 3 3 0 0 1 157 116 L 253 116  A 3 3 0 0 1 256 119 L 256 215  A 3 3 0 0 1 253 218 L 157 218  A 3 3 0 0 1 154 215 L 154 119  Z " fill-rule="nonzero" fill="#000000" stroke="none" fill-opacity="0.0196078431372549" />
    <path d="M 153.5 119  A 3.5 3.5 0 0 1 157 115.5 L 253 115.5  A 3.5 3.5 0 0 1 256.5 119 L 256.5 215  A 3.5 3.5 0 0 1 253 218.5 L 157 218.5  A 3.5 3.5 0 0 1 153.5 215 L 153.5 119  Z " stroke-width="1" stroke-dasharray="9,4" stroke="#000000" fill="none" stroke-opacity="0.149019607843137" stroke-dashoffset="0.5" />
  </g>
</svg>