<?xml version="1.0" encoding="utf-8"?>
<svg version="1.1" xmlns:xlink="http://www.w3.org/1999/xlink" width="104px" height="104px" xmlns="http://www.w3.org/2000/svg">
  <g transform="matrix(1 0 0 1 -273 -115 )">
    <path d="M 274 119  A 3 3 0 0 1 277 116 L 373 116  A 3 3 0 0 1 376 119 L 376 215  A 3 3 0 0 1 373 218 L 277 218  A 3 3 0 0 1 274 215 L 274 119  Z " fill-rule="nonzero" fill="#ffffff" stroke="none" />
    <path d="M 273.5 119  A 3.5 3.5 0 0 1 277 115.5 L 373 115.5  A 3.5 3.5 0 0 1 376.5 119 L 376.5 215  A 3.5 3.5 0 0 1 373 218.5 L 277 218.5  A 3.5 3.5 0 0 1 273.5 215 L 273.5 119  Z " stroke-width="1" stroke-dasharray="9,4" stroke="#d9d9d9" fill="none" stroke-dashoffset="0.5" />
  </g>
</svg>