<?xml version="1.0" encoding="utf-8"?>
<svg version="1.1" xmlns:xlink="http://www.w3.org/1999/xlink" width="16px" height="16px" viewBox="154 315  16 16" xmlns="http://www.w3.org/2000/svg">
  <path d="M 162 315  C 166.48 315  170 318.52  170 323  C 170 327.48  166.48 331  162 331  C 157.52 331  154 327.48  154 323  C 154 318.52  157.52 315  162 315  Z " fill-rule="nonzero" fill="#f0f0f0" stroke="none" />
  <path d="M 162 315.5  C 166.2 315.5  169.5 318.8  169.5 323  C 169.5 327.2  166.2 330.5  162 330.5  C 157.8 330.5  154.5 327.2  154.5 323  C 154.5 318.8  157.8 315.5  162 315.5  Z " stroke-width="1" stroke="#cfd0d3" fill="none" />
  <path d="M 162 327  C 159.76 327  158 325.24  158 323  C 158 320.76  159.76 319  162 319  C 164.24 319  166 320.76  166 323  C 166 325.24  164.24 327  162 327  " fill-rule="nonzero" fill="#cfd0d3" stroke="none" />
</svg>