<?xml version="1.0" encoding="utf-8"?>
<svg version="1.1" xmlns:xlink="http://www.w3.org/1999/xlink" width="155px" height="36px" xmlns="http://www.w3.org/2000/svg">
  <g transform="matrix(1 0 0 1 -1625 -504 )">
    <path d="M 1626 508  A 3 3 0 0 1 1629 505 L 1776 505  A 3 3 0 0 1 1779 508 L 1779 536  A 3 3 0 0 1 1776 539 L 1629 539  A 3 3 0 0 1 1626 536 L 1626 508  Z " fill-rule="nonzero" fill="#ffffff" stroke="none" />
    <path d="M 1625.5 508  A 3.5 3.5 0 0 1 1629 504.5 L 1776 504.5  A 3.5 3.5 0 0 1 1779.5 508 L 1779.5 536  A 3.5 3.5 0 0 1 1776 539.5 L 1629 539.5  A 3.5 3.5 0 0 1 1625.5 536 L 1625.5 508  Z " stroke-width="1" stroke-dasharray="3,1" stroke="#3e86ff" fill="none" stroke-dashoffset="0.5" />
  </g>
</svg>