<?xml version="1.0" encoding="utf-8"?>
<svg version="1.1" xmlns:xlink="http://www.w3.org/1999/xlink" width="16px" height="16px" viewBox="184 536  16 16" xmlns="http://www.w3.org/2000/svg">
  <path d="M 192 536  C 196.48 536  200 539.52  200 544  C 200 548.48  196.48 552  192 552  C 187.52 552  184 548.48  184 544  C 184 539.52  187.52 536  192 536  Z " fill-rule="nonzero" fill="#ffffff" stroke="none" />
  <path d="M 192 536.5  C 196.2 536.5  199.5 539.8  199.5 544  C 199.5 548.2  196.2 551.5  192 551.5  C 187.8 551.5  184.5 548.2  184.5 544  C 184.5 539.8  187.8 536.5  192 536.5  Z " stroke-width="1" stroke="#3e86ff" fill="none" />
  <path d="M 192 548  C 189.76 548  188 546.24  188 544  C 188 541.76  189.76 540  192 540  C 194.24 540  196 541.76  196 544  C 196 546.24  194.24 548  192 548  " fill-rule="nonzero" fill="#3e86ff" stroke="none" />
</svg>