<?xml version="1.0" encoding="utf-8"?>
<svg version="1.1" xmlns:xlink="http://www.w3.org/1999/xlink" width="54px" height="54px" xmlns="http://www.w3.org/2000/svg">
  <g transform="matrix(1 0 0 1 -30 -97 )">
    <path d="M 57 97  C 72.12 97  84 108.88  84 124  C 84 139.12  72.12 151  57 151  C 41.88 151  30 139.12  30 124  C 30 108.88  41.88 97  57 97  Z " fill-rule="nonzero" fill="#ffffff" stroke="none" />
    <path d="M 57 97.5  C 71.84 97.5  83.5 109.16  83.5 124  C 83.5 138.84  71.84 150.5  57 150.5  C 42.16 150.5  30.5 138.84  30.5 124  C 30.5 109.16  42.16 97.5  57 97.5  Z " stroke-width="1" stroke="#ffffff" fill="none" />
  </g>
</svg>