<?xml version="1.0" encoding="UTF-8"?>
<svg width="20px" height="20px" viewBox="0 0 20 20" version="1.1" xmlns="http://www.w3.org/2000/svg" xmlns:xlink="http://www.w3.org/1999/xlink">
    <!-- Generator: Sketch 54.1 (76490) - https://sketchapp.com -->
    <title>hm_nav_icon_mess_sel</title>
    <desc>Created with Sketch.</desc>
    <g id="hm_nav_icon_mess_sel" stroke="none" stroke-width="1" fill="none" fill-rule="evenodd">
        <g>
            <rect id="Rectangle" fill-opacity="0" fill="#FFFFFF" x="0" y="0" width="20" height="20"></rect>
            <g id="chat" transform="translate(3.000000, 3.000000)" fill-rule="nonzero">
                <g id="Group" transform="translate(4.285714, 4.285714)">
                    <path d="M5.35714286,9.10714286 C2.69892857,9.10714286 0.535714286,7.18446429 0.535714286,4.82142857 C0.535714286,2.45839286 2.69892857,0.535714286 5.35714286,0.535714286 C8.01535714,0.535714286 10.1785714,2.45839286 10.1785714,4.82142857 C10.1785714,7.18446429 8.01535714,9.10714286 5.35714286,9.10714286 Z" id="Path" fill="#3E86FF"></path>
                    <path d="M5.35714286,1.07142857 C7.72392857,1.07142857 9.64285714,2.75035714 9.64285714,4.82142857 C9.64285714,6.8925 7.72392857,8.57142857 5.35714286,8.57142857 C2.99035714,8.57142857 1.07142857,6.8925 1.07142857,4.82142857 C1.07142857,2.75035714 2.99035714,1.07142857 5.35714286,1.07142857 L5.35714286,1.07142857 Z M5.35714286,0 C2.40321429,0 0,2.16267857 0,4.82142857 C0,7.48017857 2.40321429,9.64285714 5.35714286,9.64285714 C8.31107143,9.64285714 10.7142857,7.48017857 10.7142857,4.82142857 C10.7142857,2.16267857 8.31107143,0 5.35714286,0 L5.35714286,0 Z" id="Shape" fill="#FFFFFF"></path>
                </g>
                <circle id="Oval" fill="#5584FF" cx="0.803571429" cy="10.9821429" r="1"></circle>
                <path d="M4.28571429,9.10714286 C4.28571429,6.44839286 6.68892857,4.28571429 9.64285714,4.28571429 C10.3832143,4.28571429 11.0892857,4.42178571 11.7316071,4.66767857 C11.35875,2.03517857 8.88964286,0 5.89285714,0 C2.63839286,0 0,2.39839286 0,5.35714286 C0,7.89107143 1.93767857,10.0092857 4.53803571,10.5664286 C4.37517857,10.1057143 4.28571429,9.61553571 4.28571429,9.10714286 Z" id="Path" fill="#3E86FF"></path>
                <path d="M13.8578571,13.0066071 C12.5598214,11.8558929 13.0355357,10.7142857 13.0355357,10.7142857 L9.91071429,11.6073214 C9.91071429,11.6073214 11.5457143,13.2685714 13.6682143,13.3885714 L13.8578571,13.0066071 Z" id="Path" fill="#3E86FF"></path>
                <circle id="Oval" fill="#5584FF" cx="13.7051786" cy="13.1694643" r="1"></circle>
                <path d="M3.75,9.10714286 C3.75,8.50660714 3.86678571,7.93178571 4.07196429,7.39285714 L1.07142857,5.89285714 C1.07142857,5.89285714 3.25607143,8.80392857 0.708214286,10.7325 L0.848035714,11.2446429 C2.06732143,11.2446429 3.07821429,10.6376786 3.83196429,9.95196429 C3.78267857,9.67607143 3.75,9.39535714 3.75,9.10714286 Z" id="Path" fill="#3E86FF"></path>
            </g>
        </g>
    </g>
</svg>