<?xml version="1.0" encoding="UTF-8"?>
<svg width="20px" height="20px" viewBox="0 0 20 20" version="1.1" xmlns="http://www.w3.org/2000/svg" xmlns:xlink="http://www.w3.org/1999/xlink">
    <!-- Generator: Sketch 54.1 (76490) - https://sketchapp.com -->
    <title>hm_nav_icon_health</title>
    <desc>Created with Sketch.</desc>
    <g id="hm_nav_icon_health" stroke="none" stroke-width="1" fill="none" fill-rule="evenodd">
        <g>
            <rect id="Rectangle" fill-opacity="0" fill="#FFFFFF" x="0" y="0" width="20" height="20"></rect>
            <path d="M11.9917736,5.76903174 C11.8926149,5.76903174 11.8057619,5.7317977 11.7312938,5.65740888 C11.656905,5.58296061 11.5948218,5.49610759 11.5452029,5.39686966 C11.4956037,5.29763172 11.4583697,5.19583753 11.4335205,5.0917447 C11.4087507,4.98747353 11.3962865,4.90062052 11.3962865,4.83110641 L11.3962865,3 L11.4260896,3 C11.5154196,3 11.5998551,3.0099872 11.6791979,3.02980309 C11.7586199,3.04961897 11.8553809,3.09684022 11.9694807,3.17122904 C12.08364,3.24567731 12.222589,3.34986922 12.3863871,3.48386421 C12.5500861,3.61785921 12.7559929,3.7940224 13.0041472,4.01231416 C13.2721372,4.25048124 13.4855344,4.45151337 13.6443785,4.61523219 C13.8030641,4.77901045 13.9222764,4.91795942 14.0015994,5.03205927 C14.0810215,5.14629783 14.1331174,5.24297952 14.1579666,5.32240157 C14.1827364,5.40182363 14.1952006,5.47125848 14.1952006,5.53086465 L14.1952006,5.76903174 L11.9917736,5.76903174 Z M16.0421003,12.2930344 C16.3648812,12.6158946 16.6053073,12.9790801 16.76322,13.3825116 C16.9210535,13.7860224 17,14.1983711 17,14.6194586 C17,15.0405461 16.9210535,15.4528156 16.76322,15.8563264 C16.6053073,16.2598372 16.368448,16.6195549 16.0525432,16.9353606 C15.7297623,17.2582208 15.3665768,17.4984883 14.9631453,17.6564804 C14.5595552,17.8143931 14.1472858,17.8933396 13.7261983,17.8933396 C13.3051108,17.8933396 12.8928414,17.8143139 12.4892513,17.6564011 C12.0857405,17.4984883 11.722555,17.2581415 11.3998534,16.9353606 C11.0839486,16.6194756 10.8471686,16.2598372 10.6892558,15.8563264 C10.5313431,15.4528156 10.4523966,15.0404669 10.4523966,14.6194586 C10.4523966,14.1982919 10.5313431,13.7860224 10.6892558,13.3825116 C10.8470893,12.9790008 11.0875154,12.6158153 11.4103756,12.2930344 C11.726102,11.9772089 12.0858198,11.7403497 12.4892513,11.5824369 C12.8928414,11.424544 13.3051108,11.3455777 13.7261983,11.3455777 C14.1472858,11.3455777 14.5595552,11.424544 14.9631453,11.5824369 C15.3665768,11.7403497 15.7262945,11.9772089 16.0421003,12.2930344 Z M14.1788723,15.0826549 L15.5683818,15.0826549 C15.694708,15.0826549 15.8034576,15.0370585 15.8947295,14.9458064 C15.9859817,14.8545344 16.031578,14.7457849 16.031578,14.6194586 C16.031578,14.4931324 15.9859817,14.3843828 15.8947295,14.2931109 C15.8034576,14.2018587 15.694708,14.1562624 15.5683818,14.1562624 L14.1788723,14.1562624 L14.1683303,12.7562307 C14.1683303,12.6298252 14.1227537,12.5211351 14.0314818,12.4298829 C13.9402296,12.3386902 13.8314603,12.2930344 13.705134,12.2930344 C13.5788078,12.2930344 13.4700582,12.3386902 13.3788061,12.4298037 C13.2875341,12.5211351 13.2419378,12.6299044 13.2419378,12.7562307 L13.2419378,14.1457402 L11.8419061,14.1562624 C11.7155005,14.1562624 11.6068303,14.2018587 11.5155583,14.2931109 C11.4243062,14.3843828 11.3787098,14.4931324 11.3787098,14.6194586 C11.3787098,14.7457849 11.4243062,14.8545344 11.5155583,14.9458064 C11.6068303,15.0370585 11.7155005,15.0826549 11.8419061,15.0825756 L13.2419378,15.0931771 L13.2419378,16.4826073 C13.2419378,16.6090921 13.2875341,16.7177822 13.3788061,16.8090343 C13.4700582,16.9003063 13.5788078,16.9458828 13.705134,16.9458828 C13.8314603,16.9458828 13.9402296,16.9003063 14.0314818,16.8090343 C14.1227537,16.7177822 14.1683303,16.6090128 14.1683303,16.4826866 L14.1788723,15.0826549 Z M9.47592936,14.1653975 C9.46594216,14.2448196 9.46098819,14.3142544 9.46098819,14.3737813 L9.46098819,14.5971658 C9.46098819,15.0437167 9.52560778,15.4679747 9.65449028,15.8700191 C9.78361057,16.2719249 9.96722453,16.64161 10.2053916,16.9790942 L4.9204364,16.9790942 C4.73186847,16.9790942 4.52598145,16.9245213 4.30265646,16.815316 C4.07927202,16.7061701 3.8708882,16.5621879 3.67738612,16.3836072 C3.48386421,16.204967 3.32254311,16.0014579 3.19360117,15.7731987 C3.06448088,15.5449198 3,15.3067527 3,15.0586578 L3,4.9204364 C3,4.71205259 3.04961897,4.49370138 3.14885691,4.26542242 C3.24815429,4.03708401 3.37959304,3.83117718 3.54339112,3.64758303 C3.70710994,3.46396906 3.89318107,3.31007892 4.10164415,3.18609095 C4.31008742,3.06208316 4.52837917,3 4.75663832,3 L10.4584404,3 L10.4584404,4.86090949 C10.4584404,5.04947743 10.4882435,5.25288746 10.5478299,5.47125848 C10.6073568,5.68960968 10.6990845,5.89056254 10.8231716,6.07425577 C10.9472586,6.25784992 11.1084806,6.4116608 11.3069565,6.53566859 C11.5055116,6.65973583 11.7436787,6.72173972 12.0216361,6.72173972 L14.1951213,6.72173972 L14.1951213,10.4138547 C14.1057913,10.4038675 14.0164613,10.3964365 13.9271512,10.3914826 C13.8378212,10.3865286 13.7534451,10.3839723 13.6740231,10.3839723 C12.9296989,10.3839723 12.2473588,10.5577378 11.6271019,10.9050706 C11.0067855,11.2524628 10.5080594,11.7189089 10.1309235,12.304488 L5.79875556,12.304488 C5.54077259,12.304488 5.31992459,12.396295 5.13633044,12.5798891 C4.95271647,12.7635031 4.86083023,12.9843313 4.86083023,13.2424133 C4.86083023,13.5003963 4.95271647,13.7187673 5.13633044,13.8974273 C5.31992459,14.0760675 5.54077259,14.1653975 5.79875556,14.1653975 L9.47592936,14.1653975 Z M5.79875556,8.58272848 C5.54077259,8.58272848 5.31992459,8.67205847 5.13633044,8.85071847 C4.95271647,9.02935864 4.86083023,9.24772967 4.86083023,9.50573245 C4.86083023,9.76371542 4.95271647,9.98456343 5.13633044,10.1681576 C5.31992459,10.3517715 5.54077259,10.4436578 5.79875556,10.4436578 L11.3815039,10.4436578 C11.6394868,10.4436578 11.8603348,10.3517715 12.043929,10.1681576 C12.2275429,9.98456343 12.3193499,9.76371542 12.3193499,9.50573245 C12.3193499,9.24772967 12.2274637,9.02935864 12.043929,8.85071847 C11.8603348,8.67205847 11.6394868,8.58272848 11.3815039,8.58272848 L5.79875556,8.58272848 Z" id="解读报告" fill="#616A7D"></path>
        </g>
    </g>
</svg>