<?xml version="1.0" encoding="utf-8"?>
<svg version="1.1" xmlns:xlink="http://www.w3.org/1999/xlink" width="60px" height="48px" xmlns="http://www.w3.org/2000/svg">
  <g transform="matrix(1 0 0 1 -334 -491 )">
    <path d="M 18.25 9.75  C 19.4166666666667 10.9166666666667  20 12.3333333333333  20 14  C 20 15.6666666666667  19.4166666666667 17.0833333333333  18.25 18.25  C 17.0833333333333 19.4166666666667  15.6666666666667 20  14 20  C 12.3333333333333 20  10.9166666666667 19.4166666666667  9.75 18.25  C 8.58333333333333 17.0833333333333  8 15.6666666666667  8 14  C 8 12.3333333333333  8.58333333333333 10.9166666666667  9.75 9.75  C 10.9166666666667 8.58333333333333  12.3333333333333 8  14 8  C 15.6666666666667 8  17.0833333333333 8.58333333333333  18.25 9.75  Z M 39 13  L 52 26  L 52 40  L 8 40  L 8 34  L 18 24  L 23 29  L 39 13  Z M 55.703125 4.296875  C 55.5052083333333 4.09895833333333  55.2708333333333 4  55 4  L 5 4  C 4.72916666666667 4  4.49479166666667 4.09895833333333  4.296875 4.296875  C 4.09895833333333 4.49479166666666  4 4.72916666666666  4 5  L 4 43  C 4 43.2708333333333  4.09895833333333 43.5052083333333  4.296875 43.703125  C 4.49479166666667 43.9010416666667  4.72916666666667 44  5 44  L 55 44  C 55.2708333333333 44  55.5052083333333 43.9010416666667  55.703125 43.703125  C 55.9010416666667 43.5052083333333  56 43.2708333333333  56 43  L 56 5  C 56 4.72916666666666  55.9010416666667 4.49479166666666  55.703125 4.296875  Z M 58.53125 1.46875  C 59.5104166666667 2.44791666666666  60 3.625  60 5  L 60 43  C 60 44.375  59.5104166666667 45.5520833333333  58.53125 46.53125  C 57.5520833333333 47.5104166666667  56.375 48  55 48  L 5 48  C 3.625 48  2.44791666666667 47.5104166666667  1.46875 46.53125  C 0.489583333333333 45.5520833333333  0 44.375  0 43  L 0 5  C 0 3.625  0.489583333333333 2.44791666666666  1.46875 1.46875  C 2.44791666666667 0.489583333333329  3.625 0  5 0  L 55 0  C 56.375 0  57.5520833333333 0.489583333333329  58.53125 1.46875  Z " fill-rule="nonzero" fill="#c4c6cf" stroke="none" transform="matrix(1 0 0 1 334 491 )" />
  </g>
</svg>