<?xml version="1.0" encoding="utf-8"?>
<svg version="1.1" xmlns:xlink="http://www.w3.org/1999/xlink" width="97px" height="29px" xmlns="http://www.w3.org/2000/svg">
  <defs>
    <mask fill="white" id="clip55">
      <path d="M 0 26.1  L 0 2.9  C 0 1.27599999999999  0.969999999999995 0  2.20454545454545 0  L 37.9181818181794 0  L 94.7954545454545 0  C 96.03 0  97 1.27599999999999  97 2.9  L 97 26.1  C 97 27.724  96.03 29  94.7954545454545 29  L 2.20454545454545 29  C 0.969999999999995 29  0 27.724  0 26.1  Z " fill-rule="evenodd" />
    </mask>
  </defs>
  <g transform="matrix(1 0 0 1 -976 -90 )">
    <path d="M 0 26.1  L 0 2.9  C 0 1.27599999999999  0.969999999999995 0  2.20454545454545 0  L 37.9181818181794 0  L 94.7954545454545 0  C 96.03 0  97 1.27599999999999  97 2.9  L 97 26.1  C 97 27.724  96.03 29  94.7954545454545 29  L 2.20454545454545 29  C 0.969999999999995 29  0 27.724  0 26.1  Z " fill-rule="nonzero" fill="#5584ff" stroke="none" transform="matrix(1 0 0 1 976 90 )" />
    <path d="M 0 26.1  L 0 2.9  C 0 1.27599999999999  0.969999999999995 0  2.20454545454545 0  L 37.9181818181794 0  L 94.7954545454545 0  C 96.03 0  97 1.27599999999999  97 2.9  L 97 26.1  C 97 27.724  96.03 29  94.7954545454545 29  L 2.20454545454545 29  C 0.969999999999995 29  0 27.724  0 26.1  Z " stroke-width="2" stroke="#3e86ff" fill="none" transform="matrix(1 0 0 1 976 90 )" mask="url(#clip55)" />
  </g>
</svg>