<?xml version="1.0" encoding="utf-8"?>
<svg version="1.1" xmlns:xlink="http://www.w3.org/1999/xlink" width="20px" height="20px" xmlns="http://www.w3.org/2000/svg">
  <g transform="matrix(1 0 0 1 -240 -203 )">
    <path d="M 250 203  C 255.6 203  260 207.4  260 213  C 260 218.6  255.6 223  250 223  C 244.4 223  240 218.6  240 213  C 240 207.4  244.4 203  250 203  Z " fill-rule="nonzero" fill="#ebeff7" stroke="none" fill-opacity="0" />
    <path d="M 250 203.5  C 255.32 203.5  259.5 207.68  259.5 213  C 259.5 218.32  255.32 222.5  250 222.5  C 244.68 222.5  240.5 218.32  240.5 213  C 240.5 207.68  244.68 203.5  250 203.5  Z " stroke-width="1" stroke="#3e86ff" fill="none" />
  </g>
</svg>