<?xml version="1.0" encoding="utf-8"?>
<svg version="1.1" xmlns:xlink="http://www.w3.org/1999/xlink" width="10px" height="13px" xmlns="http://www.w3.org/2000/svg">
  <g transform="matrix(1 0 0 1 -245 -207 )">
    <path d="M 4.07315340909091 12.630764904387  C 4.27911931818182 12.4820959880015  4.38210227272727 12.354143232096  4.38210227272727 12.2469066366704  C 4.38210227272727 12.1932883389576  4.35132575757576 12.0519310086239  4.28977272727273 11.8228346456693  C 4.2282196969697 11.5937382827147  4.15482954545455 11.3329583802025  4.06960227272727 11.0404949381327  C 3.984375 10.748031496063  3.93702651515152 10.5798650168729  3.92755681818182 10.5359955005624  C 3.92282196969697 10.5164979377578  3.91098484848485 10.4519122609674  3.89204545454545 10.3422384701912  C 3.87310606060606 10.2325646794151  3.85298295454545 10.1448256467941  3.83167613636364 10.0790213723285  C 3.81036931818182 10.0132170978628  3.77840909090909 9.96081739782527  3.73579545454545 9.92182227221597  C 3.66477272727273 9.8535808023997  3.54403409090909 9.81946006749156  3.37357954545455 9.81946006749156  C 3.26467803030303 9.81946006749156  3.09895833333333 9.83286464191976  2.87642045454545 9.85967379077615  C 2.65388257575758 9.88648293963255  2.48579545454545 9.89988751406074  2.37215909090909 9.89988751406074  C 2.21117424242424 9.89988751406074  2.0999053030303 9.87307836520435  2.03835227272727 9.81946006749156  C 2.00994318181818 9.79508811398575  1.98390151515152 9.75731158605174  1.96022727272727 9.70613048368954  C 1.93655303030303 9.65494938132733  1.91879734848485 9.60620547431571  1.90696022727273 9.55989876265467  C 1.89512310606061 9.51359205099363  1.87973484848485 9.45509936257968  1.86079545454545 9.38442069741282  C 1.84185606060606 9.31374203224597  1.83001893939394 9.26865391826022  1.82528409090909 9.24915635545557  C 1.6500946969697 8.62523434570678  1.5625 8.00374953130859  1.5625 7.38470191226097  C 1.5625 6.76565429321335  1.6500946969697 6.14416947881515  1.82528409090909 5.52024746906637  C 1.83001893939394 5.50074990626172  1.84185606060606 5.45566179227596  1.86079545454545 5.38498312710911  C 1.87973484848485 5.31430446194226  1.89512310606061 5.25581177352831  1.90696022727273 5.20950506186727  C 1.91879734848485 5.16319835020622  1.93655303030303 5.1144544431946  1.96022727272727 5.0632733408324  C 1.98390151515152 5.01209223847019  2.00994318181818 4.97431571053618  2.03835227272727 4.94994375703037  C 2.0999053030303 4.89632545931758  2.21117424242424 4.86951631046119  2.37215909090909 4.86951631046119  C 2.48579545454545 4.86951631046119  2.65388257575758 4.88292088488939  2.87642045454545 4.90973003374578  C 3.09895833333333 4.93653918260217  3.26467803030303 4.94994375703037  3.37357954545455 4.94994375703037  C 3.54403409090909 4.94994375703037  3.66477272727273 4.91582302212223  3.73579545454545 4.84758155230596  C 3.77840909090909 4.80858642669666  3.81036931818182 4.75618672665917  3.83167613636364 4.69038245219348  C 3.85298295454545 4.62457817772779  3.87310606060606 4.53683914510686  3.89204545454545 4.42716535433071  C 3.91098484848485 4.31749156355456  3.92282196969697 4.25290588676415  3.92755681818182 4.23340832395951  C 3.93702651515152 4.18953880764904  3.984375 4.02137232845894  4.06960227272727 3.7289088863892  C 4.15482954545455 3.43644544431946  4.2282196969697 3.17566554180727  4.28977272727273 2.94656917885264  C 4.35132575757576 2.71747281589801  4.38210227272727 2.5761154855643  4.38210227272727 2.52249718785152  C 4.38210227272727 2.41526059242595  4.27911931818182 2.28730783652043  4.07315340909091 2.13863892013498  C 3.8671875 1.98997000374953  3.68844696969697 1.88638920134983  3.53693181818182 1.82789651293588  C 3.44223484848485 1.78890138732658  3.33570075757576 1.76940382452194  3.21732954545455 1.76940382452194  C 3.0563446969697 1.76940382452194  2.82433712121212 1.8132733408324  2.52130681818182 1.90101237345332  C 2.25142045454545 1.98387701537308  2.02296401515152 2.08258342707162  1.8359375 2.19713160854893  C 1.64891098484849 2.31167979002625  1.48082386363636 2.4725346831646  1.33167613636364 2.679696287964  C 1.18252840909091 2.8868578927634  1.07362689393939 3.05746156730409  1.00497159090909 3.19150731158605  C 0.936316287878788 3.32555305586802  0.828598484848485 3.55586801649794  0.681818181818182 3.88245219347582  C 0.653409090909091 3.94094488188976  0.632102272727273 3.98725159355081  0.617897727272727 4.02137232845894  C 0.385890151515151 4.54293213348331  0.224905303030303 5.06936632920885  0.134943181818182 5.60067491563554  C 0.0449810606060606 6.13198350206224  0 6.72665916760405  0 7.38470191226097  C 0 8.04274465691788  0.0449810606060606 8.63742032245969  0.134943181818182 9.16872890888639  C 0.224905303030303 9.70003749531309  0.385890151515151 10.2264716910386  0.617897727272727 10.748031496063  C 0.883049242424243 11.3427071616048  1.07954545454545 11.7350956130484  1.20738636363636 11.9251968503937  C 1.50568181818182 12.3687664041995  1.92945075757576 12.6782902137233  2.47869318181818 12.8537682789651  L 2.52130681818182 12.8683914510686  C 2.82433712121212 12.9561304836895  3.0563446969697 13  3.21732954545455 13  C 3.33570075757576 13  3.44223484848485 12.9805024371954  3.53693181818182 12.9415073115861  C 3.68844696969697 12.8830146231721  3.8671875 12.7794338207724  4.07315340909091 12.630764904387  Z M 5.83096590909091 5.43250843644544  C 5.73153409090909 5.52512185976753  5.625 5.57142857142857  5.51136363636364 5.57142857142857  C 5.38825757575758 5.57142857142857  5.28172348484849 5.52512185976753  5.19176136363636 5.43250843644544  C 5.10179924242424 5.33989501312336  5.05681818181818 5.22900262467191  5.05681818181818 5.09983127109111  C 5.05681818181818 4.97065991751031  5.10179924242424 4.85976752905887  5.19176136363636 4.76715410573678  C 5.36695075757576 4.58680164979377  5.45454545454545 4.36745406824147  5.45454545454545 4.10911136107986  C 5.45454545454545 3.85564304461942  5.36695075757576 3.63385826771653  5.19176136363636 3.4437570303712  C 5.10179924242424 3.35114360704912  5.05681818181818 3.24146981627297  5.05681818181818 3.11473565804275  C 5.05681818181818 2.98800149981252  5.10179924242424 2.87832770903637  5.19176136363636 2.78571428571429  C 5.28172348484849 2.6931008623922  5.38825757575758 2.64679415073116  5.51136363636364 2.64679415073116  C 5.6344696969697 2.64679415073116  5.74100378787879 2.6931008623922  5.83096590909091 2.78571428571429  C 6.18607954545455 3.15129358830146  6.36363636363636 3.59242594675666  6.36363636363636 4.10911136107986  C 6.36363636363636 4.62579677540307  6.18607954545455 5.06692913385827  5.83096590909091 5.43250843644544  Z M 7.11647727272727 6.75590551181102  C 7.03125 6.84851893513311  6.92471590909091 6.89482564679415  6.796875 6.89482564679415  C 6.66903409090909 6.89482564679415  6.5625 6.84851893513311  6.47727272727273 6.75590551181102  C 6.38731060606061 6.66329208848894  6.34232954545455 6.55361829771279  6.34232954545455 6.42688413948256  C 6.34232954545455 6.30014998125234  6.38731060606061 6.19047619047619  6.47727272727273 6.09786276715411  C 7.00757575757576 5.5421822272216  7.27272727272727 4.87926509186352  7.27272727272727 4.10911136107986  C 7.27272727272727 3.33895763029621  7.00757575757576 2.67604049493813  6.47727272727273 2.12035995500562  C 6.38731060606061 2.02774653168354  6.34232954545455 1.91807274090739  6.34232954545455 1.79133858267717  C 6.34232954545455 1.66460442444694  6.38731060606061 1.55493063367079  6.47727272727273 1.46231721034871  C 6.56723484848485 1.36970378702662  6.67376893939394 1.32339707536558  6.796875 1.32339707536558  C 6.91998106060606 1.32339707536558  7.02651515151515 1.36970378702662  7.11647727272727 1.46231721034871  C 7.82670454545455 2.19347581552306  8.18181818181818 3.07574053243345  8.18181818181818 4.10911136107986  C 8.18181818181818 5.14248218972628  7.82670454545455 6.02474690663667  7.11647727272727 6.75590551181102  Z M 8.40198863636364 8.0793025871766  C 8.31676136363636 8.17191601049869  8.21022727272727 8.21822272215973  8.08238636363636 8.21822272215973  C 7.95454545454545 8.21822272215973  7.84801136363636 8.17191601049869  7.76278409090909 8.0793025871766  C 7.67282196969697 7.98668916385452  7.62784090909091 7.87701537307836  7.62784090909091 7.75028121484814  C 7.62784090909091 7.62354705661792  7.67282196969697 7.51387326584177  7.76278409090909 7.42125984251969  C 8.18892045454545 6.97769028871391  8.51680871212121 6.47075365579303  8.74644886363636 5.90044994375703  C 8.97608901515152 5.33014623172104  9.09090909090909 4.73303337082865  9.09090909090909 4.10911136107986  C 9.09090909090909 3.48518935133108  8.97608901515152 2.8880764904387  8.74644886363636 2.3177727784027  C 8.51680871212121 1.7474690663667  8.18892045454545 1.24053243344582  7.76278409090909 0.796962879640046  C 7.67282196969697 0.70434945631796  7.62784090909091 0.594675665541806  7.62784090909091 0.467941507311586  C 7.62784090909091 0.341207349081364  7.67282196969697 0.231533558305211  7.76278409090909 0.138920134983127  C 7.85274621212121 0.0463067116610419  7.9592803030303 0  8.08238636363636 0  C 8.20549242424243 0  8.31202651515152 0.0463067116610419  8.40198863636364 0.138920134983127  C 8.91808712121212 0.670228721409823  9.31344696969697 1.27709036370454  9.58806818181818 1.95950506186727  C 9.86268939393939 2.64191976003  10 3.35845519310086  10 4.10911136107986  C 10 4.85976752905887  9.86268939393939 5.57630296212973  9.58806818181818 6.25871766029246  C 9.31344696969697 6.94113235845519  8.91808712121212 7.5479940007499  8.40198863636364 8.0793025871766  Z " fill-rule="nonzero" fill="#3e86ff" stroke="none" transform="matrix(1 0 0 1 245 207 )" />
  </g>
</svg>