<?xml version="1.0" encoding="UTF-8"?>
<svg width="20px" height="20px" viewBox="0 0 20 20" version="1.1" xmlns="http://www.w3.org/2000/svg" xmlns:xlink="http://www.w3.org/1999/xlink">
    <!-- Generator: Sketch 54.1 (76490) - https://sketchapp.com -->
    <title>rep_icon_</title>
    <desc>Created with Sketch.</desc>
    <g id="rep_icon_" stroke="none" stroke-width="1" fill="none" fill-rule="evenodd">
        <g>
            <rect id="矩形" fill-opacity="0" fill="#D8D8D8" x="0" y="0" width="20" height="20"></rect>
            <path d="M6.79444109,15.9840665 C6.4739577,15.9840665 6.21438066,15.7244894 6.21438066,15.404006 L6.21438066,13.0315045 L4.43504532,13.0315045 C4.19430211,13.0315045 4,12.8372205 4,12.5964592 L4,8.14745015 C4,7.28457402 4.70044109,6.58415106 5.56322659,6.58415106 L6.21438066,6.58415106 L6.21438066,4.58006042 C6.21438066,4.25957704 6.4739577,4 6.79444109,4 L13.1896254,4 C13.5101088,4 13.7696858,4.25957704 13.7696858,4.58006042 L13.7696858,6.58415106 L14.4207674,6.58415106 C15.2836254,6.58415106 15.9840665,7.28457402 15.9840665,8.14745015 L15.9840665,12.5964592 C15.9840665,12.8372205 15.7896918,13.0315045 15.5490211,13.0315045 L13.7696858,13.0315045 L13.7696858,15.404006 C13.7696858,15.7244894 13.5101088,15.9840665 13.1896254,15.9840665 L6.79444109,15.9840665 Z M7.12652568,15.0719215 L12.8575408,15.0719215 L12.8575408,11.9250574 L7.12652568,11.9250574 L7.12652568,15.0719215 Z M15.0719215,12.119432 L15.0719215,8.14745015 C15.0719215,7.78781269 14.7804048,7.49629607 14.4207674,7.49629607 L5.56322659,7.49629607 C5.20358912,7.49629607 4.91214502,7.78781269 4.91214502,8.14745015 L4.91214502,12.119432 L6.21438066,12.119432 L6.21438066,11.0999396 C6.21438066,11.0520665 6.25353474,11.0129124 6.30140785,11.0129124 L13.6826586,11.0129124 C13.7305317,11.0129124 13.7696858,11.0520665 13.7696858,11.0999396 L13.7696858,12.119432 L15.0719215,12.119432 Z M7.12652568,6.58415106 L12.8575408,6.58415106 L12.8575408,4.91214502 L7.12652568,4.91214502 L7.12652568,6.58415106 Z M6.67116012,9.34092447 C6.42030211,9.34092447 6.21579456,9.13641692 6.21579456,8.88555891 C6.21579456,8.63468278 6.42030211,8.43017523 6.67116012,8.43017523 L9.99200604,8.43017523 C10.242864,8.43017523 10.4473716,8.63468278 10.4473716,8.88555891 C10.4473716,9.13641692 10.242864,9.34092447 9.99200604,9.34092447 L6.67116012,9.34092447 Z" id="Fill-1" fill="#FFFFFF"></path>
        </g>
    </g>
</svg>