<?xml version="1.0" encoding="UTF-8"?>
<svg width="20px" height="20px" viewBox="0 0 20 20" version="1.1" xmlns="http://www.w3.org/2000/svg" xmlns:xlink="http://www.w3.org/1999/xlink">
    <!-- Generator: Sketch 54.1 (76490) - https://sketchapp.com -->
    <title>rep_icon_download</title>
    <desc>Created with Sketch.</desc>
    <g id="rep_icon_download" stroke="none" stroke-width="1" fill="none" fill-rule="evenodd">
        <g>
            <rect id="矩形备份" fill-opacity="0" fill="#D8D8D8" x="0" y="0" width="20" height="20"></rect>
            <path d="M9.61306003,13.1685748 L6.49769506,10.0749795 C6.27740158,9.85621114 6.27740158,9.50177126 6.49769506,9.28300293 C6.71800036,9.06425806 7.07488313,9.06425806 7.2951648,9.28300293 L9.44783696,11.4206569 L9.44783696,4.56002346 C9.44783696,4.25081525 9.70042614,4 10.0118067,4 C10.3231637,4 10.5757646,4.25085044 10.5757646,4.56002346 L10.5757646,11.4205982 L12.7280234,9.28300293 C12.9483168,9.06425806 13.3052587,9.06425806 13.5255522,9.28300293 C13.7458457,9.50178299 13.7458457,9.85622287 13.5255522,10.0749795 L10.4105061,13.1685748 C10.3047596,13.273654 10.1612363,13.3326804 10.0118067,13.3326804 C9.86223389,13.3326589 9.71879751,13.2736272 9.61306003,13.1685748 Z M14.9597456,11.3516129 C14.9597456,11.065912 15.1921824,10.8351202 15.4798787,10.8351202 C15.7675513,10.8351202 16,11.065912 16,11.3516129 L16,14.9670147 C16,15.5367625 15.5335198,16 14.9597574,16 L5.04023082,16 C4.46648022,16 4,15.5367507 4,14.9670147 L4,11.3516129 C4,11.065912 4.23243685,10.8351202 4.52012132,10.8351202 C4.80780578,10.8351202 5.04023082,11.065912 5.04023082,11.3516129 L5.04023082,14.4505337 C5.04023082,14.7362111 5.27265586,14.9670147 5.56034032,14.9670147 L14.4396242,14.9670147 C14.7273205,14.9670147 14.9597456,14.7362111 14.9597456,14.4505337 L14.9597456,11.3516129 Z" id="button_icon_download" fill="#28344C" fill-rule="nonzero"></path>
        </g>
    </g>
</svg>