<?xml version="1.0" encoding="utf-8"?>
<svg version="1.1" xmlns:xlink="http://www.w3.org/1999/xlink" width="170px" height="36px" xmlns="http://www.w3.org/2000/svg">
  <g transform="matrix(1 0 0 1 -1748 -476 )">
    <path d="M 1749 480  A 3 3 0 0 1 1752 477 L 1914 477  A 3 3 0 0 1 1917 480 L 1917 508  A 3 3 0 0 1 1914 511 L 1752 511  A 3 3 0 0 1 1749 508 L 1749 480  Z " fill-rule="nonzero" fill="#ffffff" stroke="none" />
    <path d="M 1748.5 480  A 3.5 3.5 0 0 1 1752 476.5 L 1914 476.5  A 3.5 3.5 0 0 1 1917.5 480 L 1917.5 508  A 3.5 3.5 0 0 1 1914 511.5 L 1752 511.5  A 3.5 3.5 0 0 1 1748.5 508 L 1748.5 480  Z " stroke-width="1" stroke-dasharray="3,1" stroke="#3e86ff" fill="none" stroke-dashoffset="0.5" />
  </g>
</svg>