<?xml version="1.0" encoding="utf-8"?>
<svg version="1.1" xmlns:xlink="http://www.w3.org/1999/xlink" width="155px" height="36px" xmlns="http://www.w3.org/2000/svg">
  <g transform="matrix(1 0 0 1 -975 -222 )">
    <path d="M 976 226  A 3 3 0 0 1 979 223 L 1126 223  A 3 3 0 0 1 1129 226 L 1129 254  A 3 3 0 0 1 1126 257 L 979 257  A 3 3 0 0 1 976 254 L 976 226  Z " fill-rule="nonzero" fill="#ffffff" stroke="none" />
    <path d="M 975.5 226  A 3.5 3.5 0 0 1 979 222.5 L 1126 222.5  A 3.5 3.5 0 0 1 1129.5 226 L 1129.5 254  A 3.5 3.5 0 0 1 1126 257.5 L 979 257.5  A 3.5 3.5 0 0 1 975.5 254 L 975.5 226  Z " stroke-width="1" stroke-dasharray="3,1" stroke="#3e86ff" fill="none" stroke-dashoffset="0.5" />
  </g>
</svg>