<?xml version="1.0" encoding="utf-8"?>
<svg version="1.1" xmlns:xlink="http://www.w3.org/1999/xlink" width="100px" height="32px" xmlns="http://www.w3.org/2000/svg">
  <defs>
    <mask fill="white" id="clip2">
      <path d="M 0 28  L 0 4  C 0 1.76  1.75999999999999 0  4 0  L 57.4117647058859 0  L 96 0  C 98.24 0  100 1.76  100 4  L 100 28  C 100 30.24  98.24 32  96 32  L 4 32  C 1.75999999999999 32  0 30.24  0 28  Z " fill-rule="evenodd" />
    </mask>
  </defs>
  <g transform="matrix(1 0 0 1 -1100 -22 )">
    <path d="M 0 28  L 0 4  C 0 1.76  1.75999999999999 0  4 0  L 57.4117647058859 0  L 96 0  C 98.24 0  100 1.76  100 4  L 100 28  C 100 30.24  98.24 32  96 32  L 4 32  C 1.75999999999999 32  0 30.24  0 28  Z " fill-rule="nonzero" fill="#3e86ff" stroke="none" transform="matrix(1 0 0 1 1100 22 )" />
    <path d="M 0 28  L 0 4  C 0 1.76  1.75999999999999 0  4 0  L 57.4117647058859 0  L 96 0  C 98.24 0  100 1.76  100 4  L 100 28  C 100 30.24  98.24 32  96 32  L 4 32  C 1.75999999999999 32  0 30.24  0 28  Z " stroke-width="2" stroke="#3e86ff" fill="none" transform="matrix(1 0 0 1 1100 22 )" mask="url(#clip2)" />
  </g>
</svg>