<?xml version="1.0" encoding="utf-8"?>
<svg version="1.1" xmlns:xlink="http://www.w3.org/1999/xlink" width="104px" height="20px" xmlns="http://www.w3.org/2000/svg">
  <g transform="matrix(1 0 0 1 -1790 -1181 )">
    <path d="M 1791 1185  A 3 3 0 0 1 1794 1182 L 1890 1182  A 3 3 0 0 1 1893 1185 L 1893 1197  A 3 3 0 0 1 1890 1200 L 1794 1200  A 3 3 0 0 1 1791 1197 L 1791 1185  Z " fill-rule="nonzero" fill="#f5f5f5" stroke="none" fill-opacity="0" />
    <path d="M 1790.5 1185  A 3.5 3.5 0 0 1 1794 1181.5 L 1890 1181.5  A 3.5 3.5 0 0 1 1893.5 1185 L 1893.5 1197  A 3.5 3.5 0 0 1 1890 1200.5 L 1794 1200.5  A 3.5 3.5 0 0 1 1790.5 1197 L 1790.5 1185  Z " stroke-width="1" stroke-dasharray="3,1" stroke="#d9d9d9" fill="none" stroke-dashoffset="0.5" />
  </g>
</svg>