<?xml version="1.0" encoding="utf-8"?>
<svg version="1.1" xmlns:xlink="http://www.w3.org/1999/xlink" width="16px" height="14px" xmlns="http://www.w3.org/2000/svg">
  <g transform="matrix(1 0 0 1 -368 -226 )">
    <path d="M 4.3359375 3.89868105515588  C 4.46614583333333 3.76159072741806  4.53125 3.57833733013589  4.53125 3.34892086330935  C 4.53125 3.11950439648281  4.46614583333333 2.93485211830536  4.3359375 2.79496402877698  C 4.20572916666667 2.6550759392486  4.03385416666667 2.58513189448441  3.8203125 2.58513189448441  C 3.59635416666667 2.58513189448441  3.3984375 2.65647482014389  3.2265625 2.79916067146283  C 3.0546875 2.94184652278178  2.96875 3.12509992006395  2.96875 3.34892086330935  C 2.96875 3.56714628297362  3.0546875 3.74760191846523  3.2265625 3.89028776978417  C 3.3984375 4.03297362110312  3.59635416666667 4.10431654676259  3.8203125 4.10431654676259  C 4.03385416666667 4.10431654676259  4.20572916666667 4.03577138289368  4.3359375 3.89868105515588  Z M 10.13671875 8.03237410071942  C 10.26953125 7.90927258193445  10.3359375 7.76658673061551  10.3359375 7.60431654676259  C 10.3359375 7.44764188649081  10.26953125 7.30775379696243  10.13671875 7.18465227817746  C 10.00390625 7.06155075939249  9.83333333333333 7  9.625 7  C 9.484375 7  9.35546875 7.06294964028777  9.23828125 7.18884892086331  C 9.12109375 7.31474820143885  9.0625 7.45323741007194  9.0625 7.60431654676259  C 9.0625 7.76099120703437  9.12109375 7.90227817745803  9.23828125 8.02817745803357  C 9.35546875 8.15407673860911  9.484375 8.21702637889688  9.625 8.21702637889688  C 9.83333333333333 8.21702637889688  10.00390625 8.1554756195044  10.13671875 8.03237410071942  Z M 8.30078125 3.89868105515588  C 8.42838541666667 3.76159072741806  8.4921875 3.57833733013589  8.4921875 3.34892086330935  C 8.4921875 3.11950439648281  8.42838541666667 2.93485211830536  8.30078125 2.79496402877698  C 8.17317708333333 2.6550759392486  8.00260416666667 2.58513189448441  7.7890625 2.58513189448441  C 7.56510416666667 2.58513189448441  7.3671875 2.65647482014389  7.1953125 2.79916067146283  C 7.0234375 2.94184652278178  6.9375 3.12509992006395  6.9375 3.34892086330935  C 6.9375 3.56714628297362  7.0234375 3.74760191846523  7.1953125 3.89028776978417  C 7.3671875 4.03297362110312  7.56510416666667 4.10431654676259  7.7890625 4.10431654676259  C 8.00260416666667 4.10431654676259  8.17317708333333 4.03577138289368  8.30078125 3.89868105515588  Z M 13.25 8.03237410071942  C 13.3854166666667 7.90927258193445  13.453125 7.76658673061551  13.453125 7.60431654676259  C 13.453125 7.44764188649081  13.3854166666667 7.30775379696243  13.25 7.18465227817746  C 13.1145833333333 7.06155075939249  12.9453125 7  12.7421875 7  C 12.6015625 7  12.47265625 7.06294964028777  12.35546875 7.18884892086331  C 12.23828125 7.31474820143885  12.1796875 7.45323741007194  12.1796875 7.60431654676259  C 12.1796875 7.76099120703437  12.23828125 7.90227817745803  12.35546875 8.02817745803357  C 12.47265625 8.15407673860911  12.6015625 8.21702637889688  12.7421875 8.21702637889688  C 12.9453125 8.21702637889688  13.1145833333333 8.1554756195044  13.25 8.03237410071942  Z M 10.30859375 2.08573141486811  C 10.8580729166667 2.73760991207034  11.2135416666667 3.46642685851319  11.375 4.27218225419664  C 11.2135416666667 4.2498001598721  11.03125 4.23860911270983  10.828125 4.23860911270983  C 9.94791666666667 4.23860911270983  9.13802083333333 4.45403677058353  8.3984375 4.88489208633094  C 7.65885416666667 5.31574740207834  7.07682291666667 5.89908073541167  6.65234375 6.63489208633094  C 6.22786458333333 7.3707034372502  6.015625 8.17505995203837  6.015625 9.04796163069544  C 6.015625 9.48441247002398  6.07552083333333 9.90967226219025  6.1953125 10.3237410071942  C 6.01302083333333 10.3405275779377  5.8359375 10.3489208633094  5.6640625 10.3489208633094  C 5.52864583333333 10.3489208633094  5.3984375 10.3447242206235  5.2734375 10.3363309352518  C 5.1484375 10.3279376498801  5.00520833333333 10.3097521982414  4.84375 10.2817745803357  C 4.68229166666667 10.2537969624301  4.56640625 10.2342126298961  4.49609375 10.2230215827338  C 4.42578125 10.2118305355715  4.28385416666667 10.1824540367706  4.0703125 10.1348920863309  C 3.85677083333333 10.0873301358913  3.7265625 10.0579536370903  3.6796875 10.0467625899281  L 1.703125 11.1127098321343  L 2.265625 9.28297362110312  C 0.755208333333333 8.14708233413269  0 6.7761790567546  0 5.17026378896883  C 0 4.22462030375699  0.25390625 3.35451638689049  0.76171875 2.5599520383693  C 1.26953125 1.76538768984812  1.95703125 1.14008792965627  2.82421875 0.684052757793765  C 3.69140625 0.228017585931254  4.63802083333333 0  5.6640625 0  C 6.58072916666667 0  7.44661458333333 0.184652278177458  8.26171875 0.553956834532374  C 9.07682291666667 0.923261390887291  9.75911458333333 1.43385291766587  10.30859375 2.08573141486811  Z M 15.33203125 6.76918465227818  C 15.77734375 7.44904076738609  16 8.18625099920064  16 8.98081534772182  C 16 9.63549160671463  15.8216145833333 10.2607913669065  15.46484375 10.8567146282974  C 15.1080729166667 11.4526378896882  14.625 11.9940047961631  14.015625 12.4808153477218  L 14.4453125 14  L 12.890625 13.0851318944844  C 12.109375 13.2921662669864  11.5416666666667 13.3956834532374  11.1875 13.3956834532374  C 10.3072916666667 13.3956834532374  9.49739583333333 13.1984412470024  8.7578125 12.8039568345324  C 8.01822916666667 12.4094724220624  7.43619791666667 11.8737010391687  7.01171875 11.1966426858513  C 6.58723958333333 10.519584332534  6.375 9.78097521982414  6.375 8.98081534772182  C 6.375 8.1806554756195  6.58723958333333 7.44204636290967  7.01171875 6.76498800959233  C 7.43619791666667 6.08792965627498  8.01822916666667 5.55215827338129  8.7578125 5.15767386091127  C 9.49739583333333 4.76318944844125  10.3072916666667 4.56594724220624  11.1875 4.56594724220624  C 12.0260416666667 4.56594724220624  12.8151041666667 4.76318944844125  13.5546875 5.15767386091127  C 14.2942708333333 5.55215827338129  14.88671875 6.08932853717026  15.33203125 6.76918465227818  Z " fill-rule="nonzero" fill="#ffffff" stroke="none" transform="matrix(1 0 0 1 368 226 )" />
  </g>
</svg>