<?xml version="1.0" encoding="utf-8"?>
<svg version="1.1" xmlns:xlink="http://www.w3.org/1999/xlink" width="25px" height="27px" xmlns="http://www.w3.org/2000/svg">
  <g transform="matrix(1 0 0 1 -1191 -291 )">
    <path d="M 8.93110795454546 10.283203125  C 9.03764204545455 10.388671875  9.09090909090909 10.5234375  9 10.6875  L 9 20.8125  C 9.09090909090909 20.9765625  9.03764204545455 21.111328125  8.93110795454546 21.216796875  C 8.82457386363636 21.322265625  8.68844696969697 21.375  8.52272727272727 21.375  L 7.38636363636364 21.375  C 7.22064393939394 21.375  7.08451704545455 21.322265625  6.97798295454545 21.216796875  C 6.87144886363636 21.111328125  6.81818181818182 20.9765625  7 20.8125  L 7 10.6875  C 6.81818181818182 10.5234375  6.87144886363636 10.388671875  6.97798295454545 10.283203125  C 7.08451704545455 10.177734375  7.22064393939394 10.125  7.38636363636364 10.125  L 8.52272727272727 10.125  C 8.68844696969697 10.125  8.82457386363636 10.177734375  8.93110795454546 10.283203125  Z M 13.4765625 10.283203125  C 13.5830965909091 10.388671875  13.6363636363636 10.5234375  13.6363636363636 10.6875  L 13.6363636363636 20.8125  C 13.6363636363636 20.9765625  13.5830965909091 21.111328125  13.4765625 21.216796875  C 13.3700284090909 21.322265625  13.2339015151515 21.375  13.0681818181818 21.375  L 11.9318181818182 21.375  C 11.7660984848485 21.375  11.6299715909091 21.322265625  11.5234375 21.216796875  C 11.4169034090909 21.111328125  11.3636363636364 20.9765625  11.3636363636364 20.8125  L 11.3636363636364 10.6875  C 11.3636363636364 10.5234375  11.4169034090909 10.388671875  11.5234375 10.283203125  C 11.6299715909091 10.177734375  11.7660984848485 10.125  11.9318181818182 10.125  L 13.0681818181818 10.125  C 13.2339015151515 10.125  13.3700284090909 10.177734375  13.4765625 10.283203125  Z M 18.0220170454545 10.283203125  C 18.1285511363636 10.388671875  18.1818181818182 10.5234375  18 10.6875  L 18 20.8125  C 18.1818181818182 20.9765625  18.1285511363636 21.111328125  18.0220170454545 21.216796875  C 17.9154829545455 21.322265625  17.7793560606061 21.375  17.6136363636364 21.375  L 16.4772727272727 21.375  C 16.311553030303 21.375  16.1754261363636 21.322265625  16.0688920454545 21.216796875  C 15.9623579545455 21.111328125  15.9090909090909 20.9765625  16 20.8125  L 16 10.6875  C 15.9090909090909 10.5234375  15.9623579545455 10.388671875  16.0688920454545 10.283203125  C 16.1754261363636 10.177734375  16.311553030303 10.125  16.4772727272727 10.125  L 17.6136363636364 10.125  C 17.7793560606061 10.125  17.9154829545455 10.177734375  18.0220170454545 10.283203125  Z M 20.3302556818182 24.1259765625  C 20.413115530303 23.9091796875  20.4545454545455 23.671875  20 23.4140625  L 20 7  L 5 7  L 5 23.4140625  C 4.54545454545455 23.671875  4.58688446969697 23.9091796875  4.66974431818182 24.1259765625  C 4.75260416666667 24.3427734375  4.83842329545455 24.5009765625  4.92720170454545 24.6005859375  C 5.01598011363636 24.7001953125  5.078125 24.75  5.11363636363636 24.75  L 19.8863636363636 24.75  C 19.921875 24.75  19.9840198863636 24.7001953125  20.0727982954545 24.6005859375  C 20.1615767045455 24.5009765625  20.2473958333333 24.3427734375  20.3302556818182 24.1259765625  Z M 9.39275568181818 2.443359375  L 8.52272727272727 4.5  L 16.4772727272727 4.5  L 15.625 2.443359375  C 15.5421401515152 2.337890625  15.4415246212121 2.2734375  15.3231534090909 2.25  L 9.69460227272727 2.25  C 9.57623106060606 2.2734375  9.47561553030303 2.337890625  9.39275568181818 2.443359375  Z M 24.8401988636364 4.658203125  C 24.9467329545455 4.763671875  25 4.8984375  25 5.0625  L 25 6.1875  C 25 6.3515625  24.9467329545455 6.486328125  24.8401988636364 6.591796875  C 24.7336647727273 6.697265625  24.5975378787879 6.75  24.4318181818182 6.75  L 22.7272727272727 6.75  L 22.7272727272727 23.4140625  C 22.7272727272727 24.38671875  22.4491003787879 25.2275390625  21.8927556818182 25.9365234375  C 21.3364109848485 26.6455078125  20.6676136363636 27  19.8863636363636 27  L 5.11363636363636 27  C 4.33238636363636 27  3.66358901515152 26.6572265625  3.10724431818182 25.9716796875  C 2.55089962121212 25.2861328125  2.27272727272727 24.45703125  2.27272727272727 23.484375  L 2.27272727272727 6.75  L 0.568181818181818 6.75  C 0.402462121212121 6.75  0.266335227272727 6.697265625  0.159801136363636 6.591796875  C 0.0532670454545454 6.486328125  0 6.3515625  0 6.1875  L 0 5.0625  C 0 4.8984375  0.0532670454545454 4.763671875  0.159801136363636 4.658203125  C 0.266335227272727 4.552734375  0.402462121212121 4.5  0.568181818181818 4.5  L 6.0546875 4.5  L 7.29758522727273 1.564453125  C 7.47514204545455 1.130859375  7.79474431818182 0.761718749999998  8.25639204545455 0.457031250000001  C 8.71803977272727 0.152343749999998  9.18560606060606 0  9.65909090909091 0  L 15.3409090909091 0  C 15.8143939393939 0  16.2819602272727 0.152343749999998  16.7436079545455 0.457031250000001  C 17.2052556818182 0.761718749999998  17.5248579545455 1.130859375  17.7024147727273 1.564453125  L 18.9453125 4.5  L 24.4318181818182 4.5  C 24.5975378787879 4.5  24.7336647727273 4.552734375  24.8401988636364 4.658203125  Z " fill-rule="nonzero" fill="#7f7f7f" stroke="none" transform="matrix(1 0 0 1 1191 291 )" />
  </g>
</svg>