<?xml version="1.0" encoding="utf-8"?>
<svg version="1.1" xmlns:xlink="http://www.w3.org/1999/xlink" width="80px" height="20px" xmlns="http://www.w3.org/2000/svg">
  <g transform="matrix(1 0 0 1 -1814 -2053 )">
    <path d="M 1815 2057  A 3 3 0 0 1 1818 2054 L 1890 2054  A 3 3 0 0 1 1893 2057 L 1893 2069  A 3 3 0 0 1 1890 2072 L 1818 2072  A 3 3 0 0 1 1815 2069 L 1815 2057  Z " fill-rule="nonzero" fill="#f5f5f5" stroke="none" fill-opacity="0" />
    <path d="M 1814.5 2057  A 3.5 3.5 0 0 1 1818 2053.5 L 1890 2053.5  A 3.5 3.5 0 0 1 1893.5 2057 L 1893.5 2069  A 3.5 3.5 0 0 1 1890 2072.5 L 1818 2072.5  A 3.5 3.5 0 0 1 1814.5 2069 L 1814.5 2057  Z " stroke-width="1" stroke-dasharray="3,1" stroke="#d9d9d9" fill="none" stroke-dashoffset="0.5" />
  </g>
</svg>