<?xml version="1.0" encoding="utf-8"?>
<svg version="1.1" xmlns:xlink="http://www.w3.org/1999/xlink" width="10px" height="10px" xmlns="http://www.w3.org/2000/svg">
  <g transform="matrix(1 0 0 1 -1387 -2295 )">
    <path d="M 1392 2296  C 1394.24 2296  1396 2297.76  1396 2300  C 1396 2302.24  1394.24 2304  1392 2304  C 1389.76 2304  1388 2302.24  1388 2300  C 1388 2297.76  1389.76 2296  1392 2296  Z " fill-rule="nonzero" fill="#ffffff" stroke="none" />
    <path d="M 1392 2296  C 1394.24 2296  1396 2297.76  1396 2300  C 1396 2302.24  1394.24 2304  1392 2304  C 1389.76 2304  1388 2302.24  1388 2300  C 1388 2297.76  1389.76 2296  1392 2296  Z " stroke-width="2" stroke="#f5222d" fill="none" />
  </g>
</svg>