<?xml version="1.0" encoding="utf-8"?>
<svg version="1.1" xmlns:xlink="http://www.w3.org/1999/xlink" width="10px" height="10px" xmlns="http://www.w3.org/2000/svg">
  <g transform="matrix(1 0 0 1 -1386 -2207 )">
    <path d="M 1391 2208  C 1393.24 2208  1395 2209.76  1395 2212  C 1395 2214.24  1393.24 2216  1391 2216  C 1388.76 2216  1387 2214.24  1387 2212  C 1387 2209.76  1388.76 2208  1391 2208  Z " fill-rule="nonzero" fill="#ffffff" stroke="none" />
    <path d="M 1391 2208  C 1393.24 2208  1395 2209.76  1395 2212  C 1395 2214.24  1393.24 2216  1391 2216  C 1388.76 2216  1387 2214.24  1387 2212  C 1387 2209.76  1388.76 2208  1391 2208  Z " stroke-width="2" stroke="#52c41a" fill="none" />
  </g>
</svg>