<?xml version="1.0" encoding="utf-8"?>
<svg version="1.1" xmlns:xlink="http://www.w3.org/1999/xlink" width="10px" height="10px" xmlns="http://www.w3.org/2000/svg">
  <g transform="matrix(1 0 0 1 -1387 -2367 )">
    <path d="M 1392 2368  C 1394.24 2368  1396 2369.76  1396 2372  C 1396 2374.24  1394.24 2376  1392 2376  C 1389.76 2376  1388 2374.24  1388 2372  C 1388 2369.76  1389.76 2368  1392 2368  Z " fill-rule="nonzero" fill="#ffffff" stroke="none" />
    <path d="M 1392 2368  C 1394.24 2368  1396 2369.76  1396 2372  C 1396 2374.24  1394.24 2376  1392 2376  C 1389.76 2376  1388 2374.24  1388 2372  C 1388 2369.76  1389.76 2368  1392 2368  Z " stroke-width="2" stroke="#aaaaaa" fill="none" />
  </g>
</svg>