<?xml version="1.0" encoding="utf-8"?>
<svg version="1.1" xmlns:xlink="http://www.w3.org/1999/xlink" width="25px" height="27px" xmlns="http://www.w3.org/2000/svg">
  <g transform="matrix(1 0 0 1 -810 -291 )">
    <path d="M 17.1724759615385 16.5284598214286  C 17.2626201923077 16.6188616071429  17.3076923076923 16.734375  17.3076923076923 16.875  L 17.3076923076923 17.8392857142857  C 17.3076923076923 17.9799107142857  17.2626201923077 18.0954241071429  17.1724759615385 18.1858258928571  C 17.0823317307692 18.2762276785714  16.9671474358974 18.3214285714286  16.8269230769231 18.3214285714286  L 8.17307692307692 18.3214285714286  C 8.03285256410256 18.3214285714286  7.91766826923077 18.2762276785714  7.82752403846154 18.1858258928571  C 7.73737980769231 18.0954241071429  7.69230769230769 17.9799107142857  7.69230769230769 17.8392857142857  L 7.69230769230769 16.875  C 7.69230769230769 16.734375  7.73737980769231 16.6188616071429  7.82752403846154 16.5284598214286  C 7.91766826923077 16.4380580357143  8.03285256410256 16.3928571428571  8.17307692307692 16.3928571428571  L 16.8269230769231 16.3928571428571  C 16.9671474358974 16.3928571428571  17.0823317307692 16.4380580357143  17.1724759615385 16.5284598214286  Z M 2 10  L 2 25  L 23 25  L 23 10  L 2 10  Z M 7.55709134615385 7.09654017857143  C 7.64723557692308 7.00613839285714  7.69230769230769 6.890625  7.69230769230769 6.75  L 7.69230769230769 2.41071428571429  C 7.69230769230769 2.27008928571428  7.64723557692308 2.15457589285714  7.55709134615385 2.06417410714286  C 7.46694711538462 1.97377232142857  7.35176282051282 1.92857142857143  7.21153846153846 1.92857142857143  L 6.25 1.92857142857143  C 6.10977564102564 1.92857142857143  5.99459134615385 1.97377232142857  5.90444711538462 2.06417410714286  C 5.81430288461539 2.15457589285714  5.76923076923077 2.27008928571428  5.76923076923077 2.41071428571429  L 5.76923076923077 6.75  C 5.76923076923077 6.890625  5.81430288461539 7.00613839285714  5.90444711538462 7.09654017857143  C 5.99459134615385 7.18694196428571  6.10977564102564 7.23214285714286  6.25 7.23214285714286  L 7.21153846153846 7.23214285714286  C 7.35176282051282 7.23214285714286  7.46694711538462 7.18694196428571  7.55709134615385 7.09654017857143  Z M 19.0955528846154 7.09654017857143  C 19.1856971153846 7.00613839285714  19.2307692307692 6.890625  19.2307692307692 6.75  L 19.2307692307692 2.41071428571429  C 19.2307692307692 2.27008928571428  19.1856971153846 2.15457589285714  19.0955528846154 2.06417410714286  C 19.0054086538462 1.97377232142857  18.8902243589744 1.92857142857143  18.75 1.92857142857143  L 17.7884615384615 1.92857142857143  C 17.6482371794872 1.92857142857143  17.5330528846154 1.97377232142857  17.4429086538462 2.06417410714286  C 17.3527644230769 2.15457589285714  17.3076923076923 2.27008928571428  17.3076923076923 2.41071428571429  L 17.3076923076923 6.75  C 17.3076923076923 6.890625  17.3527644230769 7.00613839285714  17.4429086538462 7.09654017857143  C 17.5330528846154 7.18694196428571  17.6482371794872 7.23214285714286  17.7884615384615 7.23214285714286  L 18.75 7.23214285714286  C 18.8902243589744 7.23214285714286  19.0054086538462 7.18694196428571  19.0955528846154 7.09654017857143  Z M 24.4290865384615 4.4296875  C 24.8096955128205 4.81138392857143  25 5.26339285714286  25 5.78571428571429  L 25 25.0714285714286  C 25 25.59375  24.8096955128205 26.0457589285714  24.4290865384615 26.4274553571429  C 24.0484775641026 26.8091517857143  23.5977564102564 27  23.0769230769231 27  L 1.92307692307692 27  C 1.40224358974359 27  0.951522435897436 26.8091517857143  0.570913461538461 26.4274553571429  C 0.190304487179487 26.0457589285714  0 25.59375  0 25.0714285714286  L 0 5.78571428571429  C 0 5.26339285714286  0.190304487179487 4.81138392857143  0.570913461538461 4.4296875  C 0.951522435897436 4.04799107142857  1.40224358974359 3.85714285714286  1.92307692307692 3.85714285714286  L 3.84615384615385 3.85714285714286  L 3.84615384615385 2.41071428571429  C 3.84615384615385 1.74776785714286  4.08153044871795 1.18024553571428  4.55228365384615 0.708147321428572  C 5.02303685897436 0.236049107142857  5.58894230769231 0  6.25 0  L 7.21153846153846 0  C 7.87259615384615 0  8.4385016025641 0.236049107142857  8.90925480769231 0.708147321428572  C 9.38000801282051 1.18024553571428  9.61538461538462 1.74776785714286  9.61538461538462 2.41071428571429  L 9.61538461538462 3.85714285714286  L 15.3846153846154 3.85714285714286  L 15.3846153846154 2.41071428571429  C 15.3846153846154 1.74776785714286  15.6199919871795 1.18024553571428  16.0907451923077 0.708147321428572  C 16.5614983974359 0.236049107142857  17.1274038461538 0  17.7884615384615 0  L 18.75 0  C 19.4110576923077 0  19.9769631410256 0.236049107142857  20.4477163461538 0.708147321428572  C 20.9184695512821 1.18024553571428  21.1538461538462 1.74776785714286  21.1538461538462 2.41071428571429  L 21.1538461538462 3.85714285714286  L 23.0769230769231 3.85714285714286  C 23.5977564102564 3.85714285714286  24.0484775641026 4.04799107142857  24.4290865384615 4.4296875  Z " fill-rule="nonzero" fill="#ffffff" stroke="none" transform="matrix(1 0 0 1 810 291 )" />
  </g>
</svg>