<?xml version="1.0" encoding="utf-8"?>
<svg version="1.1" xmlns:xlink="http://www.w3.org/1999/xlink" width="21px" height="18px" xmlns="http://www.w3.org/2000/svg">
  <g transform="matrix(1 0 0 1 -322 -527 )">
    <path d="M 11.015625 17.7890625  C 10.875 17.9296875  10.703125 18  10.5 18  C 10.296875 18  10.125 17.9296875  9.984375 17.7890625  L 2.671875 10.734375  C 2.59375 10.671875  2.486328125 10.5703125  2.349609375 10.4296875  C 2.212890625 10.2890625  1.99609375 10.033203125  1.69921875 9.662109375  C 1.40234375 9.291015625  1.13671875 8.91015625  0.90234375 8.51953125  C 0.66796875 8.12890625  0.458984375 7.65625  0.275390625 7.1015625  C 0.091796875 6.546875  0 6.0078125  0 5.484375  C 0 3.765625  0.49609375 2.421875  1.48828125 1.453125  C 2.48046875 0.484375  3.8515625 0  5.6015625 0  C 6.0859375 0  6.580078125 0.0839843749999989  7.083984375 0.251953125000001  C 7.587890625 0.419921874999998  8.056640625 0.646484374999999  8.490234375 0.931640625  C 8.923828125 1.216796875  9.296875 1.484375  9.609375 1.734375  C 9.921875 1.984375  10.21875 2.25  10.5 2.53125  C 10.78125 2.25  11.078125 1.984375  11.390625 1.734375  C 11.703125 1.484375  12.076171875 1.216796875  12.509765625 0.931640625  C 12.943359375 0.646484374999999  13.412109375 0.419921874999998  13.916015625 0.251953125000001  C 14.419921875 0.0839843749999989  14.9140625 0  15.3984375 0  C 17.1484375 0  18.51953125 0.484375  19.51171875 1.453125  C 20.50390625 2.421875  21 3.765625  21 5.484375  C 21 7.2109375  20.10546875 8.96875  18.31640625 10.7578125  L 11.015625 17.7890625  Z " fill-rule="nonzero" fill="#555555" stroke="none" transform="matrix(1 0 0 1 322 527 )" />
  </g>
</svg>