<?xml version="1.0" encoding="utf-8"?>
<svg version="1.1" xmlns:xlink="http://www.w3.org/1999/xlink" width="18px" height="17px" xmlns="http://www.w3.org/2000/svg">
  <g transform="matrix(1 0 0 1 -323 -628 )">
    <path d="M 4.8 6.07142857142857  C 4.8 6.95052083333333  5.053125 7.76004464285714  5.559375 8.5  C 4.546875 8.53162202380952  3.71875 8.93638392857143  3.075 9.71428571428571  L 1.81875 9.71428571428571  C 1.30625 9.71428571428571  0.875 9.58621651785714  0.525 9.330078125  C 0.175 9.07393973214286  0 8.69921875  0 8.20591517857143  C 0 5.97340029761905  0.3875 4.85714285714286  1.1625 4.85714285714286  C 1.2 4.85714285714286  1.3359375 4.92354910714286  1.5703125 5.05636160714286  C 1.8046875 5.18917410714286  2.109375 5.32356770833333  2.484375 5.45954241071429  C 2.859375 5.59551711309524  3.23125 5.66350446428571  3.6 5.66350446428571  C 4.01875 5.66350446428571  4.434375 5.59077380952381  4.846875 5.4453125  C 4.815625 5.67931547619047  4.8 5.88802083333333  4.8 6.07142857142857  Z M 15.5671875 13.5611049107143  C 15.5890625 13.8804873511905  15.6 14.207775297619  15.6 14.54296875  C 15.6 15.3018973214286  15.371875 15.901134672619  14.915625 16.3406808035714  C 14.459375 16.7802269345238  13.853125 17  13.096875 17  L 4.903125 17  C 4.146875 17  3.540625 16.7802269345238  3.084375 16.3406808035714  C 2.628125 15.901134672619  2.4 15.3018973214286  2.4 14.54296875  C 2.4 14.207775297619  2.4109375 13.8804873511905  2.4328125 13.5611049107143  C 2.4546875 13.2417224702381  2.4984375 12.8970424107143  2.5640625 12.5270647321429  C 2.6296875 12.1570870535714  2.7125 11.8139880952381  2.8125 11.4977678571429  C 2.9125 11.1815476190476  3.046875 10.8732328869048  3.215625 10.5728236607143  C 3.384375 10.2724144345238  3.578125 10.0162760416667  3.796875 9.80440848214286  C 4.015625 9.59254092261905  4.2828125 9.42336309523809  4.5984375 9.296875  C 4.9140625 9.1703869047619  5.2625 9.10714285714286  5.64375 9.10714285714286  C 5.70625 9.10714285714286  5.840625 9.17513020833333  6.046875 9.31110491071429  C 6.253125 9.44707961309524  6.48125 9.59886532738095  6.73125 9.76646205357143  C 6.98125 9.9340587797619  7.315625 10.0858444940476  7.734375 10.2218191964286  C 8.153125 10.3577938988095  8.575 10.42578125  9 10.42578125  C 9.425 10.42578125  9.846875 10.3577938988095  10.265625 10.2218191964286  C 10.684375 10.0858444940476  11.01875 9.9340587797619  11.26875 9.76646205357143  C 11.51875 9.59886532738095  11.746875 9.44707961309524  11.953125 9.31110491071429  C 12.159375 9.17513020833333  12.29375 9.10714285714286  12.35625 9.10714285714286  C 12.7375 9.10714285714286  13.0859375 9.1703869047619  13.4015625 9.296875  C 13.7171875 9.42336309523809  13.984375 9.59254092261905  14.203125 9.80440848214286  C 14.421875 10.0162760416667  14.615625 10.2724144345238  14.784375 10.5728236607143  C 14.953125 10.8732328869048  15.0875 11.1815476190476  15.1875 11.4977678571429  C 15.2875 11.8139880952381  15.3703125 12.1570870535714  15.4359375 12.5270647321429  C 15.5015625 12.8970424107143  15.5453125 13.2417224702381  15.5671875 13.5611049107143  Z M 5.296875 0.711495535714286  C 5.765625 1.18582589285714  6 1.75818452380952  6 2.42857142857143  C 6 3.09895833333333  5.765625 3.67131696428571  5.296875 4.14564732142857  C 4.828125 4.61997767857143  4.2625 4.85714285714286  3.6 4.85714285714286  C 2.9375 4.85714285714286  2.371875 4.61997767857143  1.903125 4.14564732142857  C 1.434375 3.67131696428571  1.2 3.09895833333333  1.2 2.42857142857143  C 1.2 1.75818452380952  1.434375 1.18582589285714  1.903125 0.711495535714286  C 2.371875 0.237165178571429  2.9375 0  3.6 0  C 4.2625 0  4.828125 0.237165178571429  5.296875 0.711495535714286  Z M 11.5453125 3.49581473214286  C 12.2484375 4.20731026785714  12.6 5.06584821428571  12.6 6.07142857142857  C 12.6 7.07700892857143  12.2484375 7.935546875  11.5453125 8.64704241071429  C 10.8421875 9.35853794642857  9.99375 9.71428571428571  9 9.71428571428571  C 8.00625 9.71428571428571  7.1578125 9.35853794642857  6.4546875 8.64704241071429  C 5.7515625 7.935546875  5.4 7.07700892857143  5.4 6.07142857142857  C 5.4 5.06584821428571  5.7515625 4.20731026785714  6.4546875 3.49581473214286  C 7.1578125 2.78431919642857  8.00625 2.42857142857143  9 2.42857142857143  C 9.99375 2.42857142857143  10.8421875 2.78431919642857  11.5453125 3.49581473214286  Z M 16.8375 4.85714285714286  C 17.6125 4.85714285714286  18 5.97340029761905  18 8.20591517857143  C 18 8.69921875  17.825 9.07393973214286  17.475 9.330078125  C 17.125 9.58621651785714  16.69375 9.71428571428571  16.18125 9.71428571428571  L 14.925 9.71428571428571  C 14.28125 8.93638392857143  13.453125 8.53162202380952  12.440625 8.5  C 12.946875 7.76004464285714  13.2 6.95052083333333  13.2 6.07142857142857  C 13.2 5.88802083333333  13.184375 5.67931547619047  13.153125 5.4453125  C 13.565625 5.59077380952381  13.98125 5.66350446428571  14.4 5.66350446428571  C 14.76875 5.66350446428571  15.140625 5.59551711309524  15.515625 5.45954241071429  C 15.890625 5.32356770833333  16.1953125 5.18917410714286  16.4296875 5.05636160714286  C 16.6640625 4.92354910714286  16.8 4.85714285714286  16.8375 4.85714285714286  Z M 16.096875 0.711495535714286  C 16.565625 1.18582589285714  16.8 1.75818452380952  16.8 2.42857142857143  C 16.8 3.09895833333333  16.565625 3.67131696428571  16.096875 4.14564732142857  C 15.628125 4.61997767857143  15.0625 4.85714285714286  14.4 4.85714285714286  C 13.7375 4.85714285714286  13.171875 4.61997767857143  12.703125 4.14564732142857  C 12.234375 3.67131696428571  12 3.09895833333333  12 2.42857142857143  C 12 1.75818452380952  12.234375 1.18582589285714  12.703125 0.711495535714286  C 13.171875 0.237165178571429  13.7375 0  14.4 0  C 15.0625 0  15.628125 0.237165178571429  16.096875 0.711495535714286  Z " fill-rule="nonzero" fill="#555555" stroke="none" transform="matrix(1 0 0 1 323 628 )" />
  </g>
</svg>