<?xml version="1.0" encoding="utf-8"?>
<svg version="1.1" xmlns:xlink="http://www.w3.org/1999/xlink" width="21px" height="16px" xmlns="http://www.w3.org/2000/svg">
  <g transform="matrix(1 0 0 1 -322 -581 )">
    <path d="M 17.9814126394052 9.141075604053  C 17.9900867410161 9.15770329955833  17.9944237918216 9.18264484281632  17.9944237918216 9.21590023382697  L 17.9944237918216 15.2018706157443  C 17.9944237918216 15.4180306573136  17.912019826518 15.6050922317485  17.7472118959108 15.7630553390491  C 17.5824039653036 15.9210184463497  17.3872366790582 16  17.1617100371747 16  L 12.1654275092937 16  L 12.1654275092937 11.2112236944661  L 8.83457249070632 11.2112236944661  L 8.83457249070632 16  L 3.83828996282528 16  C 3.61276332094176 16  3.41759603469641 15.9210184463497  3.25278810408922 15.7630553390491  C 3.08798017348203 15.6050922317485  3.00557620817844 15.4180306573136  3.00557620817844 15.2018706157443  L 3.00557620817844 9.21590023382697  C 3.00557620817844 9.2075863860743  3.00774473358116 9.19511561444531  3.01208178438662 9.17848791893998  C 3.01641883519207 9.16186022343466  3.0185873605948 9.14938945180566  3.0185873605948 9.141075604053  L 10.5 3.22992985190959  L 17.9814126394052 9.141075604053  Z M 20.9869888475836 8.06235385814497  C 20.9956629491946 8.17459080280592  20.9653035935564 8.27227851389971  20.8959107806691 8.35541699142635  L 20.089219330855 9.27825409197194  C 20.0198265179678 9.35307872174591  19.9287484510533 9.39880488438556  19.8159851301115 9.41543257989088  L 19.7769516728625 9.41543257989088  C 19.6641883519207 9.41543257989088  19.5731102850062 9.38633411275656  19.503717472119 9.32813717848792  L 10.5 2.13250194855807  L 1.49628252788104 9.32813717848792  C 1.39219330855019 9.39464796050922  1.28810408921933 9.42374642764354  1.18401486988848 9.41543257989088  C 1.07125154894672 9.39880488438556  0.980173482032218 9.35307872174591  0.910780669144981 9.27825409197194  L 0.104089219330855 8.35541699142635  C 0.0346964064436184 8.27227851389971  0.00433705080545232 8.17459080280592  0.0130111524163569 8.06235385814497  C 0.0216852540272615 7.95011691348402  0.0693928128872367 7.86074305014289  0.156133828996283 7.79423226812159  L 9.51115241635688 0.324240062353859  C 9.78872366790582 0.108080020784618  10.1183395291202 0  10.5 0  C 10.8816604708798 0  11.2112763320942 0.108080020784618  11.4888475836431 0.324240062353859  L 14.6635687732342 2.86827747466874  L 14.6635687732342 0.436477007014808  C 14.6635687732342 0.320083138477525  14.7026022304833 0.224473889321901  14.7806691449814 0.149649259547935  C 14.8587360594796 0.0748246297739676  14.958488228005 0.0374123148869838  15.0799256505576 0.0374123148869838  L 17.5780669144981 0.0374123148869838  C 17.6995043370508 0.0374123148869838  17.7992565055762 0.0748246297739676  17.8773234200743 0.149649259547935  C 17.9553903345725 0.224473889321901  17.9944237918216 0.320083138477525  17.9944237918216 0.436477007014808  L 17.9944237918216 5.52455183164458  L 20.8438661710037 7.79423226812159  C 20.9306071871128 7.86074305014289  20.9783147459727 7.95011691348402  20.9869888475836 8.06235385814497  Z " fill-rule="nonzero" fill="#555555" stroke="none" transform="matrix(1 0 0 1 322 581 )" />
  </g>
</svg>