<?xml version="1.0" encoding="utf-8"?>
<svg version="1.1" xmlns:xlink="http://www.w3.org/1999/xlink" width="46px" height="46px" xmlns="http://www.w3.org/2000/svg">
  <g transform="matrix(1 0 0 1 -19 -43 )">
    <path d="M 42 43  C 54.88 43  65 53.12  65 66  C 65 78.88  54.88 89  42 89  C 29.12 89  19 78.88  19 66  C 19 53.12  29.12 43  42 43  Z " fill-rule="nonzero" fill="#ffffff" stroke="none" />
    <path d="M 42 43.5  C 54.6 43.5  64.5 53.4  64.5 66  C 64.5 78.6  54.6 88.5  42 88.5  C 29.4 88.5  19.5 78.6  19.5 66  C 19.5 53.4  29.4 43.5  42 43.5  Z " stroke-width="1" stroke="#797979" fill="none" />
  </g>
</svg>