<?xml version="1.0" encoding="utf-8"?>
<svg version="1.1" xmlns:xlink="http://www.w3.org/1999/xlink" width="102px" height="32px" xmlns="http://www.w3.org/2000/svg">
  <defs>
    <mask fill="white" id="clip210">
      <path d="M 102 27.4285714285714  L 102 4.57142857142857  C 102 2.01142857142857  99.195 0  95.625 0  L 0 0  L 0 32  L 95.625 32  C 99.195 32  102 29.9885714285714  102 27.4285714285714  Z " fill-rule="evenodd" />
    </mask>
  </defs>
  <g transform="matrix(1 0 0 1 -192 -70 )">
    <path d="M 102 27.4285714285714  L 102 4.57142857142857  C 102 2.01142857142857  99.195 0  95.625 0  L 0 0  L 0 32  L 95.625 32  C 99.195 32  102 29.9885714285714  102 27.4285714285714  Z " fill-rule="nonzero" fill="#ffffff" stroke="none" transform="matrix(1 0 0 1 192 70 )" />
    <path d="M 102 27.4285714285714  L 102 4.57142857142857  C 102 2.01142857142857  99.195 0  95.625 0  L 0 0  L 0 32  L 95.625 32  C 99.195 32  102 29.9885714285714  102 27.4285714285714  Z " stroke-width="2" stroke="#d9d9d9" fill="none" transform="matrix(1 0 0 1 192 70 )" mask="url(#clip210)" />
  </g>
</svg>