<?xml version="1.0" encoding="utf-8"?>
<svg version="1.1" xmlns:xlink="http://www.w3.org/1999/xlink" width="52px" height="52px" xmlns="http://www.w3.org/2000/svg">
  <g transform="matrix(1 0 0 1 -15 0 )">
    <path d="M 41 0  C 55.56 0  67 11.44  67 26  C 67 40.56  55.56 52  41 52  C 26.44 52  15 40.56  15 26  C 15 11.44  26.44 0  41 0  Z " fill-rule="nonzero" fill="#d7d7d7" stroke="none" />
    <path d="M 41 0.5  C 55.28 0.5  66.5 11.72  66.5 26  C 66.5 40.28  55.28 51.5  41 51.5  C 26.72 51.5  15.5 40.28  15.5 26  C 15.5 11.72  26.72 0.5  41 0.5  Z " stroke-width="1" stroke="#797979" fill="none" />
  </g>
</svg>