<?xml version="1.0" encoding="utf-8"?>
<svg version="1.1" xmlns:xlink="http://www.w3.org/1999/xlink" width="6px" height="6px" xmlns="http://www.w3.org/2000/svg">
  <g transform="matrix(1 0 0 1 -425 -121 )">
    <path d="M 4.9453125 2.54296875  C 4.9921875 2.49609375  5.015625 2.4375  5.015625 2.3671875  C 5.015625 2.29427083333333  4.9921875 2.234375  4.9453125 2.1875  L 4.58984375 1.8359375  C 4.54036458333333 1.78645833333333  4.48177083333333 1.76171875  4.4140625 1.76171875  C 4.34635416666667 1.76171875  4.28776041666667 1.78645833333333  4.23828125 1.8359375  L 2.64453125 3.42578125  L 1.76171875 2.54296875  C 1.71223958333333 2.49348958333333  1.65364583333333 2.46875  1.5859375 2.46875  C 1.51822916666667 2.46875  1.45963541666667 2.49348958333333  1.41015625 2.54296875  L 1.0546875 2.89453125  C 1.0078125 2.94140625  0.984375 3.00130208333333  0.984375 3.07421875  C 0.984375 3.14453125  1.0078125 3.203125  1.0546875 3.25  L 2.46875 4.6640625  C 2.51822916666667 4.71354166666667  2.57682291666667 4.73828125  2.64453125 4.73828125  C 2.71484375 4.73828125  2.77473958333333 4.71354166666667  2.82421875 4.6640625  L 4.9453125 2.54296875  Z M 5.59765625 1.494140625  C 5.86588541666667 1.95377604166667  6 2.45572916666667  6 3  C 6 3.54427083333333  5.86588541666667 4.04622395833333  5.59765625 4.505859375  C 5.32942708333333 4.96549479166667  4.96549479166667 5.32942708333333  4.505859375 5.59765625  C 4.04622395833333 5.86588541666667  3.54427083333333 6  3 6  C 2.45572916666667 6  1.95377604166667 5.86588541666667  1.494140625 5.59765625  C 1.03450520833333 5.32942708333333  0.670572916666667 4.96549479166667  0.40234375 4.505859375  C 0.134114583333333 4.04622395833333  0 3.54427083333333  0 3  C 0 2.45572916666667  0.134114583333333 1.95377604166667  0.40234375 1.494140625  C 0.670572916666667 1.03450520833333  1.03450520833333 0.670572916666666  1.494140625 0.40234375  C 1.95377604166667 0.134114583333333  2.45572916666667 0  3 0  C 3.54427083333333 0  4.04622395833333 0.134114583333333  4.505859375 0.40234375  C 4.96549479166667 0.670572916666666  5.32942708333333 1.03450520833333  5.59765625 1.494140625  Z " fill-rule="nonzero" fill="#555555" stroke="none" transform="matrix(1 0 0 1 425 121 )" />
  </g>
</svg>