<?xml version="1.0" encoding="utf-8"?>
<svg version="1.1" xmlns:xlink="http://www.w3.org/1999/xlink" width="70px" height="29px" xmlns="http://www.w3.org/2000/svg">
  <defs>
    <mask fill="white" id="clip53">
      <path d="M 0 26.1  L 0 2.9  C 0 1.27599999999999  0.699999999999996 0  1.59090909090909 0  L 27.3636363636346 0  L 68.4090909090909 0  C 69.3 0  70 1.27599999999999  70 2.9  L 70 26.1  C 70 27.724  69.3 29  68.4090909090909 29  L 1.59090909090909 29  C 0.699999999999996 29  0 27.724  0 26.1  Z " fill-rule="evenodd" />
    </mask>
  </defs>
  <g transform="matrix(1 0 0 1 -462 -32 )">
    <path d="M 0 26.1  L 0 2.9  C 0 1.27599999999999  0.699999999999996 0  1.59090909090909 0  L 27.3636363636346 0  L 68.4090909090909 0  C 69.3 0  70 1.27599999999999  70 2.9  L 70 26.1  C 70 27.724  69.3 29  68.4090909090909 29  L 1.59090909090909 29  C 0.699999999999996 29  0 27.724  0 26.1  Z " fill-rule="nonzero" fill="#5584ff" stroke="none" transform="matrix(1 0 0 1 462 32 )" />
    <path d="M 0 26.1  L 0 2.9  C 0 1.27599999999999  0.699999999999996 0  1.59090909090909 0  L 27.3636363636346 0  L 68.4090909090909 0  C 69.3 0  70 1.27599999999999  70 2.9  L 70 26.1  C 70 27.724  69.3 29  68.4090909090909 29  L 1.59090909090909 29  C 0.699999999999996 29  0 27.724  0 26.1  Z " stroke-width="2" stroke="#3e86ff" fill="none" transform="matrix(1 0 0 1 462 32 )" mask="url(#clip53)" />
  </g>
</svg>