<?xml version="1.0" encoding="utf-8"?>
<svg version="1.1" xmlns:xlink="http://www.w3.org/1999/xlink" width="86px" height="29px" xmlns="http://www.w3.org/2000/svg">
  <defs>
    <mask fill="white" id="clip56">
      <path d="M 0 26.1  L 0 2.9  C 0 1.27599999999999  0.859999999999996 0  1.95454545454545 0  L 33.6181818181797 0  L 84.0454545454545 0  C 85.14 0  86 1.27599999999999  86 2.9  L 86 26.1  C 86 27.724  85.14 29  84.0454545454545 29  L 1.95454545454545 29  C 0.859999999999996 29  0 27.724  0 26.1  Z " fill-rule="evenodd" />
    </mask>
  </defs>
  <g transform="matrix(1 0 0 1 -474 -32 )">
    <path d="M 0 26.1  L 0 2.9  C 0 1.27599999999999  0.859999999999996 0  1.95454545454545 0  L 33.6181818181797 0  L 84.0454545454545 0  C 85.14 0  86 1.27599999999999  86 2.9  L 86 26.1  C 86 27.724  85.14 29  84.0454545454545 29  L 1.95454545454545 29  C 0.859999999999996 29  0 27.724  0 26.1  Z " fill-rule="nonzero" fill="#ffffff" stroke="none" transform="matrix(1 0 0 1 474 32 )" />
    <path d="M 0 26.1  L 0 2.9  C 0 1.27599999999999  0.859999999999996 0  1.95454545454545 0  L 33.6181818181797 0  L 84.0454545454545 0  C 85.14 0  86 1.27599999999999  86 2.9  L 86 26.1  C 86 27.724  85.14 29  84.0454545454545 29  L 1.95454545454545 29  C 0.859999999999996 29  0 27.724  0 26.1  Z " stroke-width="2" stroke="#3e86ff" fill="none" transform="matrix(1 0 0 1 474 32 )" mask="url(#clip56)" />
  </g>
</svg>