<?xml version="1.0" encoding="utf-8"?>
<svg version="1.1" xmlns:xlink="http://www.w3.org/1999/xlink" width="96px" height="29px" xmlns="http://www.w3.org/2000/svg">
  <defs>
    <mask fill="white" id="clip58">
      <path d="M 0 26.1  L 0 2.9  C 0 1.27599999999999  0.959999999999995 0  2.18181818181818 0  L 37.5272727272703 0  L 93.8181818181818 0  C 95.04 0  96 1.27599999999999  96 2.9  L 96 26.1  C 96 27.724  95.04 29  93.8181818181818 29  L 2.18181818181818 29  C 0.959999999999995 29  0 27.724  0 26.1  Z " fill-rule="evenodd" />
    </mask>
  </defs>
  <g transform="matrix(1 0 0 1 -570 -32 )">
    <path d="M 0 26.1  L 0 2.9  C 0 1.27599999999999  0.959999999999995 0  2.18181818181818 0  L 37.5272727272703 0  L 93.8181818181818 0  C 95.04 0  96 1.27599999999999  96 2.9  L 96 26.1  C 96 27.724  95.04 29  93.8181818181818 29  L 2.18181818181818 29  C 0.959999999999995 29  0 27.724  0 26.1  Z " fill-rule="nonzero" fill="#ffffff" stroke="none" transform="matrix(1 0 0 1 570 32 )" />
    <path d="M 0 26.1  L 0 2.9  C 0 1.27599999999999  0.959999999999995 0  2.18181818181818 0  L 37.5272727272703 0  L 93.8181818181818 0  C 95.04 0  96 1.27599999999999  96 2.9  L 96 26.1  C 96 27.724  95.04 29  93.8181818181818 29  L 2.18181818181818 29  C 0.959999999999995 29  0 27.724  0 26.1  Z " stroke-width="2" stroke="#3e86ff" fill="none" transform="matrix(1 0 0 1 570 32 )" mask="url(#clip58)" />
  </g>
</svg>