<?xml version="1.0" encoding="utf-8"?>
<svg version="1.1" xmlns:xlink="http://www.w3.org/1999/xlink" width="130px" height="130px" xmlns="http://www.w3.org/2000/svg">
  <g transform="matrix(1 0 0 1 -309 -140 )">
    <path d="M 374 140.5  C 410.12 140.5  438.5 168.88  438.5 205  C 438.5 241.12  410.12 269.5  374 269.5  C 337.88 269.5  309.5 241.12  309.5 205  C 309.5 168.88  337.88 140.5  374 140.5  Z " fill-rule="nonzero" fill="#ffffff" stroke="none" fill-opacity="0" />
    <path d="M 374 140.5  C 410.12 140.5  438.5 168.88  438.5 205  C 438.5 241.12  410.12 269.5  374 269.5  C 337.88 269.5  309.5 241.12  309.5 205  C 309.5 168.88  337.88 140.5  374 140.5  Z " stroke-width="1" stroke-dasharray="3,1" stroke="#dcdee3" fill="none" stroke-dashoffset="0.5" />
  </g>
</svg>