<?xml version="1.0" encoding="utf-8"?>
<svg version="1.1" xmlns:xlink="http://www.w3.org/1999/xlink" width="193px" height="193px" xmlns="http://www.w3.org/2000/svg">
  <g transform="matrix(1 0 0 1 -278 -109 )">
    <path d="M 374.5 109.5  C 428.26 109.5  470.5 151.74  470.5 205.5  C 470.5 259.26  428.26 301.5  374.5 301.5  C 320.74 301.5  278.5 259.26  278.5 205.5  C 278.5 151.74  320.74 109.5  374.5 109.5  Z " fill-rule="nonzero" fill="#ffffff" stroke="none" fill-opacity="0" />
    <path d="M 374.5 109.5  C 428.26 109.5  470.5 151.74  470.5 205.5  C 470.5 259.26  428.26 301.5  374.5 301.5  C 320.74 301.5  278.5 259.26  278.5 205.5  C 278.5 151.74  320.74 109.5  374.5 109.5  Z " stroke-width="1" stroke-dasharray="3,1" stroke="#dcdee3" fill="none" stroke-dashoffset="0.5" />
  </g>
</svg>