<?xml version="1.0" encoding="utf-8"?>
<svg version="1.1" xmlns:xlink="http://www.w3.org/1999/xlink" width="51px" height="51px" xmlns="http://www.w3.org/2000/svg">
  <g transform="matrix(1 0 0 1 -348 -177 )">
    <path d="M 373.5 177.5  C 387.5 177.5  398.5 188.5  398.5 202.5  C 398.5 216.5  387.5 227.5  373.5 227.5  C 359.5 227.5  348.5 216.5  348.5 202.5  C 348.5 188.5  359.5 177.5  373.5 177.5  Z " fill-rule="nonzero" fill="#ffffff" stroke="none" fill-opacity="0" />
    <path d="M 373.5 177.5  C 387.5 177.5  398.5 188.5  398.5 202.5  C 398.5 216.5  387.5 227.5  373.5 227.5  C 359.5 227.5  348.5 216.5  348.5 202.5  C 348.5 188.5  359.5 177.5  373.5 177.5  Z " stroke-width="1" stroke-dasharray="3,1" stroke="#dcdee3" fill="none" stroke-dashoffset="0.5" />
  </g>
</svg>