<?xml version="1.0" encoding="utf-8"?>
<svg version="1.1" xmlns:xlink="http://www.w3.org/1999/xlink" width="254px" height="254px" xmlns="http://www.w3.org/2000/svg">
  <g transform="matrix(1 0 0 1 -247 -78 )">
    <path d="M 374 78.5  C 444.84 78.5  500.5 134.16  500.5 205  C 500.5 275.84  444.84 331.5  374 331.5  C 303.16 331.5  247.5 275.84  247.5 205  C 247.5 134.16  303.16 78.5  374 78.5  Z " fill-rule="nonzero" fill="#ffffff" stroke="none" fill-opacity="0" />
    <path d="M 374 78.5  C 444.84 78.5  500.5 134.16  500.5 205  C 500.5 275.84  444.84 331.5  374 331.5  C 303.16 331.5  247.5 275.84  247.5 205  C 247.5 134.16  303.16 78.5  374 78.5  Z " stroke-width="1" stroke-dasharray="3,1" stroke="#dcdee3" fill="none" stroke-dashoffset="0.5" />
  </g>
</svg>