<?xml version="1.0" encoding="utf-8"?>
<svg version="1.1" xmlns:xlink="http://www.w3.org/1999/xlink" width="136px" height="125px" xmlns="http://www.w3.org/2000/svg">
  <defs>
    <mask fill="white" id="clip60">
      <path d="M 75.3801896044463 0.179018976012236  L 122.062111801243 23.0039384174727  L 75.3801896044463 96.4017185821706  L 135.39980385747 106.2477622628  L 100.277214776071 124.597207303974  L 64.7100359594639 117.436448263516  L 57.5966001961429 124.597207303974  L 49.1493952271984 120.569280343716  L 43.369728669499 114.303616183316  L 35.8117031709709 109.82814178303  L 10.9146779993466 91.4786967418539  L 0.689114089571331 50.3043322592195  L 32.6995750245166 33.2975295381302  L 75.3801896044463 0.179018976012236  Z " fill-rule="evenodd" />
    </mask>
  </defs>
  <g transform="matrix(1 0 0 1 -318 -100 )">
    <path d="M 75.3801896044463 0.179018976012236  L 122.062111801243 23.0039384174727  L 75.3801896044463 96.4017185821706  L 135.39980385747 106.2477622628  L 100.277214776071 124.597207303974  L 64.7100359594639 117.436448263516  L 57.5966001961429 124.597207303974  L 49.1493952271984 120.569280343716  L 43.369728669499 114.303616183316  L 35.8117031709709 109.82814178303  L 10.9146779993466 91.4786967418539  L 0.689114089571331 50.3043322592195  L 32.6995750245166 33.2975295381302  L 75.3801896044463 0.179018976012236  Z " fill-rule="nonzero" fill="#ebeff7" stroke="none" fill-opacity="0" transform="matrix(1 0 0 1 318 100 )" />
    <path d="M 75.3801896044463 0.179018976012236  L 122.062111801243 23.0039384174727  L 75.3801896044463 96.4017185821706  L 135.39980385747 106.2477622628  L 100.277214776071 124.597207303974  L 64.7100359594639 117.436448263516  L 57.5966001961429 124.597207303974  L 49.1493952271984 120.569280343716  L 43.369728669499 114.303616183316  L 35.8117031709709 109.82814178303  L 10.9146779993466 91.4786967418539  L 0.689114089571331 50.3043322592195  L 32.6995750245166 33.2975295381302  L 75.3801896044463 0.179018976012236  Z " stroke-width="2" stroke="#c4c6cf" fill="none" transform="matrix(1 0 0 1 318 100 )" mask="url(#clip60)" />
  </g>
</svg>