<?xml version="1.0" encoding="utf-8"?>
<svg version="1.1" xmlns:xlink="http://www.w3.org/1999/xlink" width="231px" height="231px" xmlns="http://www.w3.org/2000/svg">
  <g transform="matrix(1 0 0 1 -392 -63 )">
    <path d="M 507.5 63.5  C 571.9 63.5  622.5 114.1  622.5 178.5  C 622.5 242.9  571.9 293.5  507.5 293.5  C 443.1 293.5  392.5 242.9  392.5 178.5  C 392.5 114.1  443.1 63.5  507.5 63.5  Z " fill-rule="nonzero" fill="#ffffff" stroke="none" fill-opacity="0.0117647058823529" />
    <path d="M 507.5 63.5  C 571.9 63.5  622.5 114.1  622.5 178.5  C 622.5 242.9  571.9 293.5  507.5 293.5  C 443.1 293.5  392.5 242.9  392.5 178.5  C 392.5 114.1  443.1 63.5  507.5 63.5  Z " stroke-width="1" stroke-dasharray="3,1" stroke="#dcdee3" fill="none" stroke-dashoffset="0.5" />
  </g>
</svg>