<?xml version="1.0" encoding="utf-8"?>
<svg version="1.1" xmlns:xlink="http://www.w3.org/1999/xlink" width="163px" height="163px" xmlns="http://www.w3.org/2000/svg">
  <g transform="matrix(1 0 0 1 -427 -98 )">
    <path d="M 508.5 98.5  C 553.86 98.5  589.5 134.14  589.5 179.5  C 589.5 224.86  553.86 260.5  508.5 260.5  C 463.14 260.5  427.5 224.86  427.5 179.5  C 427.5 134.14  463.14 98.5  508.5 98.5  Z " fill-rule="nonzero" fill="#ffffff" stroke="none" fill-opacity="0.0117647058823529" />
    <path d="M 508.5 98.5  C 553.86 98.5  589.5 134.14  589.5 179.5  C 589.5 224.86  553.86 260.5  508.5 260.5  C 463.14 260.5  427.5 224.86  427.5 179.5  C 427.5 134.14  463.14 98.5  508.5 98.5  Z " stroke-width="1" stroke-dasharray="3,1" stroke="#dcdee3" fill="none" stroke-dashoffset="0.5" />
  </g>
</svg>