<?xml version="1.0" encoding="utf-8"?>
<svg version="1.1" xmlns:xlink="http://www.w3.org/1999/xlink" width="94px" height="94px" xmlns="http://www.w3.org/2000/svg">
  <g transform="matrix(1 0 0 1 -461 -130 )">
    <path d="M 508 130.5  C 534.04 130.5  554.5 150.96  554.5 177  C 554.5 203.04  534.04 223.5  508 223.5  C 481.96 223.5  461.5 203.04  461.5 177  C 461.5 150.96  481.96 130.5  508 130.5  Z " fill-rule="nonzero" fill="#ffffff" stroke="none" fill-opacity="0.0117647058823529" />
    <path d="M 508 130.5  C 534.04 130.5  554.5 150.96  554.5 177  C 554.5 203.04  534.04 223.5  508 223.5  C 481.96 223.5  461.5 203.04  461.5 177  C 461.5 150.96  481.96 130.5  508 130.5  Z " stroke-width="1" stroke-dasharray="3,1" stroke="#dcdee3" fill="none" stroke-dashoffset="0.5" />
  </g>
</svg>