<?xml version="1.0" encoding="utf-8"?>
<svg version="1.1" xmlns:xlink="http://www.w3.org/1999/xlink" width="146px" height="160px" xmlns="http://www.w3.org/2000/svg">
  <defs>
    <mask fill="white" id="clip61">
      <path d="M 68.3664670658689 0.174863387978778  L 145.300598802396 26.7540983606576  L 139.705389221556 91.8032786885246  L 77.4586826347293 99.4972677595622  L 68.3664670658689 159.650273224046  L 11.0155688622742 133.071038251367  L 0.524550898202321 91.8032786885246  L 0.524550898202321 18.3606557377049  L 68.3664670658689 0.174863387978778  Z " fill-rule="evenodd" />
    </mask>
  </defs>
  <g transform="matrix(1 0 0 1 -440 -85 )">
    <path d="M 68.3664670658689 0.174863387978778  L 145.300598802396 26.7540983606576  L 139.705389221556 91.8032786885246  L 77.4586826347293 99.4972677595622  L 68.3664670658689 159.650273224046  L 11.0155688622742 133.071038251367  L 0.524550898202321 91.8032786885246  L 0.524550898202321 18.3606557377049  L 68.3664670658689 0.174863387978778  Z " fill-rule="nonzero" fill="#ebeff7" stroke="none" fill-opacity="0.00392156862745098" transform="matrix(1 0 0 1 440 85 )" />
    <path d="M 68.3664670658689 0.174863387978778  L 145.300598802396 26.7540983606576  L 139.705389221556 91.8032786885246  L 77.4586826347293 99.4972677595622  L 68.3664670658689 159.650273224046  L 11.0155688622742 133.071038251367  L 0.524550898202321 91.8032786885246  L 0.524550898202321 18.3606557377049  L 68.3664670658689 0.174863387978778  Z " stroke-width="2" stroke="#c4c6cf" fill="none" transform="matrix(1 0 0 1 440 85 )" mask="url(#clip61)" />
  </g>
</svg>