<?xml version="1.0" encoding="utf-8"?>
<svg version="1.1" xmlns:xlink="http://www.w3.org/1999/xlink" width="216px" height="216px" xmlns="http://www.w3.org/2000/svg">
  <g transform="matrix(1 0 0 1 -412 -74 )">
    <path d="M 520 74.5  C 580.2 74.5  627.5 121.8  627.5 182  C 627.5 242.2  580.2 289.5  520 289.5  C 459.8 289.5  412.5 242.2  412.5 182  C 412.5 121.8  459.8 74.5  520 74.5  Z " fill-rule="nonzero" fill="#ffffff" stroke="none" fill-opacity="0" />
    <path d="M 520 74.5  C 580.2 74.5  627.5 121.8  627.5 182  C 627.5 242.2  580.2 289.5  520 289.5  C 459.8 289.5  412.5 242.2  412.5 182  C 412.5 121.8  459.8 74.5  520 74.5  Z " stroke-width="1" stroke-dasharray="3,1" stroke="#dcdee3" fill="none" stroke-dashoffset="0.5" />
  </g>
</svg>