<?xml version="1.0" encoding="utf-8"?>
<svg version="1.1" xmlns:xlink="http://www.w3.org/1999/xlink" width="168px" height="168px" xmlns="http://www.w3.org/2000/svg">
  <g transform="matrix(1 0 0 1 -437 -100 )">
    <path d="M 521 100.5  C 567.76 100.5  604.5 137.24  604.5 184  C 604.5 230.76  567.76 267.5  521 267.5  C 474.24 267.5  437.5 230.76  437.5 184  C 437.5 137.24  474.24 100.5  521 100.5  Z " fill-rule="nonzero" fill="#ffffff" stroke="none" fill-opacity="0" />
    <path d="M 521 100.5  C 567.76 100.5  604.5 137.24  604.5 184  C 604.5 230.76  567.76 267.5  521 267.5  C 474.24 267.5  437.5 230.76  437.5 184  C 437.5 137.24  474.24 100.5  521 100.5  Z " stroke-width="1" stroke-dasharray="3,1" stroke="#dcdee3" fill="none" stroke-dashoffset="0.5" />
  </g>
</svg>