<?xml version="1.0" encoding="utf-8"?>
<svg version="1.1" xmlns:xlink="http://www.w3.org/1999/xlink" width="144px" height="145px" xmlns="http://www.w3.org/2000/svg">
  <defs>
    <mask fill="white" id="clip62">
      <path d="M 143.185430463576 38.1655629139058  L 94.9735099337753 0.549668874171232  L 57.3576158940407 78.430463576157  L 0.139072847682144 52.4701986754967  L 49.410596026491 96.7086092715227  L 20.2715231788089 125.582781456952  L 51.2649006622521 130.880794701985  L 78.8145695364234 144.920529801324  L 107.953642384105 127.966887417219  L 135.238410596026 96.7086092715227  L 143.185430463576 38.1655629139058  Z " fill-rule="evenodd" />
    </mask>
  </defs>
  <g transform="matrix(1 0 0 1 -457 -87 )">
    <path d="M 143.185430463576 38.1655629139058  L 94.9735099337753 0.549668874171232  L 57.3576158940407 78.430463576157  L 0.139072847682144 52.4701986754967  L 49.410596026491 96.7086092715227  L 20.2715231788089 125.582781456952  L 51.2649006622521 130.880794701985  L 78.8145695364234 144.920529801324  L 107.953642384105 127.966887417219  L 135.238410596026 96.7086092715227  L 143.185430463576 38.1655629139058  Z " fill-rule="nonzero" fill="#ebeff7" stroke="none" fill-opacity="0" transform="matrix(1 0 0 1 457 87 )" />
    <path d="M 143.185430463576 38.1655629139058  L 94.9735099337753 0.549668874171232  L 57.3576158940407 78.430463576157  L 0.139072847682144 52.4701986754967  L 49.410596026491 96.7086092715227  L 20.2715231788089 125.582781456952  L 51.2649006622521 130.880794701985  L 78.8145695364234 144.920529801324  L 107.953642384105 127.966887417219  L 135.238410596026 96.7086092715227  L 143.185430463576 38.1655629139058  Z " stroke-width="2" stroke="#c4c6cf" fill="none" transform="matrix(1 0 0 1 457 87 )" mask="url(#clip62)" />
  </g>
</svg>