<?xml version="1.0" encoding="utf-8"?>
<svg version="1.1" xmlns:xlink="http://www.w3.org/1999/xlink" width="88px" height="88px" xmlns="http://www.w3.org/2000/svg">
  <g transform="matrix(1 0 0 1 -477 -140 )">
    <path d="M 521 140.5  C 545.36 140.5  564.5 159.64  564.5 184  C 564.5 208.36  545.36 227.5  521 227.5  C 496.64 227.5  477.5 208.36  477.5 184  C 477.5 159.64  496.64 140.5  521 140.5  Z " fill-rule="nonzero" fill="#ffffff" stroke="none" fill-opacity="0" />
    <path d="M 521 140.5  C 545.36 140.5  564.5 159.64  564.5 184  C 564.5 208.36  545.36 227.5  521 227.5  C 496.64 227.5  477.5 208.36  477.5 184  C 477.5 159.64  496.64 140.5  521 140.5  Z " stroke-width="1" stroke-dasharray="3,1" stroke="#dcdee3" fill="none" stroke-dashoffset="0.5" />
  </g>
</svg>