<?xml version="1.0" encoding="utf-8"?>
<svg version="1.1" xmlns:xlink="http://www.w3.org/1999/xlink" width="56px" height="56px" xmlns="http://www.w3.org/2000/svg">
  <g transform="matrix(1 0 0 1 -492 -154 )">
    <path d="M 520 154.5  C 535.4 154.5  547.5 166.6  547.5 182  C 547.5 197.4  535.4 209.5  520 209.5  C 504.6 209.5  492.5 197.4  492.5 182  C 492.5 166.6  504.6 154.5  520 154.5  Z " fill-rule="nonzero" fill="#ffffff" stroke="none" fill-opacity="0" />
    <path d="M 520 154.5  C 535.4 154.5  547.5 166.6  547.5 182  C 547.5 197.4  535.4 209.5  520 209.5  C 504.6 209.5  492.5 197.4  492.5 182  C 492.5 166.6  504.6 154.5  520 154.5  Z " stroke-width="1" stroke-dasharray="3,1" stroke="#dcdee3" fill="none" stroke-dashoffset="0.5" />
  </g>
</svg>