<?xml version="1.0" encoding="utf-8"?>
<svg version="1.1" xmlns:xlink="http://www.w3.org/1999/xlink" width="120px" height="120px" xmlns="http://www.w3.org/2000/svg">
  <g transform="matrix(1 0 0 1 -461 -124 )">
    <path d="M 521 124.5  C 554.32 124.5  580.5 150.68  580.5 184  C 580.5 217.32  554.32 243.5  521 243.5  C 487.68 243.5  461.5 217.32  461.5 184  C 461.5 150.68  487.68 124.5  521 124.5  Z " fill-rule="nonzero" fill="#ffffff" stroke="none" fill-opacity="0" />
    <path d="M 521 124.5  C 554.32 124.5  580.5 150.68  580.5 184  C 580.5 217.32  554.32 243.5  521 243.5  C 487.68 243.5  461.5 217.32  461.5 184  C 461.5 150.68  487.68 124.5  521 124.5  Z " stroke-width="1" stroke-dasharray="3,1" stroke="#dcdee3" fill="none" stroke-dashoffset="0.5" />
  </g>
</svg>