<?xml version="1.0" encoding="UTF-8"?>
<svg width="18px" height="18px" viewBox="0 0 18 18" version="1.1" xmlns="http://www.w3.org/2000/svg" xmlns:xlink="http://www.w3.org/1999/xlink">
    <!-- Generator: Sketch 54.1 (76490) - https://sketchapp.com -->
    <title>hm_heal_rep_list_icon_add</title>
    <desc>Created with Sketch.</desc>
    <g id="hm_heal_rep_list_icon_add" stroke="none" stroke-width="1" fill="none" fill-rule="evenodd">
        <g>
            <rect id="Rectangle" fill-opacity="0" fill="#D8D8D8" x="0" y="0" width="18" height="18"></rect>
            <g id="编组-2" transform="translate(2.000000, 2.000000)" fill-rule="nonzero">
                <path d="M7,14 C3.14026564,14 0,10.8597484 0,7 C0,3.14025164 3.14025164,0 7,0 C10.8597484,0 14,3.14026564 14,7 C14,10.8597344 10.8597344,14 7,14 Z" id="Shape" stroke="#3E86FF"></path>
                <path d="M7.92797938,7 L9.65148357,5.27649581 C9.90783008,5.0201493 9.90783008,4.60486294 9.65148357,4.34851643 C9.39513706,4.09216992 8.9798507,4.09216992 8.72350419,4.34851643 L7,6.07202062 L5.27648182,4.34851643 C5.02013531,4.09216992 4.60484895,4.09216992 4.34850244,4.34851643 C4.09215594,4.60486294 4.09215594,5.0201493 4.34850244,5.27649581 L6.07200664,7 L4.34850244,8.72350419 C4.09215594,8.9798507 4.09215594,9.39513706 4.34850244,9.65148357 C4.4766757,9.77965682 4.64415019,9.84375044 4.81249213,9.84375044 C4.98083406,9.84375044 5.14830857,9.77965681 5.27648182,9.65148357 L6.99998601,7.92797938 L8.72350419,9.65148357 C8.85167745,9.77965682 9.01915194,9.84375044 9.18749388,9.84375044 C9.35583581,9.84375044 9.52331032,9.77965681 9.65148357,9.65148357 C9.90783008,9.39513706 9.90783008,8.9798507 9.65148357,8.72350419 L7.92797938,7 Z" id="Path" fill="#3E86FF" transform="translate(6.999993, 7.000003) rotate(45.000000) translate(-6.999993, -7.000003) "></path>
            </g>
        </g>
    </g>
</svg>