<?xml version="1.0" encoding="UTF-8"?>
<svg width="20px" height="20px" viewBox="0 0 20 20" version="1.1" xmlns="http://www.w3.org/2000/svg" xmlns:xlink="http://www.w3.org/1999/xlink">
    <!-- Generator: Sketch 54.1 (76490) - https://sketchapp.com -->
    <title>icon_baogao_sel</title>
    <desc>Created with Sketch.</desc>
    <g id="icon_baogao_sel" stroke="none" stroke-width="1" fill="none" fill-rule="evenodd">
        <g>
            <rect id="Rectangle" fill-opacity="0" fill="#D8D8D8" x="0" y="0" width="20" height="20"></rect>
            <path d="M4.99998016,11.4999672 C4.99998016,11.2500156 5.25002937,11.0000641 5.49998016,11.0000641 L11.5000389,11.0000641 C11.7499905,11.0000641 12.0000641,11.2500156 12.0000641,11.4999672 C12.0000641,11.7500164 11.7499905,11.9999924 11.5000389,11.9999924 L5.49998093,11.9999924 C5.25002937,11.9999924 4.99998016,11.7500164 4.99998016,11.4999672 Z M11.5000389,14.0000198 C11.7499905,14.0000198 12.0000641,14.2000201 12.0000641,14.500045 C12.0000641,14.7499966 11.7499905,15.0000458 11.5000389,15.0000458 L5.49998093,15.0000458 C5.25002937,15.0000458 4.99998016,14.7499966 4.99998016,14.500045 C4.99998016,14.2000201 5.25002937,14.0000198 5.49998016,14.0000198 L11.5000389,14.0000198 Z M5.49998093,9.00001221 C5.25002937,9.00001221 4.99998016,8.75003624 4.99998016,8.49998627 C4.99998016,8.25003548 5.25002937,7.99998627 5.49998016,7.99998627 L8.49996109,7.99998627 C8.7500103,7.99998627 8.99998627,8.25003548 8.99998016,8.49998627 C8.99998627,8.75003624 8.7500103,9.00001221 8.49996109,9.00001221 L5.49998093,9.00001221 Z M17.5,1 C17.7500484,1 18,1.24995155 18,1.5 L18,16.5 C18,16.7500484 17.7500484,17 17.5,17 L15.0000198,17 L15.0000198,18.5000511 C15.0000198,18.800076 14.8000439,19.0000519 14.5000191,19.0000519 L2.50000076,19.0000519 C2.24995155,19.0000519 2,18.7500027 2,18.5000511 L2,4.49998093 C2,4.25002937 2.24995155,3.99998016 2.50000076,3.99998016 L4.49995499,3.99998016 L4.49995499,1.50000076 C4.49995499,1.24995155 4.75002861,1 4.99998016,1 L17.5,1 Z M3.00002594,18.0000259 L14.0000183,18.0000259 L14.0000259,5.0000061 L3.00002594,5.0000061 L3.00002594,18.0000259 Z M14.5000191,3.99998016 C14.7499706,3.99998016 15.0000198,4.25002937 15.0000198,4.49998093 L15.0000198,15.9999741 L16.9999741,15.9999741 L16.9999809,2.00002594 L5.49998093,2.00002594 L5.49998093,3.99998016 L14.5000191,3.99998016 Z" id="Combined-Shape" fill="#3E86FF"></path>
        </g>
    </g>
</svg>