<?xml version="1.0" encoding="UTF-8"?>
<svg width="20px" height="20px" viewBox="0 0 20 20" version="1.1" xmlns="http://www.w3.org/2000/svg" xmlns:xlink="http://www.w3.org/1999/xlink">
    <!-- Generator: Sketch 54.1 (76490) - https://sketchapp.com -->
    <title>icon_comment</title>
    <desc>Created with Sketch.</desc>
    <g id="icon_comment" stroke="none" stroke-width="1" fill="none" fill-rule="evenodd">
        <g>
            <rect id="Rectangle-Copy-8" fill-opacity="0" fill="#D8D8D8" x="0" y="0" width="20" height="20"></rect>
            <path d="M12.3461587,11.0000122 L16.0000198,16.0000198 L16.0000198,17.500071 C16.0000198,17.8000958 15.8000439,18.0000717 15.5000191,18.0000717 L3.50000076,18.0000717 C3.24995155,18.0000717 3,17.7500225 3,17.500071 L3,3.5 C3,3.25004921 3.24995155,3 3.5,3 L6.49998093,3 L9.42306982,7.0000061 L6.49998016,7.0000061 C6.25002937,7.0000061 5.99998016,7.25005531 5.99998016,7.5000061 C5.99998016,7.75005608 6.25002937,8.00003204 6.49998093,8.00003204 L9.49996109,8.00003204 C9.67748237,8.00003204 9.85496673,7.87403855 9.9429897,7.71147358 L11.61544,10.0000839 L6.49998016,10.0000839 C6.25002937,10.0000839 5.99998016,10.2500355 5.99998016,10.499987 C5.99998016,10.7500362 6.25002937,11.0000122 6.49998093,11.0000122 L12.3461587,11.0000122 Z M12.3461587,11.0000122 L12.5000389,11.0000122 C12.7499905,11.0000122 13.0000641,10.7500362 13.0000641,10.499987 C13.0000641,10.2500355 12.7499905,10.0000839 12.5000389,10.0000839 L11.61544,10.0000839 L9.9429897,7.71147358 C9.97895229,7.64505619 9.99998193,7.57253426 9.99998016,7.5000061 C9.99998627,7.25005531 9.7500103,7.0000061 9.49996109,7.0000061 L9.42306982,7.0000061 L6.49998093,3 L15.5000191,3 C15.7499706,3 16.0000198,3.25004921 16.0000198,3.50000076 L16.0000198,16.0000198 L12.3461587,11.0000122 Z M12.5000389,13.0000397 C12.7499905,13.0000397 13.0000641,13.20004 13.0000641,13.5000648 C13.0000641,13.7500164 12.7499905,14.0000656 12.5000389,14.0000656 L6.49998093,14.0000656 C6.25002937,14.0000656 5.99998016,13.7500164 5.99998016,13.5000648 C5.99998016,13.20004 6.25002937,13.0000397 6.49998016,13.0000397 L12.5000389,13.0000397 Z M4.00002594,17.0000458 L4.00002594,4.00002594 L15.0000259,4.00002594 L15.0000183,17.0000458 L4.00002594,17.0000458 Z" id="形状结合" fill="#616A7D"></path>
        </g>
    </g>
</svg>