<?xml version="1.0" encoding="utf-8"?>
<svg version="1.1" xmlns:xlink="http://www.w3.org/1999/xlink" width="13px" height="13px" xmlns="http://www.w3.org/2000/svg">
  <g transform="matrix(1 0 0 1 -1094 -32 )">
    <path d="M 11.0945205479452 5.5271714922049  C 11.3705479452055 5.24342984409799  11.8305936073059 5.23763919821826  12.1125570776256 5.51559020044543  L 12.7714611872146 6.15835189309577  C 13.0504566210046 6.43051224944321  13.0504566210046 6.8706013363029  12.7714611872146 7.13986636971047  L 7.00456621004566 12.7683741648107  C 6.72557077625571 13.0405345211581  6.27442922374429 13.0405345211581  5.99840182648402 12.7683741648107  L 0.228538812785388 7.13986636971047  C -0.0504566210045662 6.86770601336303  -0.0504566210045662 6.42761692650334  0.228538812785388 6.15835189309577  L 0.887442922374429 5.51559020044543  C 1.16940639269406 5.24053452115813  1.62945205479452 5.24632516703786  1.90547945205479 5.5271714922049  L 5.31278538812785 9.01603563474388  L 5.31278538812785 0.694877505567929  C 5.31278538812785 0.309799554565702  5.63036529680365 0  6.02511415525114 0  L 6.97488584474886 0  C 7.36963470319635 0  7.68721461187215 0.309799554565702  7.68721461187215 0.694877505567929  L 7.68721461187215 9.01603563474388  L 11.0945205479452 5.5271714922049  Z " fill-rule="nonzero" fill="#ffffff" stroke="none" transform="matrix(1 0 0 1 1094 32 )" />
  </g>
</svg>