<?xml version="1.0" encoding="utf-8"?>
<svg version="1.1" xmlns:xlink="http://www.w3.org/1999/xlink" width="15px" height="10px" xmlns="http://www.w3.org/2000/svg">
  <g transform="matrix(1 0 0 1 -953 -206 )">
    <path d="M 7.5 5.45454545454545  L 7.5 2.72727272727273  L 4.6875 2.72727272727273  L 4.6875 5.45454545454545  L 7.5 5.45454545454545  Z M 3.75 7.27272727272727  L 8.4375 7.27272727272727  L 8.4375 8.18181818181818  L 3.75 8.18181818181818  L 3.75 7.27272727272727  Z M 3.75 1.81818181818182  L 8.4375 1.81818181818182  L 8.4375 6.36363636363636  L 3.75 6.36363636363636  L 3.75 1.81818181818182  Z M 9.375 7.27272727272727  L 13.125 7.27272727272727  L 13.125 8.18181818181818  L 9.375 8.18181818181818  L 9.375 7.27272727272727  Z M 9.375 5.45454545454545  L 13.125 5.45454545454545  L 13.125 6.36363636363636  L 9.375 6.36363636363636  L 9.375 5.45454545454545  Z M 9.375 3.63636363636364  L 13.125 3.63636363636364  L 13.125 4.54545454545455  L 9.375 4.54545454545455  L 9.375 3.63636363636364  Z M 9.375 1.81818181818182  L 13.125 1.81818181818182  L 13.125 2.72727272727273  L 9.375 2.72727272727273  L 9.375 1.81818181818182  Z M 1.73583984375 8.95596590909091  C 1.82861328125 8.86600378787879  1.875 8.7594696969697  1.875 8.63636363636364  L 1.875 1.81818181818182  L 0.9375 1.81818181818182  L 0.9375 8.63636363636364  C 0.9375 8.7594696969697  0.98388671875 8.86600378787879  1.07666015625 8.95596590909091  C 1.16943359375 9.04592803030303  1.279296875 9.09090909090909  1.40625 9.09090909090909  C 1.533203125 9.09090909090909  1.64306640625 9.04592803030303  1.73583984375 8.95596590909091  Z M 13.92333984375 8.95596590909091  C 14.01611328125 8.86600378787879  14.0625 8.7594696969697  14.0625 8.63636363636364  L 14.0625 1  L 2.8125 1  L 2.8125 8.63636363636364  C 2.8125 8.79261363636364  2.78564453125 8.94412878787879  2.73193359375 9  L 13.59375 9  C 13.720703125 9.09090909090909  13.83056640625 9.04592803030303  13.92333984375 8.95596590909091  Z M 1.875 0  L 15 0  L 15 8.63636363636364  C 15 9.01515151515152  14.86328125 9.33712121212121  14.58984375 9.60227272727273  C 14.31640625 9.86742424242424  13.984375 10  13.59375 10  L 1.40625 10  C 1.015625 10  0.68359375 9.86742424242424  0.41015625 9.60227272727273  C 0.13671875 9.33712121212121  0 9.01515151515152  0 8.63636363636364  L 0 0.909090909090909  L 1.875 0.909090909090909  L 1.875 0  Z " fill-rule="nonzero" fill="#3e86ff" stroke="none" transform="matrix(1 0 0 1 953 206 )" />
  </g>
</svg>