<?xml version="1.0" encoding="utf-8"?>
<svg version="1.1" xmlns:xlink="http://www.w3.org/1999/xlink" width="5px" height="3px" xmlns="http://www.w3.org/2000/svg">
  <g transform="matrix(1 0 0 1 -66 -17 )">
    <path d="M 4.9498997995992 0.309278350515464  C 4.98329993319973 0.343642611683848  5 0.383161512027491  5 0.427835051546392  C 5 0.472508591065292  4.98329993319973 0.512027491408934  4.9498997995992 0.54639175257732  L 2.61523046092184 2.94845360824742  C 2.58183032732131 2.98281786941581  2.5434201736807 3  2.5 3  C 2.45657982631931 3  2.41816967267869 2.98281786941581  2.38476953907816 2.94845360824742  L 0.0501002004008016 0.54639175257732  C 0.0167000668002672 0.512027491408934  0 0.472508591065292  0 0.427835051546392  C 0 0.383161512027491  0.0167000668002672 0.343642611683848  0.0501002004008016 0.309278350515464  L 0.30060120240481 0.0515463917525775  C 0.334001336005344 0.017182130584192  0.372411489645959 0  0.415831663326653 0  C 0.459251837007348 0  0.497661990647963 0.017182130584192  0.531062124248497 0.0515463917525775  L 2.5 2.07731958762887  L 4.4689378757515 0.0515463917525775  C 4.50233800935204 0.017182130584192  4.54074816299265 0  4.58416833667335 0  C 4.62758851035404 0  4.66599866399466 0.017182130584192  4.69939879759519 0.0515463917525775  L 4.9498997995992 0.309278350515464  Z " fill-rule="nonzero" fill="#ffffff" stroke="none" transform="matrix(1 0 0 1 66 17 )" />
  </g>
</svg>