<?xml version="1.0" encoding="utf-8"?>
<svg version="1.1" xmlns:xlink="http://www.w3.org/1999/xlink" width="15px" height="15px" viewBox="976 1318  15 15" xmlns="http://www.w3.org/2000/svg">
  <path d="M 976.5 1320  A 1.5 1.5 0 0 1 978 1318.5 L 989 1318.5  A 1.5 1.5 0 0 1 990.5 1320 L 990.5 1331  A 1.5 1.5 0 0 1 989 1332.5 L 978 1332.5  A 1.5 1.5 0 0 1 976.5 1331 L 976.5 1320  Z " fill-rule="nonzero" fill="#ffffff" stroke="none" />
  <path d="M 976.5 1320  A 1.5 1.5 0 0 1 978 1318.5 L 989 1318.5  A 1.5 1.5 0 0 1 990.5 1320 L 990.5 1331  A 1.5 1.5 0 0 1 989 1332.5 L 978 1332.5  A 1.5 1.5 0 0 1 976.5 1331 L 976.5 1320  Z " stroke-width="1" stroke="#3e86ff" fill="none" />
  <path d="M 979.214285714286 1325.5  L 982.428571428571 1328.71428571429  " stroke-width="3.21428571428571" stroke="#3e86ff" fill="none" />
  <path d="M 982.428571428571 1328.71428571429  L 987.785714285714 1321.21428571429  " stroke-width="3.21428571428571" stroke="#3e86ff" fill="none" />
</svg>