<?xml version="1.0" encoding="utf-8"?>
<svg version="1.1" xmlns:xlink="http://www.w3.org/1999/xlink" width="15px" height="15px" viewBox="1090 1318  15 15" xmlns="http://www.w3.org/2000/svg">
  <path d="M 1090.5 1320  A 1.5 1.5 0 0 1 1092 1318.5 L 1103 1318.5  A 1.5 1.5 0 0 1 1104.5 1320 L 1104.5 1331  A 1.5 1.5 0 0 1 1103 1332.5 L 1092 1332.5  A 1.5 1.5 0 0 1 1090.5 1331 L 1090.5 1320  Z " fill-rule="nonzero" fill="#ffffff" stroke="none" />
  <path d="M 1090.5 1320  A 1.5 1.5 0 0 1 1092 1318.5 L 1103 1318.5  A 1.5 1.5 0 0 1 1104.5 1320 L 1104.5 1331  A 1.5 1.5 0 0 1 1103 1332.5 L 1092 1332.5  A 1.5 1.5 0 0 1 1090.5 1331 L 1090.5 1320  Z " stroke-width="1" stroke="#3e86ff" fill="none" />
  <path d="M 1093.21428571429 1325.5  L 1096.42857142857 1328.71428571429  " stroke-width="3.21428571428571" stroke="#3e86ff" fill="none" />
  <path d="M 1096.42857142857 1328.71428571429  L 1101.78571428571 1321.21428571429  " stroke-width="3.21428571428571" stroke="#3e86ff" fill="none" />
</svg>