<?xml version="1.0" encoding="UTF-8"?>
<svg width="30px" height="30px" viewBox="0 0 30 30" version="1.1" xmlns="http://www.w3.org/2000/svg" xmlns:xlink="http://www.w3.org/1999/xlink">
    <!-- Generator: Sketch 54.1 (76490) - https://sketchapp.com -->
    <title>hm_heal_rep_icon_phone</title>
    <desc>Created with Sketch.</desc>
    <defs>
        <linearGradient x1="50%" y1="-2.22044605e-14%" x2="50%" y2="98.4853316%" id="linearGradient-1">
            <stop stop-color="#2EA1F8" offset="0%"></stop>
            <stop stop-color="#1990EA" offset="100%"></stop>
        </linearGradient>
    </defs>
    <g id="hm_heal_rep_icon_phone" stroke="none" stroke-width="1" fill="none" fill-rule="evenodd">
        <g>
            <circle id="Oval-Copy-3" fill="url(#linearGradient-1)" cx="15" cy="15" r="15"></circle>
            <path d="M13.6018981,16.41975 C14.6778435,17.4902054 15.9237609,18.5137714 16.4127629,18.0191059 C17.1130411,17.3124812 17.5439754,16.6968143 19.0977404,17.9386666 C20.6514852,19.1819294 19.4650056,20.0179985 18.7864071,20.7029215 C18.003601,21.4935117 15.0723897,20.7581933 12.167049,17.8687053 C9.26241352,14.9778069 8.50618314,12.045641 9.28967433,11.2550709 C9.96827287,10.5701278 10.7937735,9.37445959 12.0446071,10.9227551 C13.2954407,12.4703453 12.6854072,12.9076433 11.985129,13.6142277 C11.4961472,14.1081677 12.5259124,15.3486096 13.6018578,16.41975 L13.6018981,16.41975 M15.1626546,11.311048 C15.1626546,11.311048 14.8380435,11.2606727 14.610709,11.4887721 C14.3763426,11.7231584 14.3665505,12.1268057 14.6128246,12.3745113 C14.7583364,12.5207206 14.9640114,12.5514898 14.9640114,12.5514898 C15.3648842,12.6263475 15.9686113,12.7543815 16.6107815,13.398037 C17.2530121,14.0417126 17.38033,14.6469015 17.4551612,15.0484936 C17.4551612,15.0484936 17.4866531,15.254851 17.6321448,15.4003954 C17.8783786,15.6473755 18.2820319,15.6368773 18.515693,15.4031963 C18.7430477,15.175117 18.6926767,14.8490879 18.6926767,14.8490879 C18.5653387,14.036131 18.1721827,13.1867629 17.49709,12.5102224 C16.8212921,11.8329564 15.9741319,11.4391021 15.1625941,11.3110681 L15.1626546,11.311048 M18.2085909,11.7972706 C19.3859634,12.976859 19.8882633,14.3166611 19.7245575,15.4017857 C19.7245575,15.4017857 19.66788,15.7460104 19.891749,15.9705634 C20.1436243,16.2231452 20.5437517,16.2084558 20.7794881,15.9726791 C20.9313064,15.8201628 20.9641684,15.5732029 20.9641684,15.5732029 C21.0992031,14.6349928 20.9291908,12.7480745 19.0949196,10.9094358 C17.259923,9.07079717 15.3773762,8.9007704 14.4420265,9.03581655 C14.4420265,9.03581655 14.1957927,9.06872171 14.0439543,9.22051262 C13.8082178,9.45699451 13.7935296,9.85788129 14.0460497,10.110443 C14.2699187,10.3350161 14.6127037,10.2776689 14.6127037,10.2776689 C15.6942503,10.1132438 17.0304528,10.6169769 18.2084902,11.7972907 L18.2085909,11.7972706" id="电话-拷貝-2-copy" fill="#FFFFFF"></path>
        </g>
    </g>
</svg>