<?xml version="1.0" encoding="utf-8"?>
<svg version="1.1" xmlns:xlink="http://www.w3.org/1999/xlink" width="10px" height="13px" xmlns="http://www.w3.org/2000/svg">
  <g transform="matrix(1 0 0 1 -924 -2001 )">
    <path d="M 3.57244318181818 4.951171875  C 3.61505681818182 5.001953125  3.63636363636364 5.06684027777778  3.63636363636364 5.14583333333333  L 3.63636363636364 10.0208333333333  C 3.63636363636364 10.0998263888889  3.61505681818182 10.1647135416667  3.57244318181818 10.2154947916667  C 3.52982954545455 10.2662760416667  3.47537878787879 10.2916666666667  3.40909090909091 10.2916666666667  L 2.95454545454545 10.2916666666667  C 2.88825757575758 10.2916666666667  2.83380681818182 10.2662760416667  2.79119318181818 10.2154947916667  C 2.74857954545455 10.1647135416667  2.72727272727273 10.0998263888889  2.72727272727273 10.0208333333333  L 2.72727272727273 5.14583333333333  C 2.72727272727273 5.06684027777778  2.74857954545455 5.001953125  2.79119318181818 4.951171875  C 2.83380681818182 4.900390625  2.88825757575758 4.875  2.95454545454545 4.875  L 3.40909090909091 4.875  C 3.47537878787879 4.875  3.52982954545455 4.900390625  3.57244318181818 4.951171875  Z M 5.390625 4.951171875  C 5.43323863636364 5.001953125  5.45454545454545 5.06684027777778  5.45454545454545 5.14583333333333  L 5.45454545454545 10.0208333333333  C 5.45454545454545 10.0998263888889  5.43323863636364 10.1647135416667  5.390625 10.2154947916667  C 5.34801136363636 10.2662760416667  5.29356060606061 10.2916666666667  5.22727272727273 10.2916666666667  L 4.77272727272727 10.2916666666667  C 4.70643939393939 10.2916666666667  4.65198863636364 10.2662760416667  4.609375 10.2154947916667  C 4.56676136363636 10.1647135416667  4.54545454545455 10.0998263888889  4.54545454545455 10.0208333333333  L 4.54545454545455 5.14583333333333  C 4.54545454545455 5.06684027777778  4.56676136363636 5.001953125  4.609375 4.951171875  C 4.65198863636364 4.900390625  4.70643939393939 4.875  4.77272727272727 4.875  L 5.22727272727273 4.875  C 5.29356060606061 4.875  5.34801136363636 4.900390625  5.390625 4.951171875  Z M 7.20880681818182 4.951171875  C 7.25142045454545 5.001953125  7.27272727272727 5.06684027777778  7.27272727272727 5.14583333333333  L 7.27272727272727 10.0208333333333  C 7.27272727272727 10.0998263888889  7.25142045454545 10.1647135416667  7.20880681818182 10.2154947916667  C 7.16619318181818 10.2662760416667  7.11174242424242 10.2916666666667  7.04545454545455 10.2916666666667  L 6.59090909090909 10.2916666666667  C 6.52462121212121 10.2916666666667  6.47017045454545 10.2662760416667  6.42755681818182 10.2154947916667  C 6.38494318181818 10.1647135416667  6.36363636363636 10.0998263888889  6.36363636363636 10.0208333333333  L 6.36363636363636 5.14583333333333  C 6.36363636363636 5.06684027777778  6.38494318181818 5.001953125  6.42755681818182 4.951171875  C 6.47017045454545 4.900390625  6.52462121212121 4.875  6.59090909090909 4.875  L 7.04545454545455 4.875  C 7.11174242424242 4.875  7.16619318181818 4.900390625  7.20880681818182 4.951171875  Z M 8.13210227272727 11.6162109375  C 8.16524621212121 11.5118272569444  8.18181818181818 11.3975694444444  8.18181818181818 11.2734375  L 8.18181818181818 3.25  L 1.81818181818182 3.25  L 1.81818181818182 11.2734375  C 1.81818181818182 11.3975694444444  1.83475378787879 11.5118272569444  1.86789772727273 11.6162109375  C 1.90104166666667 11.7205946180556  1.93536931818182 11.7967664930556  1.97088068181818 11.8447265625  C 2.00639204545455 11.8926866319444  2.03125 11.9166666666667  2.04545454545455 11.9166666666667  L 7.95454545454545 11.9166666666667  C 7.96875 11.9166666666667  7.99360795454545 11.8926866319444  8.02911931818182 11.8447265625  C 8.06463068181818 11.7967664930556  8.09895833333334 11.7205946180556  8.13210227272727 11.6162109375  Z M 3.75710227272727 1.17643229166667  L 3.40909090909091 2.16666666666667  L 6.59090909090909 2.16666666666667  L 6.25 1.17643229166667  C 6.21685606060606 1.12565104166667  6.17660984848485 1.09461805555555  6.12926136363636 1.08333333333333  L 3.87784090909091 1.08333333333333  C 3.83049242424242 1.09461805555555  3.79024621212121 1.12565104166667  3.75710227272727 1.17643229166667  Z M 9.93607954545455 2.24283854166667  C 9.97869318181818 2.29361979166667  10 2.35850694444444  10 2.4375  L 10 2.97916666666667  C 10 3.05815972222222  9.97869318181818 3.123046875  9.93607954545455 3.173828125  C 9.89346590909091 3.224609375  9.83901515151515 3.25  9.77272727272727 3.25  L 9.09090909090909 3.25  L 9.09090909090909 11.2734375  C 9.09090909090909 11.7417534722222  8.97964015151515 12.1465928819444  8.75710227272727 12.4879557291667  C 8.53456439393939 12.8293185763889  8.26704545454545 13  7.95454545454545 13  L 2.04545454545455 13  C 1.73295454545455 13  1.46543560606061 12.8349609375  1.24289772727273 12.5048828125  C 1.02035984848485 12.1748046875  0.909090909090909 11.7756076388889  0.909090909090909 11.3072916666667  L 0.909090909090909 3.25  L 0.227272727272727 3.25  C 0.160984848484848 3.25  0.106534090909091 3.224609375  0.0639204545454545 3.173828125  C 0.0213068181818182 3.123046875  0 3.05815972222222  0 2.97916666666667  L 0 2.4375  C 0 2.35850694444444  0.0213068181818182 2.29361979166667  0.0639204545454545 2.24283854166667  C 0.106534090909091 2.19205729166667  0.160984848484848 2.16666666666667  0.227272727272727 2.16666666666667  L 2.421875 2.16666666666667  L 2.91903409090909 0.753255208333334  C 2.99005681818182 0.544487847222221  3.11789772727273 0.366753472222221  3.30255681818182 0.220052083333334  C 3.48721590909091 0.0733506944444436  3.67424242424242 0  3.86363636363636 0  L 6.13636363636364 0  C 6.32575757575758 0  6.51278409090909 0.0733506944444436  6.69744318181818 0.220052083333334  C 6.88210227272727 0.366753472222221  7.00994318181818 0.544487847222221  7.08096590909091 0.753255208333334  L 7.578125 2.16666666666667  L 9.77272727272727 2.16666666666667  C 9.83901515151515 2.16666666666667  9.89346590909091 2.19205729166667  9.93607954545455 2.24283854166667  Z " fill-rule="nonzero" fill="#ffffff" stroke="none" transform="matrix(1 0 0 1 924 2001 )" />
  </g>
</svg>