<?xml version="1.0" encoding="utf-8"?>
<svg version="1.1" xmlns:xlink="http://www.w3.org/1999/xlink" width="154px" height="60px" xmlns="http://www.w3.org/2000/svg">
  <g transform="matrix(1 0 0 1 -87 -239 )">
    <path d="M 164 240  C 206.56 240  240 252.76  240 269  C 240 285.24  206.56 298  164 298  C 121.44 298  88 285.24  88 269  C 88 252.76  121.44 240  164 240  Z " fill-rule="nonzero" fill="#d7d7d7" stroke="none" />
    <path d="M 164 240  C 206.56 240  240 252.76  240 269  C 240 285.24  206.56 298  164 298  C 121.44 298  88 285.24  88 269  C 88 252.76  121.44 240  164 240  Z " stroke-width="2" stroke="#555555" fill="none" />
  </g>
</svg>