<?xml version="1.0" encoding="utf-8"?>
<svg version="1.1" xmlns:xlink="http://www.w3.org/1999/xlink" width="154px" height="60px" xmlns="http://www.w3.org/2000/svg">
  <g transform="matrix(1 0 0 1 -891 -334 )">
    <path d="M 968 335  C 1010.56 335  1044 347.76  1044 364  C 1044 380.24  1010.56 393  968 393  C 925.44 393  892 380.24  892 364  C 892 347.76  925.44 335  968 335  Z " fill-rule="nonzero" fill="#ffffff" stroke="none" />
    <path d="M 968 335  C 1010.56 335  1044 347.76  1044 364  C 1044 380.24  1010.56 393  968 393  C 925.44 393  892 380.24  892 364  C 892 347.76  925.44 335  968 335  Z " stroke-width="2" stroke="#555555" fill="none" />
  </g>
</svg>