<?xml version="1.0" encoding="utf-8"?>
<svg version="1.1" xmlns:xlink="http://www.w3.org/1999/xlink" width="154px" height="60px" xmlns="http://www.w3.org/2000/svg">
  <g transform="matrix(1 0 0 1 -60 -855 )">
    <path d="M 137 856  C 179.56 856  213 868.76  213 885  C 213 901.24  179.56 914  137 914  C 94.44 914  61 901.24  61 885  C 61 868.76  94.44 856  137 856  Z " fill-rule="nonzero" fill="#d7d7d7" stroke="none" />
    <path d="M 137 856  C 179.56 856  213 868.76  213 885  C 213 901.24  179.56 914  137 914  C 94.44 914  61 901.24  61 885  C 61 868.76  94.44 856  137 856  Z " stroke-width="2" stroke="#333333" fill="none" />
  </g>
</svg>