<?xml version="1.0" encoding="utf-8"?>
<svg version="1.1" xmlns:xlink="http://www.w3.org/1999/xlink" width="154px" height="60px" xmlns="http://www.w3.org/2000/svg">
  <g transform="matrix(1 0 0 1 -592 -737 )">
    <path d="M 669 738  C 711.56 738  745 750.76  745 767  C 745 783.24  711.56 796  669 796  C 626.44 796  593 783.24  593 767  C 593 750.76  626.44 738  669 738  Z " fill-rule="nonzero" fill="#ffffff" stroke="none" />
    <path d="M 669 738  C 711.56 738  745 750.76  745 767  C 745 783.24  711.56 796  669 796  C 626.44 796  593 783.24  593 767  C 593 750.76  626.44 738  669 738  Z " stroke-width="2" stroke="#333333" fill="none" />
  </g>
</svg>